<?xml version="1.0" encoding="UTF-8"?><svg xmlns="http://www.w3.org/2000/svg" xmlns:xlink="http://www.w3.org/1999/xlink" height="2710.0" preserveAspectRatio="xMidYMid meet" version="1.0" viewBox="-2.9 -44.4 2754.9 2710.0" width="2754.9" zoomAndPan="magnify"><g><g><g><g><g><g><g><path d="M496.6,1884.6c132.2-32.1,262.9,39.1,292,158.9c29.1,119.8-54.5,243-186.7,275.1 c-105.9,25.7-437.7-32-565.6-55.9c-20.8-3.9-27.9-30.1-11.8-43.9C124.8,2132.4,390.4,1910.3,496.6,1884.6z" fill="#d73c2c"/></g></g></g><g><g><g><path d="M527.3,2327.2c-140.5,0-380.3-41.6-491.4-62.4c-10.4-2-18.6-9.5-21.4-19.8c-2.8-10.2,0.5-20.9,8.6-27.8 c107-92.1,367.3-308.9,473-334.6c133.1-32.3,265.2,39.7,294.5,160.5c29.3,120.8-55.1,245.3-188.2,277.6 C583.6,2325.2,557.8,2327.2,527.3,2327.2z M497.1,1886.6c-104.8,25.4-364.5,241.8-471.3,333.7c-6.8,5.9-9.6,14.9-7.3,23.5 c2.3,8.7,9.3,15.1,18.1,16.8c134.9,25.3,460.1,81.4,564.8,56c130.8-31.8,213.9-154,185.1-272.5 C757.8,1925.5,628,1854.9,497.1,1886.6L497.1,1886.6z" fill="#371a45"/></g></g></g></g><g><g><g><g><path d="M566.2,1934.2c91.3-22.2,181.6,27,201.7,109.8c20.1,82.8-37.6,167.8-128.9,190 c-67,16.3-268.6-20.3-371.2-40.9c-24.8-5-32.5-36.6-12.7-52.4C336.8,2075.3,499.2,1950.5,566.2,1934.2z" fill="#e5a900"/></g></g></g></g><g><g><g><g><path d="M636.6,1981.5c56.7-13.8,112.8,16.8,125.3,68.2c12.5,51.4-23.4,104.3-80.1,118 c-36.8,8.9-139.2-7.8-206.4-20.7c-25.1-4.8-32.8-36.9-12.8-52.6C516.5,2052.2,599.8,1990.5,636.6,1981.5z" fill="#ff0"/></g></g></g></g><g><g><g><g><path d="M512.6,2332.7c-144.8,0-369.7-33.7-477.1-51.3c-16.3-2.7-29.2-14.2-33.8-30 c-4.6-15.9,0.3-32.5,12.7-43.4c105.3-92.6,361.8-311.2,467.6-341.6l0,0c66.6-19.1,136.1-13.5,195.6,15.8 c60,29.5,102.7,79.5,120.3,140.8c17.6,61.2,7.8,126.3-27.4,183.1c-34.9,56.4-90.9,98-157.5,117.1 C589.3,2329.9,554.3,2332.7,512.6,2332.7z M489.8,1893.8c-103.1,29.6-375.6,264.3-456.6,335.6c-6.1,5.3-4.7,12.1-4.1,14.1 c0.6,2,3,8.5,11,9.8c106.5,17.4,462,72,565.1,42.5c59.8-17.2,109.9-54.3,141.2-104.7c30.9-49.9,39.5-106.8,24.2-160.2 c-15.3-53.4-52.8-97.1-105.5-123C611.9,1881.6,549.6,1876.6,489.8,1893.8L489.8,1893.8z" fill="#371a45"/></g></g></g></g><g><g><g><g><path d="M1411.9,2280c-9.3,34.7-34.7,94.9-104.2,161.1c-74.3,70.6-199,148-408.2,208.3 c-26.5,7.6-47-23.6-29.2-44.7c48.5-57.7,112.3-145.4,144.4-238.8c14.8-43.2,22.8-87.6,19.4-130.8 c-1.4-17.8,13.6-32.5,31.3-30.3l323,40.6C1405,2247.5,1416.2,2263.7,1411.9,2280z" fill="#f92323"/></g></g></g></g><g opacity=".35"><g><g><g><path d="M1411.9,2280c-9.3,34.7-12.9,32.5-60.8,109c-75.7,18.3-226.5,9.8-336.4-23.2 c14.8-43.2,22.8-87.6,19.4-130.8c-1.4-17.8,13.6-32.5,31.3-30.3l323,40.6C1405,2247.5,1416.2,2263.7,1411.9,2280z" fill="#371a45"/></g></g></g></g><g><g><g><g><path d="M888.7,2665.6c-13.7,0-26.4-6.8-34.2-19c-10.1-15.6-8.9-34.9,3.1-49.1c73-86.4,190.6-252.5,157.2-394.2 l-4.7-20l421.6,53l-0.1,12.7c0,2.8-1.5,69.1-69.3,153.8c-88.7,110.9-244.1,198.7-461.8,261 C896.5,2665,892.6,2665.6,888.7,2665.6z M1046.3,2216.7c22,148.8-93.7,312.6-167,399.2c-5.6,6.7-2.1,13.3-0.9,15.2 s5.8,7.8,14.2,5.4c261.9-74.9,386.8-176.8,445.5-249.1c46-56.7,59.4-104.3,63.3-126.1L1046.3,2216.7z" fill="#371a45"/></g></g></g></g><g><g><g><g><path d="M1272.7,1589.8c-1.7,7.1-6.3,13.7-13.2,17.7l-281.9,162.9c-15.5,8.9-35,1.2-40.6-15.8 c-34.9-105.6-142.2-189-233.8-243.5c-21.4-12.8-42.1-24-60.7-33.5c-24.6-12.6-17.8-49.3,9.6-52.6 c418.5-49.7,570,82.6,615.6,141.5C1273.1,1573.4,1274.6,1582,1272.7,1589.8z" fill="#f92323"/></g></g></g><g><g><g><path d="M963.7,1776.2c-3.6,0-7.2-0.6-10.6-2c-8.6-3.3-15.2-10.2-18.1-19c-35.3-106.8-146.1-190.8-232.9-242.4 c-19.3-11.5-39.6-22.8-60.5-33.4c-12-6.1-18.2-18.7-15.8-31.9c2.4-13.3,12.6-23,26.1-24.6c419.2-49.8,571.5,82.9,617.5,142.3 c5.6,7.1,7.5,16.3,5.3,25.2c-1.9,8-7.1,14.9-14.2,19l-281.9,162.9C974,1774.9,968.9,1776.2,963.7,1776.2z M826.1,1416.1 c-52.1,0-109.7,3.3-173.7,10.9c-11.6,1.4-20.4,9.7-22.5,21.2c-2,11.4,3.3,22.2,13.6,27.4c21,10.7,41.4,22,60.8,33.6 c87.4,52,199,136.6,234.7,244.7c2.5,7.6,8.2,13.6,15.6,16.4c7.2,2.8,15.2,2.1,21.9-1.8l281.9-162.9 c6.1-3.5,10.6-9.5,12.2-16.3l0,0c1.9-7.6,0.2-15.5-4.6-21.6C1227.5,1518,1113.2,1416.1,826.1,1416.1z" fill="#371a45"/></g></g></g></g><g opacity=".7"><g><g><g><path d="M1272.7,1589.8c-233.8-167.1-532.3-125.5-559.3-120.6c-26,4.8-18.2,27.4-10.2,41.8 c-21.4-12.8-42.1-24-60.7-33.5c-24.6-12.6-17.8-49.3,9.6-52.6c418.5-49.7,570,82.6,615.6,141.5 C1273.1,1573.4,1274.6,1582,1272.7,1589.8z" fill="#fff"/></g></g></g></g><g><g><g><g><path d="M934.9,1811.5l-3.4-20.2c-24.2-143.5-197-250.9-297.9-302.2c-16.5-8.4-25.1-25.7-21.9-44 s17.2-31.6,35.6-33.8c224.8-27.1,402.1-6.5,526.9,61.2c95.3,51.7,122.4,112.3,123.5,114.8l5.1,11.7L934.9,1811.5z M824.7,1428.4c-51.8,0-109.6,3.3-173.9,11.1c-8.7,1-10.6,8.3-11,10.5s-1,9.7,6.7,13.6c101.1,51.4,271.4,157.5,308.9,303.1 l309.9-179c-12-18.5-42.9-57.2-107.3-91.6C1095.4,1462.7,990.7,1428.4,824.7,1428.4z" fill="#371a45"/></g></g></g></g><g><g><g><g><path d="M2374.4,1980.1c-150.5,99.8-343.3,193.4-563.6,242.3c-134.8,29.9-265.7,48-387.1,55.2 c-38.1,2.3-75.1,3.4-111.2,3.6c-38.9,0.1-76.6-0.9-112.7-3.2c-40.2-2.5-78.5-6.5-114.6-12c-50.1-7.6-96.2-17.9-137.2-30.8 c-17.1-5.4-33.3-11.2-48.6-17.5c-8.6-3.5-17-7.2-25-11c-77-36.5-126.7-85.9-140.2-146.9c-13.5-61,10.6-126.7,65-192.4 c16-19.3,34.7-38.7,55.8-57.9c10.2-9.3,21-18.6,32.3-27.8c23.7-19.3,49.7-38.4,78-57.2c30.5-20.2,63.5-40,98.8-59.2 c31.8-17.3,65.5-34.2,100.8-50.6c29-13.4,59-26.4,90.1-38.9c4-1.6,8-3.2,12.1-4.8c113.1-44.7,239.3-83.6,374.2-113.5 c220.2-48.8,434.4-46.1,612.9-19.6c3.1,0.5,6.2,0.9,9.3,1.4c260.5,39.9,443,129.8,454.3,180.8 C2728.8,1669.5,2598.3,1831.8,2374.4,1980.1z" fill="#fff"/></g></g></g><g><g><g><path d="M1305.6,2283.2c-36.3,0-71.8-1.1-105.9-3.2c-39.9-2.5-78.5-6.5-114.8-12c-50.4-7.6-96.7-18-137.5-30.9 c-17-5.3-33.4-11.2-48.8-17.5c-8.4-3.4-16.8-7.1-25.1-11c-80.5-38.2-128-88.1-141.4-148.3c-13.4-60.2,8.7-125.6,65.5-194.2 c16.2-19.5,35-39.1,56-58.1c9.8-9,20.7-18.4,32.3-27.9c23.6-19.3,49.9-38.6,78.1-57.3c30.6-20.2,63.9-40.2,99-59.3 c31.9-17.4,65.9-34.4,100.9-50.6c29.4-13.6,59.8-26.7,90.2-39c4-1.6,8.1-3.2,12.1-4.8c116.7-46.2,242.7-84.4,374.5-113.6 c247.1-54.8,470.1-40.9,613.7-19.6c3.1,0.5,6.3,0.9,9.4,1.4c253.5,38.9,443.8,127.3,456,182.5 c10.8,48.8-115,210.2-344.4,362.2l0,0c-121.4,80.5-317.8,187.9-564.3,242.6c-131.9,29.2-262.3,47.8-387.4,55.2 c-37.5,2.2-74.9,3.4-111.3,3.6C1310.2,2283.2,1307.9,2283.2,1305.6,2283.2z M1998.6,1421.2c-107.3,0-228.8,9.9-356.8,38.3 c-131.5,29.2-257.3,67.3-373.9,113.4c-4.1,1.6-8.1,3.2-12.1,4.8c-30.4,12.2-60.7,25.3-90,38.9c-35,16.1-68.8,33.1-100.7,50.5 c-35,19.1-68.2,39-98.7,59.1c-28.1,18.6-54.3,37.8-77.8,57c-11.6,9.4-22.4,18.8-32.2,27.7c-20.9,18.9-39.6,38.3-55.6,57.7 c-55.9,67.5-77.7,131.7-64.6,190.6c13,58.9,59.8,107.9,139.1,145.4c8.2,3.9,16.5,7.5,24.9,10.9c15.3,6.3,31.6,12.1,48.5,17.4 c40.6,12.8,86.7,23.2,136.9,30.8c36.1,5.4,74.6,9.4,114.4,11.9c36.1,2.3,73.9,3.4,112.6,3.2c36.3-0.1,73.6-1.3,111-3.6 c124.9-7.4,255-25.9,386.8-55.1c245.8-54.5,441.8-161.6,562.9-242l0,0c227.9-151.1,353.2-310.2,342.6-357.8 c-10.5-47.5-187.8-138.6-452.6-179.2c-3.1-0.5-6.2-1-9.3-1.4C2185.1,1429.7,2097.9,1421.2,1998.6,1421.2z" fill="#371a45"/></g></g></g></g><g opacity=".35"><g><g><g><path d="M949.4,2229.7c-0.4,1.8-0.9,3.6-1.4,5.4c-17.1-5.4-33.3-11.2-48.6-17.5c-8.1-3.3-16-6.8-23.6-10.3l8-3.2v-0.2 C903.9,2213.4,925.8,2222,949.4,2229.7z"/></g></g></g><g><g><g><path d="M949.5,2237.7l-2.1-0.7c-17-5.3-33.4-11.2-48.8-17.5c-8.3-3.4-16.3-6.9-23.6-10.4l-4.3-2l10.8-4.4 l-0.4-2.3l3.7,1.6c20,9.5,42,18.1,65.4,25.7l1.8,0.6l-0.5,1.9c-0.4,1.8-0.9,3.6-1.4,5.4L949.5,2237.7z M881.1,2207.4 c6,2.8,12.4,5.5,19.1,8.3c14.6,6,30.2,11.6,46.4,16.7c0.1-0.4,0.2-0.9,0.3-1.3c-22.4-7.4-43.6-15.7-62.9-24.8L881.1,2207.4z" fill="#371a45"/></g></g></g></g><g opacity=".35"><g><g><g><path d="M2383.5,1975.7c-150.4,100-343.1,193.8-563.3,242.9c-134.8,30-265.7,48.3-387,55.6 c-38,2.3-75.1,3.5-111.1,3.7c-38.9,0.2-76.6-0.9-112.7-3.1c-40.2-2.5-78.4-6.5-114.6-11.8c-53.5-8-102.2-19.1-145.3-33.2 c-23.6-7.7-45.5-16.4-65.6-25.8v0.2l-8,3.2l0,0c-55.2-26-96.5-58.4-120.6-97c-10-15.8-17-32.7-21-50.5 c-13.5-61,10.6-126.7,65-192.4c16-19.3,34.7-38.7,55.8-57.9c38.1,46.7,71.4,117.9,89.9,200.9c2.7,12.3,5.1,24.4,7,36.4 c5.6,34.7,32.7,62.2,67.5,67.3c310.6,45.6,584.8,22.6,817.6-33c15.3-3.7,16.5-24.9,1.7-30.4c-72.9-27-131.2-89.4-149.3-171 c-28.5-127.9,52.1-254.8,180-283.3c128-28.5,254.8,52.1,283.3,180.1c14.8,66.6,0.1,132.9-35.5,185.2 c-8.7,12.9,4.8,29.3,19.3,23.5c83.4-33.8,158.6-70.6,225.1-107.4c237.1-131.1,364.9-262.5,364.9-262.5 C2737.6,1664.7,2607.2,1827.1,2383.5,1975.7z" fill="#371a45"/></g></g></g></g><g opacity=".35"><g><g><g><path d="M875.8,2207.3l-90.8,36.8l-29.8-133.9c24,38.3,64.8,70.5,119.2,96.4C874.9,2206.9,875.4,2207.1,875.8,2207.3z"/></g></g></g><g><g><g><path d="M783.5,2247l-33-148.2l6.5,10.4c23.3,37.2,63.1,69.4,118.4,95.6l5.7,2.7L783.5,2247z M759.7,2120.7 l26.9,120.5l84.1-34.1C820.8,2183.1,783.5,2154,759.7,2120.7z" fill="#371a45"/></g></g></g></g><g><g><g><g><path d="M2727.7,1627.7c-0.2,1.1-0.6,2.2-0.9,3.3c-0.6,2.1-1.3,4.3-2.2,6.6c-0.4,1.2-0.9,2.4-1.4,3.6 c-3.4,8.5-8.3,18-14.6,28.4c-0.9,1.5-1.8,3-2.8,4.5c-6.6,10.6-14.6,22.1-24,34.2c-1.3,1.7-2.7,3.5-4.1,5.3 c-3.2,4.1-6.5,8.1-9.9,12.3c-1.5,1.8-3.1,3.7-4.7,5.5c-9.6,11.4-20.3,23.3-31.9,35.6c-1.7,1.8-3.4,3.6-5.2,5.4 c-10.8,11.3-22.5,22.9-34.9,34.6c-2.2,2.1-4.4,4.2-6.7,6.3c-12.4,11.7-25.6,23.5-39.5,35.5c-2.5,2.2-5.1,4.4-7.7,6.6 c-31.1,26.5-65.6,53.6-103.2,80.5c-3.1,2.3-6.3,4.5-9.5,6.7c-6.4,4.5-12.8,9-19.3,13.5c-3.3,2.2-6.5,4.5-9.8,6.7 c-1,0.7-2,1.3-2.9,2l0,0c0.4-31.9-2.4-67.9-6.4-102.7c-3.7-31.8-8.5-62.7-12.9-88.4c-0.2-93.7-23.3-186.5-67.8-270 l-12.8-23.9l-27.9-52.4c249.8,36.6,430,119.5,460,172.2c1.1,1.9,2,3.8,2.7,5.6c0.5,1.3,0.9,2.6,1.2,3.9 C2729.8,1614.2,2729.4,1620.4,2727.7,1627.7z" fill="#f92323"/></g></g></g><g><g><g><path d="M2390.6,1968.9v-4c0.3-28.4-1.8-62.9-6.4-102.5c-3.2-27.7-7.6-57.4-12.9-88.3 c-0.2-93.8-23.6-186.9-67.6-269.3l-42.6-79.9l4.1,0.6c244.5,35.8,429.9,117.8,461.5,173.2c1.1,1.9,2,3.9,2.8,5.9 c0.5,1.4,1,2.8,1.3,4.2c1.2,5.3,0.8,11.8-1,19.4c-0.2,1-0.5,2-0.8,3c-0.7,2.5-1.4,4.8-2.3,7.1c-0.3,0.8-0.6,1.6-0.9,2.4 l-0.5,1.2c-3.5,8.7-8.4,18.4-14.7,28.8c-0.9,1.5-1.8,3-2.8,4.6c-6.7,10.8-14.8,22.4-24.1,34.4c-1.3,1.7-2.7,3.5-4.1,5.3 c-3.2,4.1-6.5,8.2-10,12.4c-1.1,1.3-2.2,2.6-3.3,4l-1.3,1.6c-9.4,11.2-20.1,23.2-32,35.7c-1.7,1.8-3.4,3.6-5.2,5.4 c-10.6,11.1-22.4,22.8-34.9,34.7c-2.4,2.3-4.5,4.3-6.7,6.3c-12.4,11.6-25.7,23.6-39.5,35.5c-2.5,2.2-5.1,4.4-7.7,6.6 c-32.3,27.5-67.1,54.7-103.3,80.6c-3.1,2.3-6.3,4.5-9.5,6.7c-6.4,4.5-12.8,9-19.3,13.5c-3.3,2.2-6.6,4.5-9.8,6.7 L2390.6,1968.9z M2268.6,1430.1l38.7,72.6c44.3,83.1,67.9,176.8,68.1,271c5.3,30.6,9.7,60.4,12.9,88.2 c4.4,38,6.6,71.3,6.5,99.1c3.2-2.1,6.3-4.3,9.4-6.4c6.5-4.5,13-8.9,19.3-13.4c3.2-2.2,6.3-4.5,9.5-6.7 c36.2-25.9,70.8-52.9,103.1-80.4c2.6-2.2,5.2-4.4,7.7-6.6c13.8-11.9,27.1-23.8,39.4-35.4c2.2-2,4.3-4,6.3-6 c12.8-12.2,24.5-23.8,35.1-34.9c1.8-1.8,3.5-3.6,5.2-5.4c11.8-12.4,22.5-24.4,31.8-35.5l1.3-1.6c1.1-1.3,2.2-2.6,3.3-3.9 c3.5-4.2,6.8-8.3,9.9-12.3c1.4-1.8,2.8-3.5,4.1-5.2c9.2-11.9,17.2-23.4,23.9-34.1c1-1.5,1.9-3,2.7-4.5 c6.2-10.2,11-19.7,14.4-28.1l0.5-1.2c0.3-0.8,0.6-1.6,0.9-2.3c0.9-2.3,1.5-4.4,2.1-6.5c0.4-1.3,0.6-2.3,0.9-3.2l0,0 c1.7-7,2-12.9,1-17.5c-0.3-1.2-0.6-2.4-1.1-3.6c-0.7-1.9-1.6-3.7-2.5-5.3C2692.1,1546.4,2509.9,1466.1,2268.6,1430.1z" fill="#371a45"/></g></g></g></g><g opacity=".7"><g><g><g><path d="M2724.8,1599.6c-39.2-15-149.6-55.8-256.8-82.5c-69.3-17.3-131.6-29.6-175.3-37.3l-27.9-52.4 C2514.6,1464.1,2694.8,1546.9,2724.8,1599.6z" fill="#fff"/></g></g></g></g><g opacity=".35"><g><g><g><path d="M2727.7,1627.7c-0.2,1.1-0.6,2.2-0.9,3.3c-0.6,2.1-1.3,4.3-2.2,6.6c-0.4,1.2-0.9,2.4-1.4,3.6 c-3.4,8.5-8.3,18-14.6,28.4c-0.9,1.5-1.8,3-2.8,4.5c-6.6,10.6-14.6,22.1-24,34.2c-1.3,1.7-2.7,3.5-4.1,5.3 c-3.2,4.1-6.5,8.1-9.9,12.3c-1.5,1.8-3.1,3.7-4.7,5.5c-9.6,11.4-20.3,23.3-31.9,35.6c-1.7,1.8-3.4,3.6-5.2,5.4 c-10.8,11.3-22.5,22.9-34.9,34.6c-2.2,2.1-4.4,4.2-6.7,6.3c-12.4,11.7-25.6,23.5-39.5,35.5c-2.5,2.2-5.1,4.4-7.7,6.6 c-31.1,26.5-65.6,53.6-103.2,80.5c-3.1,2.3-6.3,4.5-9.5,6.7c-6.4,4.5-12.8,9-19.3,13.5c-3.3,2.2-6.5,4.5-9.8,6.7 c-1,0.7-1.9,1.3-2.9,1.9c0.4-31.9-2.4-67.9-6.4-102.7c94.2-56.7,295.1-183.1,341.3-256.8c0.5,1.3,0.9,2.6,1.2,3.9 C2729.8,1614.2,2729.4,1620.4,2727.7,1627.7z" fill="#371a45"/></g></g></g></g><g><g><g><g><path d="M1315.8,2286c-36.1,0-71.4-1.1-105.3-3.2c-40.3-2.5-79.3-6.5-115.8-12c-85-12.7-157.2-33-214.9-60.3 c-84.1-39.7-134-92.4-148.2-156.5c-14.3-64.1,8.5-133,67.8-204.6c40.6-49.1,97.5-98.2,169-145.8c30.8-20.5,64.4-40.6,99.8-60 c32.1-17.5,66.2-34.7,101.6-51.1c33.3-15.4,67.9-30.3,102.9-44.2c117.1-46.5,243.7-85.1,376.2-114.6 c248.8-55.4,473.5-41.7,618.1-20.5c267.6,39.2,462,131.3,475.7,192.7c9.3,41.7-50.4,115.4-86.9,155.7 c-66.7,73.6-159.8,151.7-262.2,219.7c-122.2,81.2-319.9,189.6-568.1,244.9l0,0c-132.5,29.5-263.5,48.3-389.3,55.9 c-37.6,2.3-75.2,3.5-111.9,3.7C1321.4,2286,1318.6,2286,1315.8,2286z M2011.1,1423.3c-107,0-228.3,9.9-356.1,38.4 c-131,29.2-256.1,67.3-371.9,113.3c-34.5,13.7-68.7,28.3-101.5,43.5c-34.8,16.1-68.4,33-99.9,50.2 c-34.7,19-67.6,38.7-97.7,58.7c-69.2,46-123.9,93.2-162.8,140.2c-53.4,64.5-74.2,125.2-61.9,180.3 c12.3,55.1,56.9,101.1,132.6,136.9c55.1,26.1,124.7,45.5,206.9,57.9c35.7,5.3,73.9,9.3,113.4,11.7 c35.8,2.2,73.4,3.2,111.8,3.1c36.2-0.2,73.3-1.4,110.3-3.7c124.3-7.5,253.8-26.1,384.8-55.3l0,0 c243.9-54.4,438.4-161,558.5-240.8c233.3-155.1,345.1-309.5,337.1-345.4c-8.2-36.7-175.1-130.1-452-170.7 C2194.8,1431.6,2108.9,1423.3,2011.1,1423.3z" fill="#371a45"/></g></g></g></g><g><g><g><g><path d="M2017.3,1963.2L2017.3,1963.2z" fill="none" stroke="#371a45" stroke-linecap="round" stroke-miterlimit="10" stroke-width="7.129"/></g></g></g></g><g><g><g><g><path d="M1744.3,1882.1L1744.3,1882.1z" fill="#c1303d" stroke="#371a45" stroke-miterlimit="10" stroke-width="4.197"/></g></g></g></g><g><g><g><g><path d="M1963.8,2005.9c-87.3,19.4-174-17.1-222.6-85.8c-16-22.6-28-48.8-34.3-77.6c-2.4-10.7-4-21.4-4.7-32 c-7.4-104.5,62.6-201.5,168-225c7-1.6,13.9-2.8,20.8-3.6c89-10.9,174.2,34.8,215.5,111.5c9.2,17,16.2,35.6,20.7,55.4 C2153.1,1864.9,2079.9,1980,1963.8,2005.9z" fill="#ee346a"/></g></g></g></g><g opacity=".7"><g><g><g><path d="M1702.5,1809.6c7.8-91.3,73.6-170.9,167.7-191.8c7-1.6,13.9-2.8,20.8-3.6 c89-10.9,174.2,34.8,215.5,111.5c9.2,17,16.2,35.6,20.7,55.4c2.2,9.7,3.6,19.4,4.4,29c1.9-21.4,0.5-43.4-4.4-65.5 c-4.4-19.8-11.5-38.4-20.7-55.4c-41.3-76.7-126.6-122.4-215.5-111.5c-6.9,0.8-13.9,2-20.8,3.6 c-105.4,23.5-175.4,120.5-168,225C1702.3,1807.4,1702.4,1808.5,1702.5,1809.6z" fill="#fff"/></g></g></g></g><g opacity=".35"><g><g><g><path d="M1963.8,2005.9c-87.3,19.4-174-17.1-222.6-85.8c-9.2-17.1-16.3-35.7-20.7-55.7c-0.3-1.4-0.6-2.8-0.9-4.2 c48.8,68,135.1,104.1,221.9,84.8c114.6-25.5,187.4-138.1,164.3-252.7c0.3,0.4,0.6,0.8,0.8,1.1c9.2,17,16.2,35.6,20.7,55.4 C2153.1,1864.9,2079.9,1980,1963.8,2005.9z" fill="#371a45"/></g></g></g></g><g><g><g><g><path d="M1917,2025.3c-105.2,0-200.3-72.9-224.1-179.7c-13.3-59.9-2.6-121.3,30.3-173.1 c32.9-51.8,84-87.6,143.8-100.9c59.9-13.3,121.3-2.6,173.1,30.3c51.8,32.9,87.6,84,100.9,143.8 c27.5,123.6-50.6,246.5-174.2,274l0,0C1950.2,2023.5,1933.5,2025.3,1917,2025.3z M1917.4,1594.5c-14.7,0-29.5,1.6-44.1,4.9 c-52.4,11.7-97.2,43.1-126,88.4c-28.8,45.3-38.2,99.2-26.6,151.6c24.1,108.2,131.8,176.7,240,152.5l0,0 c108.2-24.1,176.7-131.8,152.5-240c-11.7-52.4-43.1-97.2-88.4-126C1992.3,1605.2,1955.2,1594.5,1917.4,1594.5z" fill="#371a45"/></g></g></g></g><g><g><g><g><path d="M1917,2025.7c-105.4,0-200.7-73-224.5-180c-13.4-60-2.6-121.6,30.4-173.4c33-51.9,84.1-87.8,144.1-101.1 c60-13.4,121.6-2.6,173.4,30.4c51.9,33,87.8,84.1,101.1,144.1c27.6,123.8-50.7,247-174.5,274.6l0,0 C1950.3,2023.9,1933.5,2025.7,1917,2025.7z M1917.4,1594.9c-14.6,0-29.4,1.6-44,4.9c-52.3,11.7-97,43-125.7,88.2 c-28.8,45.2-38.2,99-26.5,151.3c24.1,108,131.5,176.3,239.5,152.2c108-24.1,176.3-131.5,152.2-239.5 c-11.7-52.3-43-97-88.2-125.7C1992.1,1605.6,1955.1,1594.9,1917.4,1594.9z" fill="#371a45"/></g></g></g></g><g><g><g><g><path d="M2029.5,1884.7c-49.2,62.1-139.4,72.6-201.6,23.4c-30.8-24.4-48.9-58.8-53.4-94.9 c-4.5-36.8,5.1-75.3,29.9-106.6c49.2-62.1,139.4-72.6,201.6-23.4c44.1,34.9,62.2,90.6,51.4,142.1 C2053.1,1846.4,2043.8,1866.7,2029.5,1884.7z" fill="#22a7f0"/></g></g></g><g><g><g><path d="M1916.9,1946.2c-32.8,0-65.7-10.6-93.3-32.5c-31.2-24.7-51.1-60.1-56-99.6c-4.9-40.4,6.2-80.1,31.4-112 c51.6-65.1,146.5-76.1,211.6-24.6c45.1,35.7,65.7,92.9,53.9,149.2c-4.8,22.9-14.7,43.9-29.3,62.4l0,0 C2005.4,1926.7,1961.4,1946.2,1916.9,1946.2z M1917.2,1659.4c-40.3,0-80.2,17.7-107.1,51.7c-22.8,28.8-32.9,64.8-28.5,101.4 c4.4,35.8,22.5,67.8,50.7,90.2c28.6,22.6,64.2,32.7,100.4,28.5s68.6-22.2,91.2-50.8l0,0c13.3-16.8,22.2-35.8,26.5-56.5 c10.7-51-8-102.8-48.8-135.1C1976.7,1669,1946.8,1659.4,1917.2,1659.4z" fill="#371a45"/></g></g></g></g><g opacity=".42"><g><g><g><g><path d="M2023.3,1827.7c-6.5,18.9-19.9,35.2-36.5,47.2c-16.7,12-36.8,19.7-57.5,22.1 c-20.7,2.4-42.1-0.4-61.1-8.3c-19-7.9-35.8-20.7-46.4-37.6c18.9,6.3,36.1,11,53.3,13.4c17.1,2.4,33.9,2.6,50.5,0.7 c16.6-1.9,32.9-6,49-12.2S2006.4,1838.2,2023.3,1827.7z" fill="#371a45"/></g></g></g></g></g><g><g><g><g><path d="M749.6,2182.6L687,1927.3c-7.6-30.9,18.4-62.1,54.4-65.5l52.1-5l83.1,339l-48.5,19.7 C794.6,2229.2,757.2,2213.5,749.6,2182.6z" fill="#f92323"/></g></g></g></g><g opacity=".7"><g><g><g><path d="M743.6,1903.3l52.1-5l74.9,305.5l5-2l-83.1-339l-52.1,5c-36,3.4-61.9,34.7-54.4,65.5l3.3,13.5 C694.8,1924.5,716.3,1905.9,743.6,1903.3z" fill="#fff"/></g></g></g></g><g opacity=".35"><g><g><g><path d="M876.6,2195.9l-48.5,19.7c-33.5,13.6-71-2.1-78.5-32.9l-22.7-92.5c15.7,14.6,41.3,19.6,64.9,10l48.5-19.7 l-54.6-222.9l7.8-0.7L876.6,2195.9z"/></g></g></g><g><g><g><path d="M803,2222.7c-10,0-19.9-2.3-28.8-6.8c-13.8-7-23.2-18.6-26.7-32.7l-24.3-99.3l5.1,4.8 c15.7,14.6,40.9,18.5,62.7,9.6l46.8-19L783,1855.8l12-1.1l0.4,1.8l83.5,340.8l-50.1,20.3C820.5,2221,811.7,2222.7,803,2222.7 z M730.5,2095.8l21.2,86.3c3.1,12.8,11.8,23.5,24.5,29.9c15.2,7.8,34.4,8.4,51.2,1.5l46.8-19L792,1859l-3.6,0.3l54.5,222.3 l-50.2,20.3C771.6,2110.8,747.4,2108.1,730.5,2095.8z" fill="#371a45"/></g></g></g></g><g><g><g><g><path d="M796.5,2238.3c-10.3,0-20.5-2.4-29.6-7c-14.8-7.5-24.9-20.1-28.7-35.4l-67.4-275 c-3.7-15.3-0.5-31.1,9.1-44.7c11.1-15.6,28.8-25.6,48.7-27.5l75.8-7.2l88.9,363l-70.6,28.7 C814.3,2236.6,805.3,2238.3,796.5,2238.3z M765.9,2189.1c1.7,7.1,6.7,13.1,14,16.8c9.5,4.8,21.5,5.2,32.2,0.8l47.8-19.4 l-77.2-315.1l-51.3,4.9c-11.5,1.1-22,6.9-28.2,15.6c-4.7,6.7-6.4,14.2-4.6,21.4L765.9,2189.1z" fill="#371a45"/></g></g></g></g><g><g><g><g><path d="M2398.2,1970l-25.2-0.9l0.3-7.8c6.4-185.1-35-370-119.6-534.7l22.4-11.5 c86.6,168.5,128.9,357.7,122.3,547.1L2398.2,1970z" fill="#371a45"/></g></g></g></g><g><g><g><g><path d="M1409.9,2269.6l-10.4-159.8c-9.2-142.2-40.5-281.4-93-413.9l-51.4-129.8l23.4-9.3l51.4,129.8 c53.4,134.9,85.3,276.8,94.7,421.6L1435,2268L1409.9,2269.6z" fill="#371a45"/></g></g></g></g><g><g><g><g><path d="M1916.9,1951.7c-33.9,0-68.1-11-96.7-33.6c-32.3-25.6-53-62.3-58-103.2c-5.1-41.8,6.4-83,32.6-116 c53.4-67.5,151.8-78.9,219.3-25.5c46.7,37,68.1,96.2,55.9,154.6c-5,23.7-15.2,45.5-30.4,64.7l0,0 C2008.6,1931.4,1963,1951.7,1916.9,1951.7z M1917.2,1664.8c-38.7,0-77,17-102.8,49.6c-21.9,27.7-31.6,62.2-27.3,97.3 c4.3,34.3,21.6,65.1,48.7,86.6c56.6,44.8,139.1,35.2,183.9-21.4l0,0c12.7-16.1,21.3-34.3,25.5-54.2 c10.3-49-7.7-98.7-46.9-129.7C1974.3,1674,1945.6,1664.8,1917.2,1664.8z" fill="#371a45"/></g></g></g></g></g><g opacity=".35"><g><g><g><path d="M2232.2,1435.6c-84.6,54.9-316,7.4-376.3,45.1c-21.9,13.7,27.7,60.2-7.8,186.6 c-24.4,87-136.8,163.5-209.9,144.3c-124.4-32.7-34.7-185.5-238.9-197c-113.8-6.4-154.2-19.4-167.6-29.5c4-1.7,7.9-3.3,12-5 c111.7-46,236.7-86.4,370.3-117.9c218.2-51.5,431.1-51.7,608.9-27.8C2226,1434.7,2229.1,1435.1,2232.2,1435.6z" fill="#293856"/></g></g></g><g><g><g><path d="M1662.6,1816.6c-8.6,0-17-1-24.9-3.1c-54.3-14.3-68.4-50.4-83.3-88.7c-19.5-50-39.7-101.7-155.1-108.2 c-91.3-5.2-149.6-15.5-168.8-29.9l-2.9-2.2l3.4-1.4c4-1.7,8-3.3,12-5c115.4-47.5,240.1-87.2,370.6-118 c244.8-57.8,466.7-47.1,609.6-27.9c3.1,0.4,6.2,0.8,9.3,1.3l5.5,0.8l-4.7,3c-46.8,30.4-138.6,29.8-219.7,29.2 c-66.8-0.4-129.9-0.9-156.7,15.9c-6.9,4.3-5.4,12.6-1.5,31c6.2,28.5,16.5,76.2-5.4,154.3 C1828.2,1746.3,1735.4,1816.6,1662.6,1816.6z M1236.2,1585.5c15.7,9.4,57.1,21,163.3,27c118.1,6.7,138.8,59.7,158.8,110.9 c14.5,37.3,28.3,72.5,80.5,86.2c72.9,19.1,183.3-57,207.4-142.8c21.6-77.1,11.4-124.2,5.3-152.3c-4-18.3-6.4-29.4,3.3-35.5 c27.8-17.4,91.5-17,158.9-16.5c77.6,0.5,165.2,1.1,212.4-25.5c-1.1-0.2-2.3-0.3-3.4-0.5c-142.6-19.1-363.9-29.8-608.1,27.8 c-130.3,30.8-254.8,70.4-370,117.8C1241.7,1583.2,1238.9,1584.3,1236.2,1585.5z" fill="#371a45"/></g></g></g></g><g><g><g><g><path d="M1192.7,913.4l-63.9,19.5L860.3,52c-5.1-16.7,4.3-34.3,21-39.4l3.4-1c16.7-5.1,34.3,4.3,39.4,21 L1192.7,913.4z" fill="#ff9d00"/></g></g></g></g><g><g><g><g><path d="M982.5,414.4c0,0-26.9-7.9-64.9-9.4c0,0,0,0-0.1,0c-44.5-1.8-104,5.3-153,44.3c-0.1,0.1-0.1,0.1-0.2,0.1 c-12.7,10.2-24.7,22.5-35.5,37.3c0,0,0,0.1-0.1,0.1c-1,1.4-2,2.7-2.9,4.1c-12.6,18.2-25.1,34.1-37.3,48 c-66.6,76.1-124.2,92.2-140.3,95.3c-0.1,0-0.1,0-0.1,0c-2.9,0.5-4.3,0.7-4.3,0.7l-25.1-58.5l-5.8-13.4l-112-260.7 c111.5-63.6,139.2-106,175.2-151.9c8.4-10.6,17.1-21.5,27.6-32.8c22-24,44.2-41.1,65.9-53.1c68.8-37.9,133.3-24.1,172.2-8.3 c0.1,0,0.3,0.1,0.4,0.2c0.5,0.2,1,0.4,1.5,0.6l0.1,0.1C866,66.3,879.2,76,879.2,76L982.5,414.4z" fill="#fff"/></g></g></g><g><g><g><path d="M542.6,637.3L511.1,564L398.4,301.7l1.6-0.9c102.6-58.5,133.5-98.5,166.4-140.8c2.7-3.5,5.4-7,8.2-10.5 c8.1-10.3,17.1-21.4,27.7-32.9c20.8-22.7,43.2-40.7,66.5-53.5c68.3-37.6,132.3-25.4,174-8.4l2.3,1c22,9.2,35.1,18.6,35.6,19 l0.6,0.4l104.5,342.7l-3.7-1.1c-0.3-0.1-27.1-7.8-64.4-9.3c-42-1.7-102.4,4.6-151.7,43.9l-0.6,0.4 c-12.6,10.2-24.4,22.5-34.6,36.4l-0.5,0.6c-0.8,1.1-1.7,2.4-2.7,3.8c-12.1,17.6-24.7,33.8-37.4,48.2 c-66.5,76.1-124.5,92.6-141.1,95.9l-0.8,0.1c-2.6,0.5-4.2,0.7-4.2,0.7L542.6,637.3z M403.7,303.4l141.5,329.4 c0.7-0.1,1.6-0.2,2.7-0.5c16-3.1,73.1-19.2,139.2-94.7c12.6-14.3,25.1-30.4,37.1-47.9c0.9-1.3,1.8-2.6,2.8-3.9l0.4-0.6 c10.2-14.1,22.3-26.8,35.7-37.5c50.5-40.3,111.9-46.7,154.6-44.9c29.8,1.2,53.1,6.3,61.8,8.5l-101.8-334 c-2.7-1.9-15.1-10.1-34.1-18.1h-0.4l-0.4-0.3c-0.2-0.1-0.4-0.2-0.6-0.3l-1-0.5c-40.8-16.5-103.5-28.5-170.4,8.3 c-22.9,12.6-44.9,30.3-65.4,52.7c-10.5,11.4-19.4,22.5-27.5,32.7c-2.8,3.5-5.5,7-8.2,10.5 C536.8,204.9,505.7,245.1,403.7,303.4z" fill="#371a45"/></g></g></g></g><g><g><g><g><path d="M2005.4,1123.9c-75.2,29.4-194.8,105.4-197.6,122.7c-2.1,13.1,10,57.2,30.5,80.6 c6.4,7.3,13.6,12.6,21.5,14.3c33,7,101.4,39.3,103.9,51.4c0,0-236.6,17.1-259.8,29.6c46.8,25.2,103.2,90.3,92.8,177.7 c-0.5,4.3-1.1,8.4-1.7,12.5c-21.2,144-101.4,181.4-147.2,161.2c-83.5-36.7-31.6-210.7-259.2-222.7 C1244.7,1543.7,1216,1386,1215,1268c-0.1-10.9,0-21.5,0.3-31.6c0.9-31.6,3.5-58.4,5.5-75.7l0,0c0.2-1.7,0.4-3.2,0.6-4.7 c0-0.1,0-0.2,0.1-0.3c1.1-4.9,2.4-9.9,3.7-15c0.2-0.6,0.3-1.2,0.4-1.7l-1.9,0.8c0,0-72.2-53.3-146-164.4 c-61.8-93-68.4-177.1-40.6-218.6c28.3-42.3,92.5-40.5,170.4,41.1c14.1,14.8,28.1,28.6,41.7,41.6 C1408,990.4,1528,1018.7,1528,1018.7l-4.4,1.8c64.5,16.7,170.5,30.8,281.8-10.5c53.4-19.8,89.7-38,117.2-53.3 c64.9-36.2,81.5-56.8,161.6-47c24.7,3,38.5,13.4,44.3,28.1C2149.1,990.9,2064.3,1100.8,2005.4,1123.9z" fill="#fff"/></g></g></g><g><g><g><path d="M1672.6,1781c-9,0-17.7-1.7-25.7-5.2c-30.5-13.4-43.1-43.9-57.6-79.2c-24.9-60.4-55.8-135.7-200.8-143.3 c-143-7.5-174.5-159.2-175.6-285.2c-0.1-10.2,0-20.5,0.3-31.7c0.9-32,3.5-59,5.6-75.9c0.2-1.7,0.4-3.3,0.6-4.7l0.2-0.8 c1-4.2,2.1-8.8,3.3-13.3l-0.3-0.2c-0.7-0.5-73.3-54.8-146.5-164.9c-64.9-97.7-67.1-181.3-40.6-220.9 c11.1-16.6,27.4-26.3,47-28c36.3-3.1,81.3,21.3,126.7,68.8c13.3,13.9,27.3,27.9,41.6,41.5 c156.5,148.6,276.6,178.4,277.8,178.7l6.4,1.5l-4.6,1.8c67.9,16.7,168.7,27.2,274.3-12c57.6-21.4,94.3-40.6,116.9-53.2 c10.3-5.8,19.6-11.2,27.7-16c44.7-26.3,67.1-39.6,135.1-31.2c24,2.9,39.5,12.8,46,29.5c21.9,56-65.9,166.1-124.1,188.9l0,0 c-74,28.9-193.7,105.2-196.3,121.1c-2,12.7,10.3,56.3,30,78.9c6.6,7.5,13.5,12.1,20.4,13.6c31.9,6.8,102.6,39,105.5,53 l0.5,2.3l-2.4,0.2c-2.3,0.2-217.4,15.8-255.1,27.8c50.8,29.4,99.7,96.3,90,177.7c-0.5,4.3-1.1,8.5-1.7,12.6 c-15.4,104.6-59.5,143.3-84.4,157.1C1699.6,1777.3,1685.8,1781,1672.6,1781z M1228.4,1135.5l-0.8,3.8c-0.1,0.5-0.2,1-0.4,1.6 c-1.4,5.3-2.6,10.3-3.8,15.2l-0.1,0.5c-0.1,1.1-0.3,2.7-0.5,4.4c-2,16.9-4.6,43.7-5.5,75.5c-0.3,11.1-0.4,21.4-0.3,31.5 c1.1,124.2,31.9,273.8,171.7,281.1c147.7,7.8,179.2,84.3,204.5,145.9c14.2,34.5,26.4,64.2,55.4,77c18.4,8.1,41,6.1,62-5.6 c24.2-13.4,67.1-51.2,82.3-154c0.6-4.1,1.2-8.2,1.6-12.4c9.7-81.5-40.7-148.1-91.7-175.6l-3.4-1.8l3.4-1.8 c22.1-11.9,228.3-27.5,257.5-29.6c-9.4-12.1-69.1-40.6-101-47.4c-7.8-1.7-15.4-6.7-22.7-14.9c-21.2-24.2-33.1-69.1-31-82.3 c3.1-19.1,125.8-95.7,198.9-124.3l0,0c55.5-21.7,142.5-130.4,121.7-183.5c-5.9-15.1-20.2-24.1-42.6-26.8 c-66.6-8.1-88.6,4.8-132.5,30.7c-8.2,4.8-17.5,10.3-27.8,16.1c-22.7,12.7-59.6,32-117.5,53.4c-109.9,40.8-214.6,28.3-283,10.6 l-6.2-1.6l4.6-1.9c-26.3-8-136.1-47.4-273.7-178c-14.3-13.6-28.4-27.6-41.7-41.6c-44.5-46.6-88.3-70.6-123.3-67.6 c-18.3,1.6-33.4,10.6-43.8,26.1c-25.8,38.4-23.2,120.2,40.6,216.2c68.3,102.8,136,156.5,144.6,163.2L1228.4,1135.5z" fill="#371a45"/></g></g></g></g><g opacity=".35"><g><g><g><path d="M1922.5,956.6c-54.5,83.5-167.4,141.4-292,141.4c-178.9,0-341.2-116.7-381.3-258.6 C1408,990.3,1528,1018.6,1528,1018.6l-4.4,1.8c64.5,16.7,170.5,30.8,281.8-10.5C1858.7,990,1895,971.9,1922.5,956.6z" fill="#371a45"/></g></g></g></g><g opacity=".35"><g><g><g><path d="M2005.4,1123.9c-75.2,29.4-194.8,105.4-197.6,122.7c-2.1,13.1,10,57.2,30.5,80.6 c-27.6-16.5-53.2-43.7-53.2-88c0-96.3,97.4-85,227.5-169.4c77.2-50.1,106.8-108.7,115.7-132.1 C2149.1,990.9,2064.3,1100.8,2005.4,1123.9z" fill="#371a45"/></g></g></g></g><g opacity=".35"><g><g><g><path d="M1255.2,1115.8c-5.4,53.6-12.6,88.6-2.9,154.9c3.2,21.6-9.1,14.4-37.4-2.8c-0.1-10.9,0-21.5,0.3-31.6 c0.9-31.6,3.5-58.4,5.5-75.7l0,0c0.2-1.7,0.4-3.2,0.6-4.7c0-0.1,0-0.2,0.1-0.3c1.1-4.9,2.4-9.9,3.7-15 c0.2-0.6,0.3-1.2,0.4-1.7l-1.9,0.8c0,0-72.2-53.3-146-164.4c-61.8-93-68.4-177.1-40.6-218.6c-0.5,27.9,4.3,78.8,37,139.1 C1132,1002.7,1260.7,1062.2,1255.2,1115.8z" fill="#371a45"/></g></g></g></g><g opacity=".35"><g><g><g><path d="M1750.6,1430c0,0-67.9-5.8-135.3-8.3c-67.4-2.6-131.6,7.8-131.6-42.8c0-9.8-0.1-23.3-0.3-39.1 c0-3.4-3.1-6-6.5-5.4c-74.8,12.5-170,4.9-215.2,0c-4.4-0.5-7.6,4.2-5.5,8.2c31.9,59,87.5,111.6,184.6,108.4 c216.6-6.9,171.2,116.8,235.5,164.5c43.9,32.5,84.1,27.3,123.4-2.9c-21.2,144-101.4,181.4-147.2,161.2 c-83.5-36.7-31.6-210.7-259.2-222.7c-136.4-7.2-169.3-149.2-173.2-264.5l12-1.8l65.3-10.2l159.8-10.1c0,0,11.3,3.6,25.2,9.3 c-0.7-46.2-1.7-94.5-2.3-122.8c-0.3-13.7,10.8-25,24.5-25h110.3l154.7,229.4c0,0,174.4,53.5,152.6,61.9 C1906.9,1423.2,1750.6,1430,1750.6,1430z" fill="#371a45"/></g></g></g></g><g opacity=".35"><g><g><g><path d="M1227.4,1284.8l-12,1.8c-0.6-17.6-0.5-34.5-0.1-50.3C1218,1250.8,1221.9,1267.3,1227.4,1284.8z" fill="#293856"/></g></g></g><g><g><g><path d="M1213.4,1289.1l-0.1-2.4c-0.5-16-0.6-33-0.1-50.4l0.6-19.4l3.6,19.1c3.2,16.7,7.2,32.9,12,48.2l0.7,2.3 L1213.4,1289.1z M1217.1,1255c-0.1,10,0,19.8,0.3,29.3l7.2-1.1C1221.9,1274,1219.3,1264.6,1217.1,1255z" fill="#371a45"/></g></g></g></g><g opacity=".35"><g><g><g><path d="M1215.4,1288.1l-0.5-1.4l0.5-0.1C1215.4,1287.2,1215.4,1287.6,1215.4,1288.1z" fill="#293856"/></g></g></g><g><g><g><path d="M1217.5 1300.4L1212.1 1285.1 1217 1284.3 1217.5 1288.1z" fill="#371a45"/></g></g></g></g><g><g><g><g><path d="M1977.5,1423.2c-4.8,0-9.6-2.5-12.2-6.9c-21.5-35.8-116.8-65.1-151.7-73.3c-7.7-1.8-12.4-9.5-10.6-17.1 c1.8-7.7,9.5-12.4,17.1-10.6c14,3.3,138,33.8,169.6,86.4c4.1,6.7,1.9,15.5-4.9,19.6C1982.6,1422.6,1980,1423.2,1977.5,1423.2z" fill="#371a45"/></g></g></g></g><g><g><g><g><path d="M1221.4,1155.9c-0.2,1.5-0.3,3.1-0.6,4.7C1220.9,1158.9,1221.1,1157.3,1221.4,1155.9z" fill="#fff"/></g></g></g><g><g><g><path d="M1222.9,1160.9l-4.2-0.4c0.1-1.9,0.3-3.6,0.6-5.1l4.1,0.7C1223.4,1157.6,1223.2,1159.2,1222.9,1160.9z" fill="#371a45"/></g></g></g></g><g><g><g><g><path d="M1556.6,1025.5c8.4,1.7,16.9,3.2,25.4,4.5c23.4,3.4,47.3,5,71.3,4.7c43-0.6,86.7-7.4,129.8-21.1 c7.7-2.5,15.2-5.1,22.6-7.9c15.2-5.7,30-12.2,44.3-19.4c70-35.3,127.8-87.4,169.7-149.7c74.1-109.9,99-251.3,55.9-387.4 c-30-94.6-88.5-172.3-162.9-226.7c-8.3-6.1-16.8-11.8-25.4-17.3c-27.2-17.2-56.2-31.4-86.5-42.5s-61.9-18.9-94.2-23.2 c-14-1.9-28.1-3.1-42.3-3.6c-5.3-0.2-10.6-0.3-15.9-0.3c-45.4-0.2-91.6,6.7-137.2,21.2c-236.6,75.1-367.6,327.8-292.5,564.4 C1269.7,881.7,1402.5,993.7,1556.6,1025.5z" fill="#fff"/></g></g></g><g><g><g><path d="M1647,1036.9c-21.8,0-43.7-1.6-65.2-4.8c-8.3-1.2-16.9-2.8-25.5-4.5l0,0 c-160-33.1-290.1-150.3-339.4-305.8c-36.5-115-26-237.3,29.5-344.4s149.4-186.2,264.4-222.6c45-14.3,91.4-21.5,137.8-21.3 c5.3,0,10.7,0.1,16,0.3c14.2,0.5,28.5,1.8,42.5,3.6c32.1,4.3,63.9,12.2,94.6,23.4c30.4,11.1,59.6,25.4,86.9,42.7 c8.8,5.5,17.4,11.4,25.5,17.3c77.8,56.9,134.4,135.7,163.7,227.8c41.9,132.2,21.5,274-56.1,389.2 c-43,63.9-102,115.9-170.5,150.4c-14.7,7.4-29.6,13.9-44.5,19.5c-7,2.7-14.4,5.3-22.7,7.9c-42.4,13.5-86.3,20.6-130.4,21.2 C1651.2,1036.9,1649.1,1036.9,1647,1036.9z M1557,1023.5c8.6,1.8,17.1,3.3,25.3,4.5c23.5,3.4,47.4,5,71,4.7 c43.7-0.6,87.2-7.7,129.2-21c8.2-2.6,15.6-5.2,22.5-7.8c14.7-5.5,29.5-12,44.1-19.3c67.9-34.2,126.3-85.7,168.9-149 c76.9-114.1,97.1-254.6,55.6-385.6c-29-91.3-85-169.3-162.1-225.7c-8.1-5.9-16.6-11.7-25.3-17.2c-27-17.1-56-31.3-86.1-42.3 c-30.4-11.1-61.9-18.9-93.7-23.1c-13.9-1.9-28.1-3.1-42.1-3.6c-5.3-0.2-10.5-0.3-15.8-0.3c-46,0-92,6.9-136.5,21.1 c-113.9,36.1-206.9,114.5-261.9,220.6s-65.4,227.3-29.2,341.2C1269.7,874.6,1398.5,990.7,1557,1023.5L1557,1023.5z" fill="#371a45"/></g></g></g></g><g opacity=".35"><g><g><g><path d="M1601.4,1032.4c8.6,0.9,17.1,1.5,25.7,1.9c23.7,1.1,47.6,0.3,71.5-2.5c42.8-4.9,91.3-13.9,132.8-31.8 c7.4-3.2,14.6-6.6,21.7-10.1c14.6-7.2,28.6-15.2,42.1-23.8c66.1-42.2,112.5-102.1,148-168.3c62.6-116.8,73.2-260,16.5-391.1 c-26.6-61.4-65.2-113.9-111.9-155.8c11.9,93.9-6.4,187.9-50,269.2c-35.5,66.2-87.7,123.9-153.8,166 c-13.5,8.6-27.5,16.5-42.1,23.8c-7.1,3.6-14.4,6.9-21.7,10.1c-41.5,18-84.3,29.2-127,34.1c-23.9,2.8-47.8,3.6-71.5,2.5 c-8.6-0.4-17.2-1.1-25.7-1.9c-94.4-9.8-183.9-49.2-254.8-112.9c5.2,41,16.2,82,33.4,121.8 C1301.5,918.3,1444.9,1016.2,1601.4,1032.4z" fill="#293856"/></g></g></g><g><g><g><path d="M1647.1,1036.9c-6.7,0-13.4-0.1-20.1-0.4c-8.3-0.4-17-1-25.9-1.9l0,0 c-162.5-16.8-303.7-120.3-368.5-270.1c-17-39.2-28.3-80.4-33.6-122.4l-0.7-5.6l4.2,3.8c70,62.8,160,102.7,253.7,112.4 c8.7,0.9,17.4,1.5,25.6,1.9c23.7,1.1,47.6,0.2,71.1-2.5c43.4-5,86-16.4,126.5-34c7.9-3.4,15-6.7,21.6-10.1 c14.1-7,28.2-14.9,41.9-23.7c64.1-40.9,117-98,153.1-165.3c44.3-82.7,61.5-175.4,49.8-267.9l-0.7-5.6l4.2,3.8 c48.5,43.6,86.4,96.2,112.4,156.6c55.1,127.3,49,270.5-16.6,392.9c-40.7,75.9-89.3,131.2-148.7,169.1 c-13.8,8.8-28.1,16.8-42.3,23.9c-6.8,3.4-13.9,6.7-21.8,10.2c-35.2,15.2-78.8,25.7-133.4,32 C1681.8,1035.9,1664.4,1036.9,1647.1,1036.9z M1601.6,1030.3c8.7,0.9,17.4,1.5,25.6,1.9c23.7,1.1,47.6,0.2,71.1-2.5 c54.2-6.3,97.4-16.6,132.2-31.7c7.9-3.4,14.9-6.7,21.6-10.1c14.1-7,28.2-14.9,41.9-23.7c58.8-37.5,107-92.3,147.3-167.6 c65-121.3,71-263.1,16.5-389.2c-25.1-58-61.1-108.9-107.2-151.3c10.5,91.5-7.1,183-50.9,264.8 c-36.4,67.9-89.8,125.6-154.5,166.8c-13.8,8.8-28,16.8-42.3,23.9c-6.7,3.4-13.8,6.7-21.8,10.2 c-40.9,17.7-83.8,29.2-127.6,34.3c-23.7,2.7-47.9,3.6-71.8,2.5c-8.3-0.4-17-1-25.9-1.9c-92.6-9.6-181.8-48.5-251.8-109.7 c5.6,39.7,16.5,78.6,32.6,115.7C1300.7,911.2,1440.6,1013.7,1601.6,1030.3L1601.6,1030.3z" fill="#371a45"/></g></g></g></g><g opacity=".35"><g><g><g><path d="M1977.4,889.3c-108.1,106.8-125.8,95.4-155.5,101.5c-24.5,5-108.5,15-174.7,1.2 c-74.2-15.5-188.1-80.2-231.9-181.4c-6.9-16-12.8-32.1-17.7-48.4l42.3-8.2c6.3,16.1,14,31.9,23.1,47.4 c82.4,139.2,221.3,159.3,333,144.5C1896.7,932.6,1975,890.6,1977.4,889.3z" fill="#293856"/></g></g></g><g><g><g><path d="M1725.1,1001.2c-25.6,0-53-1.8-78.3-7.1c-82.3-17.2-192-87-233.4-182.7c-6.9-16-12.9-32.3-17.8-48.6 l-0.7-2.2l46.3-9l0.6,1.6c6.3,16.1,14,32,23,47.1c84.9,143.5,226.8,157.3,330.9,143.5c99.6-13.2,177.4-54.6,180.7-56.4 l12.8-6.9l-10.4,10.2c-94.5,93.4-120.4,96.9-145.5,100.3c-3.8,0.5-7.3,1-11.1,1.8C1810,995.4,1770.4,1001.2,1725.1,1001.2z M1400.3,763.8c4.8,15.4,10.5,30.8,17,45.9c40.8,94.3,149.2,163.3,230.4,180.2c69.4,14.5,154.8,2.8,173.8-1.2 c3.9-0.8,7.7-1.3,11.4-1.8c23.5-3.2,47.9-6.5,133.6-89.8c-26,12.4-91.3,40.4-170.1,50.9c-105.3,13.9-248.9,0-335.1-145.5 c-8.8-14.8-16.4-30.4-22.6-46.1L1400.3,763.8z" fill="#371a45"/></g></g></g></g><g><g><g><g><path d="M1810.4,1074.2c4.1,18.8,6.7,37.8,8.9,56.8c1.1,9.5,2,19,2.9,28.5c0.8,9.5,1.6,19,2.2,28.7 c0.5,7.9-5.5,14.7-13.4,15.1c-7.9,0.5-14.7-5.5-15.1-13.4c0-0.8,0-1.5,0-2.2v-0.1c0.9-9.1,1.7-18.6,2.4-27.9 s1.3-18.7,1.7-28.1c0.9-18.7,1.3-37.4,0.3-56v-0.1c-0.2-2.8,2-5.3,4.9-5.4C1807.6,1070.1,1809.9,1071.8,1810.4,1074.2z" fill="#371a45"/></g></g></g></g><g><g><g><g><path d="M1839.9,1220.7c-6.3,0-12-4.2-13.8-10.6c-2-7.6,2.5-15.4,10.1-17.5c0.7-0.2,76.3-21.1,170.3-86.9 c84.6-59.2,114.6-130.4,94.8-165.1c-16.6-29.1-66.7-29-130.7,0.2c-144.2,65.8-230.8,58.9-234.4,58.6 c-7.8-0.7-13.6-7.6-12.9-15.5c0.7-7.8,7.6-13.6,15.4-12.9c1.1,0.1,83.8,6.1,220.1-56.1c79.8-36.4,142.4-32.1,167.3,11.6 c26.5,46.3-0.5,130.7-103.2,202.6c-98.4,68.9-176,90.2-179.3,91.1C1842.4,1220.5,1841.2,1220.7,1839.9,1220.7z" fill="#371a45"/></g></g></g></g><g><g><g><g><path d="M1165,917.8l-5.4,1.7c-16.1,4.9-33.2-4.2-38.1-20.3l-61.4-201.5c5.4,17.6,24,27.5,41.6,22.2 c17.6-5.4,27.5-23.9,22.3-41.5l61.4,201.3C1190.2,895.8,1181.1,912.8,1165,917.8z" fill="#ff9d00"/></g></g></g></g><g><g><g><g><path d="M1647.1,1049.5c-6.9,0-13.8-0.2-20.6-0.5c-8.6-0.4-17.5-1.1-26.6-2l0,0 c-167-17.3-312.2-123.6-378.8-277.6c-49.2-113.8-51.2-240-5.5-355.2c45.7-115.3,133.5-205.9,247.3-255.1 c44.5-19.2,91.2-31.4,138.7-36c5-0.5,10.4-1,16.4-1.3c14.6-0.9,29.4-1.2,43.9-0.7c33.3,1.1,66.7,5.8,99.2,14.1 c32.2,8.2,63.6,19.8,93.3,34.6c9.5,4.7,18.9,9.8,27.9,15.1c85.5,50.1,151.5,124.8,191,216c56.6,130.8,50.4,278-17.1,403.8 c-37.4,69.8-92.3,129.1-158.8,171.5c-14.2,9-28.8,17.3-43.5,24.5c-6.8,3.4-14.2,6.9-22.4,10.4c-42,18.2-86.2,30-131.2,35.2 C1682.7,1048.4,1664.9,1049.5,1647.1,1049.5z M1602.9,1017.8c8.5,0.9,16.9,1.5,25,1.9c23,1,46.2,0.2,69.1-2.4 c42.2-4.9,83.5-16,122.9-33c7.7-3.3,14.5-6.5,21-9.8c13.8-6.8,27.5-14.5,40.8-23c62.3-39.7,113.7-95.2,148.7-160.6 c63.2-117.9,69-255.7,16-378.3c-36.9-85.4-98.8-155.4-178.9-202.3c-8.4-4.9-17.2-9.7-26.1-14.1 c-27.8-13.9-57.2-24.8-87.4-32.5c-30.5-7.8-61.7-12.2-92.9-13.2c-13.6-0.4-27.4-0.2-41.1,0.6c-5.1,0.3-10.2,0.7-15.3,1.2 c-44.6,4.4-88.3,15.7-130,33.7c-106.6,46.1-188.9,131-231.7,238.9c-42.8,108-40.9,226.2,5.2,332.8 C1310.5,902,1446.4,1001.6,1602.9,1017.8L1602.9,1017.8z" fill="#371a45"/></g></g></g></g><g><g><g><g><path d="M1600.7,973c79.6,9,144.3,16.2,223.9,25.2c0.4-0.2,0.7-0.3,1.1-0.5c7.4-3.2,14.6-6.6,21.7-10.1 c14.6-7.2,28.6-15.2,42.1-23.8c66.1-42.2,118.3-99.8,153.8-166c62.6-116.8,73.2-260,16.5-391.1 c-31.5-72.9-80-133.1-138.8-178.2c-20.9-4-42.2-6.4-63.6-7.1c-13-0.4-26.1-0.2-39.2,0.6c-4.9,0.3-9.8,0.7-14.7,1.2 c-41.7,4.1-83.6,14.7-124.1,32.2c-210.5,91-307.3,335.4-216.3,545.9C1493.8,872.6,1542.1,930.7,1600.7,973z" fill="#293856"/></g></g></g><g><g><g><path d="M1824.9,1000.3l-225-25.3l-0.4-0.3c-60.6-43.8-108.4-103.4-138.3-172.4c-44.2-102.3-46-215.7-4.9-319.4 c41.1-103.6,120-185.1,222.3-229.3c40-17.3,81.9-28.2,124.7-32.4c4.9-0.5,9.8-0.9,14.7-1.2c13.3-0.8,26.5-1,39.4-0.6 c21.5,0.7,43,3.1,63.9,7.1l0.9,0.4c60.7,46.5,108.9,108.4,139.5,179c55.1,127.3,49,270.5-16.6,392.9 c-36.4,67.9-89.8,125.6-154.5,166.8c-13.8,8.8-28.1,16.8-42.3,23.9c-6.7,3.4-13.8,6.7-21.8,10.2L1824.9,1000.3z M1601.4,971 l222.8,25.1l0.6-0.3c7.9-3.4,15-6.7,21.6-10.1c14.1-7,28.2-14.9,41.9-23.6c64.1-40.9,117-98,153.1-165.3 c65-121.3,71-263.1,16.5-389.2c-30.2-69.8-77.8-131-137.8-177c-20.6-3.9-41.7-6.3-62.8-6.9c-12.8-0.4-25.9-0.2-39,0.6 c-4.8,0.3-9.7,0.7-14.6,1.2c-42.4,4.2-83.9,14.9-123.5,32.1c-101.3,43.8-179.4,124.4-220.1,227 c-40.6,102.6-38.9,214.9,4.9,316.2C1494.5,868.7,1541.7,927.6,1601.4,971z" fill="#371a45"/></g></g></g></g><g opacity=".7"><g><g><g><path d="M1794.2,272.1c-3.5-3.3,9.5-1.6,14.2-2.3c4-0.6,8.1-1.1,12.1-1.5c10.9-1.2,21.8-1.8,32.6-1.9 c17.9-0.2,35.7,1,53.2,3.6c50.5,35.3,93,83.7,121.9,143.2c51.9,106.9,46.1,197.7,2.3,292.7c0,0-0.6-61.9-47.3-175.3 C1957.1,467.1,1920.3,391.1,1794.2,272.1z" fill="#fff"/></g></g></g></g><g opacity=".35"><g><g><g><path d="M1614.2,980.1C1614.3,980.1,1614.3,980.1,1614.2,980.1c38.6,4.5,78.3,4,118.5-2.1 c8-1.2,15.8-2.6,23.6-4.2c15.9-3.2,31.5-7.3,46.8-12.2c74.7-23.8,139.9-66.2,191.2-121.1c49-52.5,85.2-116.3,104.8-186.3 c-97.7,110.5-234.8,168.6-373.5,169.6c-84.1,0.6-168.8-19.8-245.7-62.2c-13.1-7.2-26-15.1-38.6-23.6 C1467.7,840.2,1530.9,925,1614.2,980.1z" fill="#111a28"/></g></g></g></g><g><g><g><g><path d="M1510.6,772.3L1510.6,772.3z" fill="none" stroke="#371a45" stroke-miterlimit="10" stroke-width="28.516"/></g></g></g></g><g><g><g><g><path d="M1803.3,1016.9c-12.4,0-23-3.6-32.7-6.9c-11.8-4-22-7.5-35.7-5.5l-21.3,3.1l3.9-14.7l-4.3,4.4l-8.5-0.1 l-2-0.7c-98.2-33.1-199.8-67.4-252.6-189.5c-45.5-105.3-47.3-222-5.1-328.7c42.3-106.6,123.5-190.4,228.8-236 c41.1-17.8,84.3-29,128.4-33.3c4.3-0.5,9-0.9,15.1-1.3c13.7-0.8,27.3-1.1,40.6-0.6c22.1,0.7,44.2,3.2,65.8,7.3l3.3,0.6l2.7,2 c62.3,47.7,111.9,111.3,143.2,183.8c56.5,130.7,50.3,277.8-17,403.5c-37.4,69.7-92.2,129-158.7,171.3 c-14.2,9-28.8,17.3-43.4,24.5c-6.8,3.4-14.2,6.9-22.4,10.4C1821,1015.3,1811.7,1016.9,1803.3,1016.9z M1749.6,975.7 c11.6,1,21.3,4.3,30.2,7.3c14.3,4.9,24.6,8.4,40.3,1.6c7.7-3.3,14.6-6.5,21-9.8c13.8-6.8,27.5-14.6,40.8-23 c62.3-39.7,113.8-95.3,148.9-160.8c63.2-118,69.1-256,16-378.7c-29-67-74.5-125.9-131.7-170.5c-19.1-3.5-38.6-5.6-58.1-6.2 c-12.4-0.4-25.2-0.2-37.9,0.6c-4.6,0.3-9.3,0.7-14,1.2c-41.3,4-81.6,14.5-120,31.1c-98.3,42.5-174.2,120.7-213.6,220.3 c-39.4,99.6-37.8,208.5,4.8,306.9c43.4,100.3,118.4,133.9,227.4,171c14.8-13.2,26.4-16.7,36.1-11.2 C1747.4,960,1749.6,967.9,1749.6,975.7z" fill="#371a45"/></g></g></g></g><g><g><g><g><path d="M1225.2,1140.6c-1.3,5-2.6,10.1-3.7,15c1.3-10.2,2.2-15.9,2.2-15.9L1225.2,1140.6z" fill="#fff"/></g></g></g><g><g><g><path d="M1223.5,1156.1l-4.1-0.7c1.3-10.2,2.2-16,2.2-16l0.5-3.2l5.4,3.6l-0.4,1.5 C1225.9,1146.2,1224.7,1151.2,1223.5,1156.1z" fill="#371a45"/></g></g></g></g><g><g><g><g><path d="M1791,1360.4l-207.4,18.4c-4.3,0.4-8.1-2.4-8.1-6v-240c0-3.6,3.8-6.4,8.1-6l207.4,18.4 c27.2,2.4,47.9,21.4,47.9,44.1v127C1838.8,1339,1818.2,1358,1791,1360.4z" fill="#fff"/></g></g></g></g><g><g><g><g><path d="M1578.8,1127.7l-3.4,32.4v-27.2C1575.5,1130.7,1576.8,1128.8,1578.8,1127.7z" fill="#fff"/></g></g></g><g><g><g><path d="M1577.5,1160.3l-4.2-0.2v-27.2c0-2.9,1.7-5.5,4.5-7l3.5-1.8L1577.5,1160.3z" fill="#371a45"/></g></g></g></g><g opacity=".35"><g><g><g><path d="M1838.8,1193.5v127c0,22.6-20.6,41.6-47.9,44l-207.4,18.5c-4.3,0.4-8.1-2.4-8.1-6v-93.4l203.9,3.2 c27.4,0.4,49.8-16.4,52.2-38.8l6.5-62.2C1838.6,1188.3,1838.8,1190.9,1838.8,1193.5z" fill="#293856"/></g></g></g><g><g><g><path d="M1582.8,1385.2c-2.6,0-5.1-0.9-6.9-2.6c-1.7-1.5-2.6-3.5-2.6-5.6v-95.5l206,3.2c0.3,0,0.6,0,1,0 c25.9,0,46.9-15.8,49.1-37l7.9-75l2.8,12.5c0.6,2.6,0.9,5.4,0.9,8.2v127c0,23.8-21.4,43.6-49.8,46.1l-207.4,18.5 C1583.5,1385.2,1583.1,1385.2,1582.8,1385.2z M1577.6,1285.8v91.2c0,1.1,0.7,2,1.2,2.5c1.2,1.1,2.9,1.6,4.7,1.4l207.4-18.5 c26.2-2.3,46-20.4,46-42v-102.5l-3.2,30.2c-2.5,23.6-25.6,41.1-54.3,40.7L1577.6,1285.8z" fill="#371a45"/></g></g></g></g><g><g><g><g><path d="M1575.5,1160.1v119.4l-4.3-0.1c-4.4-0.1-7.8-3.2-7.5-6.8L1575.5,1160.1z" fill="#fff"/></g></g></g><g><g><g><path d="M1577.6,1281.6l-6.4-0.1c-3-0.1-5.7-1.3-7.6-3.3c-1.5-1.7-2.2-3.7-2-5.8l11.8-112.5l4.2,0.2V1281.6z M1573.4,1200.3l-7.6,72.4c-0.1,1.1,0.4,2,0.9,2.6c1,1.2,2.7,1.9,4.5,1.9h2.2L1573.4,1200.3L1573.4,1200.3z" fill="#371a45"/></g></g></g></g><g><g><g><g><path d="M1582.8,1393.1c-5.6,0-11-2-15.1-5.7c-4.1-3.8-6.5-9.1-6.5-14.6v-240c0-5.5,2.4-10.8,6.5-14.6 c4.5-4.2,10.8-6.2,17.1-5.6l207.4,18.4c34.7,3.1,60.9,28.1,60.9,58.3v127c0,30.1-26.2,55.2-60.9,58.3l0,0l-207.4,18.4 C1584.2,1393.1,1583.5,1393.1,1582.8,1393.1z M1589.7,1141.7V1364l200-17.8c19.5-1.7,34.9-14.9,34.9-29.9v-127 c0-15-15.3-28.1-34.9-29.9L1589.7,1141.7z M1791,1360.4L1791,1360.4L1791,1360.4z" fill="#371a45"/></g></g></g></g><g><g><g><g><path d="M1527.2,1379.6h43.8c2.5,0,4.5-2,4.5-4.5v-244.5c0-2.5-2-4.5-4.5-4.5h-43.8c-11.3,0-20.5,9.2-20.5,20.5 v212.5C1506.6,1370.4,1515.8,1379.6,1527.2,1379.6z" fill="#fff"/></g></g></g><g><g><g><path d="M1571,1381.7h-43.8c-12.5,0-22.6-10.1-22.6-22.6v-212.5c0-12.5,10.1-22.6,22.6-22.6h43.8 c3.6,0,6.6,3,6.6,6.6v244.5C1577.6,1378.7,1574.6,1381.7,1571,1381.7z M1527.2,1128.2c-10.1,0-18.4,8.3-18.4,18.4v212.5 c0,10.1,8.3,18.4,18.4,18.4h43.8c1.3,0,2.4-1.1,2.4-2.4v-244.5c0-1.3-1.1-2.4-2.4-2.4H1527.2z" fill="#371a45"/></g></g></g></g><g opacity=".35"><g><g><g><path d="M1575.5,1280.3v94.5c0,2.6-2.1,4.7-4.7,4.7h-42.4c-12,0-21.7-9.7-21.7-21.7v-94.6 c0,12,9.7,21.7,21.7,21.7h42.4C1573.3,1285,1575.5,1282.9,1575.5,1280.3z" fill="#293856"/></g></g></g><g><g><g><path d="M1570.7,1381.7h-42.4c-13.1,0-23.8-10.7-23.8-23.8v-94.6h4.2c0,10.8,8.8,19.6,19.6,19.6h42.4 c1.5,0,2.6-1.2,2.6-2.6h4.2v94.5C1577.6,1378.6,1574.5,1381.7,1570.7,1381.7z M1508.8,1276.8v81.1c0,10.8,8.8,19.6,19.6,19.6 h42.4c1.5,0,2.6-1.2,2.6-2.6v-88.2c-0.8,0.3-1.7,0.5-2.6,0.5h-42.4C1520.2,1287.1,1513.1,1283.1,1508.8,1276.8z" fill="#371a45"/></g></g></g></g><g><g><g><g><path d="M1571,1393.8h-43.8c-19.2,0-34.8-15.6-34.8-34.8v-212.5c0-19.2,15.6-34.8,34.8-34.8h43.8 c10.3,0,18.7,8.4,18.7,18.7v244.5C1589.7,1385.4,1581.3,1393.8,1571,1393.8z M1527.2,1140.3c-3.4,0-6.2,2.8-6.2,6.2V1359 c0,3.4,2.8,6.2,6.2,6.2h34.1v-225h-34.1V1140.3z" fill="#371a45"/></g></g></g></g><g><g><g><g><path d="M1268.7,1486.5l-27.2-0.7c-96.5-2.6-169.2-88.7-155.6-184.3l35.3-266.6l9.9,30.4v-1 c0,0,93.7,74.3,92.2,87.9c-1.2,11.2-10.7,115.1-5.6,178.5L1268.7,1486.5z" fill="#fff"/></g></g></g><g><g><g><path d="M1271.6,1488.7l-30.2-0.8c-46.6-1.3-90.6-22.4-120.6-58.1c-30.1-35.6-43.5-82.5-37-128.6l36.5-275.7 l12.2,37.2c15.8,12.5,94.6,75.7,93,89.8c-0.1,1-11,110.8-5.6,178.1L1271.6,1488.7z M1122,1044.3l-34.1,257.5 c-6.4,45,6.7,90.7,36,125.4s72.1,55.3,117.5,56.6l24.3,0.6l-50-153c-5.6-68.1,5.4-178.3,5.5-179.4 c0.9-7.9-44.2-48.3-88.2-83.4l-0.3,8.6L1122,1044.3z" fill="#371a45"/></g></g></g></g><g opacity=".35"><g><g><g><path d="M1268.7,1486.5l-27.2-0.7c-96.5-2.6-169.2-88.7-155.6-184.3l0.1-1l35.2-265.6l9.9,30.4v-1 c0,0,93.7,74.3,92.2,87.9c-1.2,11.2-10.7,115.1-5.6,178.5l13,39.9L1268.7,1486.5z" fill="#371a45"/></g></g></g></g><g><g><g><g><path d="M1230.8,1370.5c-62.8-7.8-115-33.5-144.8-70l35.2-265.6l9.9,30.4v-1c0,0,93.7,74.3,92.2,87.9 c-1.2,11.2-10.7,115.1-5.6,178.5L1230.8,1370.5z" fill="#fff"/></g></g></g></g><g><g><g><g><path d="M1268.7,1500.8c-0.1,0-0.3,0-0.4,0l-27.2-0.7c-50.1-1.4-97.3-24.1-129.6-62.3s-46.8-88.6-39.7-138.2 l35.3-266.5c1-7.8,8.2-13.3,16-12.3s13.3,8.2,12.3,16l-35.3,266.6c-5.9,41.7,6.2,83.9,33.3,115.9 c27.1,32.1,66.6,51.1,108.6,52.2l27.2,0.7c7.9,0.2,14.1,6.8,13.9,14.6C1282.7,1494.7,1276.4,1500.8,1268.7,1500.8z" fill="#371a45"/></g></g></g></g><g><g><g><g><path d="M2009.9,1133.4c-2.7,0-5.4-0.9-7.7-2.7c-60.2-47.1-79.5-182.2-80.3-188c-1-6.9,3.9-13.2,10.7-14.2 c6.9-0.9,13.2,3.9,14.2,10.7c0.2,1.3,18.7,130.8,70.9,171.6c5.5,4.3,6.4,12.2,2.2,17.7 C2017.3,1131.7,2013.6,1133.4,2009.9,1133.4z" fill="#371a45"/></g></g></g></g><g><g><g><g><path d="M1532.6,1239.2l4.8,45.9c0,0-66.1,6.5-67,4.3s-6.9-46.6-5.6-46.6 C1466.1,1242.7,1532.6,1239.2,1532.6,1239.2z" fill="#fff"/></g></g></g><g><g><g><path d="M1476.2,1291.8c-7,0-7.4-0.8-7.7-1.7c-0.1-0.4-7.5-45.6-5.5-48.6l0.6-0.9h1.2c1.4,0,44.9-2.3,67.7-3.5 l2-0.1l5.2,50l-2.1,0.2C1501.3,1290.7,1484.3,1291.8,1476.2,1291.8z M1472.2,1287.7c6.5,0.5,40.5-2.3,62.9-4.5l-4.3-41.8 c-11.1,0.6-54.3,2.9-64,3.4C1467,1252,1470.9,1281.5,1472.2,1287.7z" fill="#371a45"/></g></g></g></g><g><g><g><g><path d="M1198.6,1237.1h38.9v54.3c0,0-39.9-3.9-39.9-4.5C1197.6,1286.4,1198.6,1237.1,1198.6,1237.1z" fill="#fff"/></g></g></g><g><g><g><path d="M1239.6,1293.7l-2.3-0.2c-41.8-4.1-41.8-4.1-41.8-6.6c0-0.6,0.9-44.8,1-49.9v-2.1h43v58.8H1239.6z M1199.7,1285.3c5.3,0.8,23.1,2.6,35.7,3.8v-49.9h-34.7C1200.5,1247.4,1199.9,1277.7,1199.7,1285.3z" fill="#371a45"/></g></g></g></g><g><g><g><g><path d="M1101.1,1021.3c-5.4,0-10.3-3.4-12-8.8c-2.1-6.6,1.6-13.7,8.2-15.8l0,0c1.1-0.4,112.4-36.9,150.7-152.8 c2.2-6.6,9.3-10.2,15.9-8s10.2,9.3,8,15.9c-42.4,128.4-161.9,167.3-167,168.9C1103.6,1021.1,1102.4,1021.3,1101.1,1021.3z" fill="#371a45"/></g></g></g></g><g><g><g><g><path d="M1156.7,943.4c-16.4,0-31.6-10.6-36.6-27.1l-264-866.1c-3-9.8-2-20.1,2.8-29.1s12.8-15.6,22.6-18.6 l2.6-0.8c9.8-3,20.1-2,29.1,2.8s15.6,12.8,18.6,22.6l264,866.1c6.1,20.2-5.3,41.5-25.4,47.7l0,0l-2.6,0.8 C1164.2,942.8,1160.4,943.4,1156.7,943.4z M1166.2,926.9L1166.2,926.9L1166.2,926.9z M895.3,29.5c-0.9,0-1.7,0.1-2.6,0.4 l-2.6,0.8c-2.3,0.7-4.1,2.2-5.2,4.3s-1.3,4.5-0.7,6.7l264,866.1c0.7,2.3,2.2,4.1,4.3,5.2c2.1,1.1,4.5,1.3,6.7,0.7l2.6-0.8 c4.7-1.4,7.3-6.4,5.9-11l-264-866.1C902.6,31.9,899.1,29.5,895.3,29.5z" fill="#371a45"/></g></g></g></g><g><g><g><g><g><path d="M789,205.6c-0.3-8.6-0.5-17.4-3.5-25.8c-0.9-0.8-1.7-1.7-2.6-2.5c-2.6-0.5-5.2-1.3-7.8-1.6 c-18.7-1.9-37.3-1-55.6,3.4c-23.9,5.7-45,16.6-61.8,34.8c-6.1,6.6-11.4,13.8-17,20.9c-1.5,1.9-2.7,2.8-5.3,2.1 c-6.1-1.7-12.4-2-18.8-1.3c-16.9,1.8-31.1,9.4-43.7,20.3c-13.7,11.8-24,26.4-33.3,41.8c-4,6.5-1.1,12.7,6.5,14 c4.8,0.8,9.5,1.6,14.3,2.4c11.4,1.9,22.8,3.7,34.2,5.6c0,0.3,0.1,0.5,0.1,0.7c-0.1,0.2-0.1,0.5-0.2,0.7 c-3.7,6.5-1.7,11.7,3.8,16.1c0.6,0.5,1.1,1.1,1.7,1.6c3,2.9,6.1,5.9,9.2,8.9c-3.2,3.3-6.4,6.3-9.1,9.6 c-1.4,1.7-2.5,4-2.7,6.2c-0.5,3.5,1.7,6.7,5,8c3.5,1.4,6.7,0.9,9.3-1.7c3.3-3.2,6.5-6.7,9.8-10.1c4.3,4.2,8.4,8.2,12.5,12.1 c4.7,4.5,7.5,4.9,13.3,2.3c1.1-0.5,2.1-0.9,3.4-1.4c0.3,1.3,0.5,2.3,0.7,3.3c3.1,15.6,6.2,31.2,9.4,46.7 c1.5,7.4,7.9,10,14.1,5.8c5.6-3.8,11.2-7.7,16.7-11.8c12.6-9.5,23.6-20.5,31.7-34.1c10.1-17.1,14.4-35.2,8.2-54.8 c-0.3-0.8,0.2-2.2,0.8-2.7c5.5-4.9,11.2-9.5,16.7-14.4c12.4-11.1,21.8-24.4,28.3-39.7C786.5,249.9,789.8,228.1,789,205.6z M601.4,303.4c-13.2-2.2-26.9-4.5-40.9-6.8c11.6-16.8,24.3-31.8,43.2-40.2c8.2-3.6,18-4.9,24.2-3.4 C619.2,269.7,610.4,286.4,601.4,303.4z M716.9,352.1c-1.7,10.7-6.5,19.9-12.9,28.4c-8,10.5-17.8,18.9-28.6,26.9 c-2.9-14.3-5.7-28.3-8.5-42.1c16.7-9.6,33.1-19,49.5-28.4C717.7,341.7,717.7,346.9,716.9,352.1z M767.9,245.5 c-3.7,14.4-9.3,27.8-18.5,39.6c-7.1,9-15.5,16.7-24.5,23.8c-24.5,19.1-51.6,33.9-79.5,47.1c-1.4,0.6-2.3,0.7-3.4-0.5 c-2.5-2.6-5.2-5.1-7.8-7.6c-0.2-0.1-0.3-0.4-0.5-0.9c0.7-0.7,1.4-1.4,2.1-2.2c14.8-15.4,29.7-30.7,44.4-46.1 c4.3-4.4,3.5-10.7-1.5-13.7c-3.5-2.1-7.6-1.4-10.8,1.8c-8.9,9.2-17.8,18.4-26.7,27.6c-6.6,6.9-13.2,13.7-20.1,20.8 c-3.2-3.1-6.3-5.9-9.1-8.9c-0.5-0.5-0.3-2.1,0.1-2.9c6.9-14.6,13.7-29.3,21-43.8c7.2-14.4,15.8-27.9,25.7-40.7 c9.2-12,19.5-23,32.7-30.5c8.5-4.9,17.5-8.7,26.9-11.2c0.9-0.3,2.3,0.4,3,1.1c11.7,11.2,23.3,22.4,34.9,33.7 c3.5,3.3,6.9,6.8,10.5,10C768,243.1,768.3,244.1,767.9,245.5z M771.1,226.9c-11.6-11.2-22.9-22.1-34.2-33.1 c0-0.3,0-0.6,0-0.9c11.2-0.3,22.5-0.7,33.8-1C772.3,204,772.1,215.2,771.1,226.9z" fill="#371a45"/></g></g></g></g><g><g><g><g><path d="M767,242.1c-3.6-3.3-7-6.7-10.5-10c-11.6-11.2-23.2-22.5-34.9-33.7c-0.7-0.7-2.1-1.4-3-1.1 c-9.5,2.5-18.4,6.3-26.9,11.2c-13.3,7.6-23.6,18.5-32.7,30.5c-9.8,12.7-18.4,26.3-25.7,40.7c-7.3,14.5-14.1,29.2-21,43.8 c-0.4,0.8-0.6,2.4-0.1,2.9c2.8,3,5.9,5.8,9.1,8.9c6.9-7.1,13.4-14,20.1-20.8c8.9-9.2,17.8-18.4,26.7-27.6 c3.2-3.3,7.3-3.9,10.8-1.8c5,3,5.8,9.3,1.5,13.7c-14.8,15.4-29.7,30.7-44.4,46.1c-0.7,0.7-1.4,1.5-2.1,2.2 c0.3,0.5,0.4,0.7,0.5,0.9c2.6,2.5,5.3,5,7.8,7.6c1.1,1.2,2,1.1,3.4,0.5c28-13.2,55.1-27.9,79.5-47.1 c9-7.1,17.4-14.7,24.5-23.8c9.2-11.8,14.8-25.2,18.5-39.6C768.3,244.1,768,243.1,767,242.1z M740.5,265.9 c-11.3,11.6-29.8,11.9-41.3,0.8c-11.6-11.1-11.8-29.6-0.7-41.3c11-11.4,29.5-11.7,41.1-0.6 C751.1,235.9,751.6,254.6,740.5,265.9z" fill="#fff"/></g></g></g></g><g><g><g><g><path d="M771.1,226.9c-11.6-11.2-22.9-22.1-34.2-33.1c0-0.3,0-0.6,0-0.9c11.2-0.3,22.5-0.6,33.8-1 C772.3,203.9,772.1,215.2,771.1,226.9z" fill="#db2c2c"/></g></g></g></g><g><g><g><g><path d="M627.9,253c-8.8,16.7-17.6,33.5-26.5,50.5c-13.2-2.2-26.9-4.5-40.9-6.8c11.6-16.8,24.3-31.9,43.2-40.2 C611.9,252.7,621.7,251.5,627.9,253z" fill="#db2c2c"/></g></g></g></g><g><g><g><g><path d="M704,380.5c-8,10.5-17.8,18.9-28.6,26.9c-2.9-14.3-5.7-28.3-8.5-42.1c16.7-9.6,33.1-18.9,49.5-28.4 c1.4,4.7,1.3,9.9,0.5,15.2C715.2,362.8,710.4,372,704,380.5z" fill="#db2c2c"/></g></g></g></g><g><g><g><g><path d="M739.7,224.9c-11.6-11.1-30.1-10.9-41.1,0.6c-11.2,11.7-10.9,30.1,0.7,41.3 c11.5,11.2,29.9,10.8,41.3-0.8C751.6,254.6,751.1,235.9,739.7,224.9z M730.3,256.6c-5.7,5.9-15.4,6-21.5,0.3 c-6.2-5.9-6.3-15.9-0.1-22.1c5.7-5.8,15.6-5.9,21.5-0.1C736.3,240.7,736.3,250.4,730.3,256.6z" fill="#371a45"/></g></g></g></g><g><g><g><g><path d="M730.3,256.6c-5.7,5.9-15.4,6-21.5,0.3c-6.2-5.9-6.3-15.9-0.1-22.1c5.8-5.8,15.6-5.9,21.5-0.1 C736.3,240.7,736.4,250.4,730.3,256.6z" fill="#22a7f0"/></g></g></g></g></g><g><g><g><g><path d="M1039.1,770.6c0,0,20.8-52.7,69.5-34.1s56.2,47.1,56.2,62.2s-30.1,128.9-53,126.3 C1088.9,922.3,1039.1,770.6,1039.1,770.6z" fill="#fff"/></g></g></g></g><g><g><g><g><path d="M1118.5,719.8c20.7,8.2,37.5,23.1,47.9,42.1c10.2,19.2,12.4,41.4,9,61.2c-0.4,2.5-0.6,5.1-1.3,7.4l-2,7.2 l-2,7.2c-0.6,2.4-1.8,4.6-2.6,6.8c-1.9,4.5-3.6,9.1-5.7,13.4l-6.8,12.7c-2.1,4.3-4.8,8.3-7.4,12.2l-7.8,11.9 c-5.6,7.6-11.5,14.9-17.3,22.3c-2.3,3-6.7,3.6-9.7,1.2c-2.9-2.2-3.5-6.3-1.5-9.3l0.3-0.5c5-7.5,10.2-15,15-22.5l6.6-11.7 c2.2-3.9,4.4-7.8,6.1-11.9l5.4-12.1c1.6-4.1,2.8-8.3,4.2-12.4c0.6-2.1,1.5-4.1,1.9-6.2l1.3-6.3l1.3-6.2 c0.4-2.1,0.4-4.2,0.6-6.2c1.7-16.6-1.5-32.7-9.6-45.7c-8.2-12.8-21.5-22.7-35.5-27.1l-0.2-0.1c-7.8-2.4-12.1-10.7-9.7-18.4 c2.4-7.8,10.7-12.1,18.4-9.7C1117.9,719.6,1118.2,719.7,1118.5,719.8z" fill="#371a45"/></g></g></g></g><g><g><g><g><path d="M534.9,650.3L383,296.5l11.1-6.3c100.5-57.3,130.8-96.3,162.8-137.7c10.9-14.1,22.2-28.7,36.5-44.2 c140-152.7,293-44.8,294.5-43.7l-16.7,23.1c-5.4-3.9-134.2-93.9-256.8,39.8c-13.4,14.7-24.4,28.8-35,42.4 c-31.2,40.3-63.4,81.9-160.2,138.6l133.2,310.2c24.5-6.8,91.4-33.9,161.8-135.8c92.1-133.3,270.6-82.8,272.4-82.2l-8,27.4 c-6.5-1.9-160.6-45.2-240.9,71.1C641.2,639,549.2,649,545.3,649.4L534.9,650.3z" fill="#371a45"/></g></g></g></g><g opacity=".35"><g><g><g><path d="M976.4,407.4c-4.3-3.8-27.7-5.1-58.7-2.4c0,0,0,0-0.1,0c-46.9,4-111.1,17-153,44.3 c-0.1,0.1-0.1,0.1-0.2,0.1c-15.8,10.3-28.3,22.7-35.5,37.3c0,0,0,0.1-0.1,0.1c-9,18.2-23.4,35.8-40.2,52.1 c-55.3,53.7-137,93.7-140.3,95.3c-0.1,0-0.1,0-0.1,0l-29.4-57.8l-6.8-13.3c0,0,0.3,0,1-0.1c11.5-1.8,121.8-22,191.1-142.5l0,0 c16.8-22.6,18.8-52.9,5.1-77.5L591.5,131.5c8.4-10.6,1.9-2.6,12.3-13.9c22-24,29.9-29.5,51.6-41.5l118.7,223.6 c14.1,26.5,43.3,41.5,73,37.4c23.8-3.3,43.7-6.7,50.4-16.3C918.2,290.9,842,56.2,842,56.2c0.1,0,0.3,0.1,0.4,0.2 c0.5,0.2,1,0.4,1.5,0.6l0.1,0.1C885.2,79.7,976.4,407.4,976.4,407.4z" fill="#371a45"/></g></g></g></g><g><g><g><g><path d="M1223.7,1153.9c-2.9,0-5.9-0.9-8.5-2.8c-3-2.2-75.1-56.1-149.4-168c-77.4-116.4-70.9-214.9-24.5-252 c43.4-34.7,109.3-13.4,176.5,56.9c173.4,181.4,312.1,216.4,313.4,216.7c7.6,1.8,12.4,9.5,10.5,17.2 c-1.8,7.6-9.5,12.4-17.1,10.6c-5.9-1.4-147.6-36.6-327.5-224.8c-55.1-57.6-108-78.4-138.1-54.3 c-35.8,28.7-34.3,116.5,30.5,214c71.4,107.4,141.9,160.3,142.6,160.9c6.3,4.7,7.7,13.6,3,19.9 C1232.4,1151.9,1228.1,1153.9,1223.7,1153.9z" fill="#371a45"/></g></g></g></g><g><g><g><g><path d="M1977.4,889.3c-108.1,106.8-125.8,95.4-155.5,101.5c-24.5,5-108.5,15-174.7,1.2 c-74.2-15.5-188.1-80.2-231.9-181.4c-6.9-16-12.8-32.1-17.7-48.4c-65.6-215.8,40-451,251.9-542.7 c43.9-19,89.2-30.4,134.3-34.9c5.3-0.5,10.6-0.9,15.9-1.3c14.2-0.9,28.4-1.1,42.5-0.6c1.9,0,3.8,0.1,5.7,0.2 c9.2,4.6,18.2,9.4,27,14.6c9.5,5.6,18.8,11.5,27.9,17.8c4.6,3.2,1.8,10.4-3.7,9.6c-13.8-1.9-27.7-3.1-41.7-3.5 c-13-0.4-26.1-0.2-39.2,0.6c-4.9,0.3-9.8,0.7-14.7,1.2c-41.7,4.1-83.5,14.7-124.1,32.2c-194,83.9-313.3,309.2-239.4,498.5 c6.3,16.1,14,31.9,23.1,47.4c82.4,139.2,221.3,159.3,333,144.5C1896.7,932.6,1975,890.6,1977.4,889.3z" fill="#fff"/></g></g></g><g><g><g><path d="M1725.1,1001.2c-25.6,0-53-1.8-78.3-7.1c-82.3-17.2-192-87-233.4-182.7c-6.9-16-12.9-32.3-17.8-48.6 c-66.7-219.6,42.1-454,253.1-545.2c43.2-18.7,88.6-30.5,134.9-35c5.3-0.5,10.6-0.9,16-1.3c13.9-0.9,28.3-1.1,42.7-0.6 c1.9,0,3.8,0.1,5.7,0.2l0.8,0.2c9.5,4.7,18.7,9.7,27.1,14.7c9.9,5.8,19.3,11.8,28,17.9c2.9,2,4,5.5,2.7,8.7 c-1.3,3.3-4.4,5.2-7.9,4.7c-13.7-1.9-27.6-3-41.5-3.5c-13-0.4-26.1-0.2-39,0.6c-5.6,0.3-10.2,0.7-14.6,1.2 c-42.3,4.2-83.9,15-123.5,32.1c-200.3,86.6-309.4,313.7-238.3,495.8c6.3,16.1,14,32,23,47.1 c84.9,143.5,226.8,157.3,330.9,143.5c99.6-13.2,177.4-54.6,180.7-56.4l12.8-6.9l-10.4,10.2c-94.5,93.4-120.4,96.9-145.5,100.3 c-3.8,0.5-7.3,1-11.1,1.8C1810,995.4,1770.4,1001.2,1725.1,1001.2z M1827.6,184.6c-9.4,0-18.7,0.3-27.8,0.9 c-5.3,0.4-10.5,0.7-15.8,1.3c-45.9,4.5-90.9,16.2-133.7,34.7c-209,90.4-316.8,322.6-250.7,540.1c4.9,16.1,10.8,32.3,17.7,48.2 c40.8,94.3,149.2,163.3,230.4,180.2c69.4,14.5,154.8,2.8,173.8-1.2c3.9-0.8,7.7-1.3,11.4-1.8c23.5-3.2,47.9-6.5,133.6-89.8 c-26,12.4-91.3,40.4-170.1,50.9c-105.3,13.9-248.9,0-335.1-145.5c-9.1-15.4-16.9-31.4-23.3-47.7 c-71.9-184.2,38.2-413.7,240.5-501.2c40-17.3,82-28.2,124.7-32.4c4.4-0.5,9.1-0.9,14.8-1.2c13-0.8,26.3-1,39.4-0.6 c14.1,0.5,28.2,1.6,42,3.5c1.8,0.2,3-0.9,3.4-2s0.4-2.7-1.2-3.8c-8.7-6-18-12-27.8-17.7c-8.3-4.9-17.2-9.7-26.5-14.4 c-1.7-0.1-3.4-0.2-5.1-0.2C1837.3,184.7,1832.4,184.6,1827.6,184.6z" fill="#371a45"/></g></g></g></g><g opacity=".35"><g><g><g><path d="M1977.4,889.3c-108.1,106.8-125.8,95.4-155.5,101.5c-24.5,5-108.5,15-174.7,1.2 c-74.2-15.5-188.1-80.2-231.9-181.4c-6.9-16-12.8-32.1-17.7-48.4c-4.7-15.7-8.6-31.5-11.6-47.3c16.1,7.7,31.8,13.9,46.6,18.4 c2.2,6.9,4.6,13.8,7.3,20.7c6.3,16.1,14,31.9,23.1,47.4c82.4,139.2,221.3,159.3,333,144.5 C1896.7,932.6,1975,890.6,1977.4,889.3z" fill="#293856"/></g></g></g><g><g><g><path d="M1725.1,1001.2c-25.6,0-53-1.8-78.3-7.1c-82.3-17.2-192-87-233.4-182.7c-6.9-16-12.9-32.3-17.8-48.6 c-4.8-15.9-8.7-31.9-11.6-47.5l-0.7-4.1l3.7,1.8c15.8,7.5,31.4,13.7,46.4,18.3l1.1,0.3l0.3,1.1c2.2,7,4.6,13.9,7.2,20.6 c6.3,16.1,14,32,23,47.1c84.9,143.5,226.8,157.3,330.9,143.5c99.6-13.2,177.4-54.6,180.7-56.4l12.8-6.9l-10.4,10.2 c-94.5,93.4-120.4,96.9-145.5,100.3c-3.8,0.5-7.3,1-11.1,1.8C1810,995.4,1770.4,1001.2,1725.1,1001.2z M1388.9,718.5 c2.8,14.2,6.4,28.7,10.7,43.1c4.9,16.1,10.8,32.3,17.7,48.2c40.8,94.3,149.2,163.3,230.4,180.2c69.4,14.5,154.8,2.8,173.8-1.2 c3.9-0.8,7.7-1.3,11.4-1.8c23.5-3.2,47.9-6.5,133.6-89.8c-26,12.4-91.3,40.4-170.1,50.9c-105.3,13.9-248.9,0-335.1-145.5 c-9.1-15.4-16.9-31.4-23.3-47.7c-2.5-6.4-4.8-13-7-19.8C1417.3,730.7,1403.2,725.2,1388.9,718.5z" fill="#371a45"/></g></g></g></g><g><g><g><g><path d="M1725.1,1011.6c-26.3,0-54.4-1.9-80.4-7.3l0,0c-70.3-14.7-192.5-77.1-240.9-188.8 c-49-113.3-51-238.9-5.5-353.7s132.9-204.9,246.2-253.9c44.2-19.1,90.7-31.2,138.1-35.8c5.4-0.5,10.8-0.9,16.2-1.3 c14.2-0.9,28.9-1.1,43.8-0.7c1.9,0,3.9,0.1,5.9,0.2l2.6,0.1l2.4,1.2c9.5,4.7,18.9,9.8,27.8,15c9.7,5.7,19.4,11.9,28.7,18.3 c6.8,4.7,9.5,13.4,6.5,21.2c-3,7.7-10.9,12.4-19.1,11.3c-13.3-1.8-26.9-2.9-40.4-3.4c-12.5-0.4-25.3-0.2-38.1,0.6 c-4.7,0.3-9.4,0.7-14.1,1.2c-41.4,4.1-81.9,14.6-120.5,31.3c-110.9,48-199.1,144.4-236,257.9 c-30.7,94.5-21.6,190.4,25.6,270.1c82,138.6,219.6,151.8,320.5,138.4c91.4-12.1,163.4-48,176.9-55.1l9.4-4.9l6.8,8.2l6.5,8.5 l-7.3,7.8c-57.1,61.3-129.3,98.5-162.3,105.3C1811.9,1005.8,1771.4,1011.6,1725.1,1011.6z M1649.8,979.7 c61,12.7,142,4.5,169.6-1.2c19-3.9,54.6-20.5,91.8-47.5c-31.2,10.9-70.3,21.7-113.5,27.4c-88.8,11.7-251.7,7.8-345.5-150.6 c-50.9-86-60.8-189.2-27.8-290.7c39.1-120.3,132.5-222.4,250-273.2c41-17.7,84-28.9,127.9-33.2c4.3-0.5,9-0.9,15.1-1.3 c13.6-0.8,27.2-1.1,40.5-0.6c4.2,0.1,8.4,0.3,12.6,0.6c-0.6-0.4-1.2-0.7-1.8-1.1c-7.7-4.5-15.7-8.9-23.9-13 c-0.9,0-1.8-0.1-2.7-0.1c-14.1-0.4-28-0.2-41.4,0.6c-5.1,0.4-10.3,0.7-15.4,1.3c-44.8,4.4-88.8,15.8-130.6,33.9 c-107.1,46.3-189.8,131.6-232.8,240.1s-41.1,227.3,5.2,334.4C1471.1,907.7,1587.1,966.6,1649.8,979.7L1649.8,979.7z" fill="#371a45"/></g></g></g></g><g><g><g><g><circle cx="1332.6" cy="716.6" fill="#fff" r="131.4" transform="rotate(-45.001 1332.586 716.65)"/></g></g></g><g><g><g><path d="M1332.7,862.4c-18.1,0-36.3-3.4-53.7-10.3c-36.2-14.3-64.6-41.9-80.1-77.6l0,0 c-31.9-73.7,2.2-159.6,75.9-191.5c35.7-15.4,75.3-16.1,111.5-1.7c36.2,14.3,64.6,41.9,80.1,77.6 c15.4,35.7,16.1,75.3,1.7,111.5c-14.3,36.2-41.9,64.6-77.6,80.1C1371.9,858.3,1352.3,862.4,1332.7,862.4z M1225.1,763.1 c12.4,28.7,35.3,50.9,64.4,62.4s60.9,11,89.7-1.4c28.7-12.4,50.9-35.3,62.4-64.4s11-60.9-1.4-89.7 c-12.4-28.7-35.3-50.9-64.4-62.4s-60.9-11-89.7,1.4c-28.7,12.4-50.9,35.3-62.4,64.4S1212.7,734.4,1225.1,763.1L1225.1,763.1z" fill="#371a45"/></g></g></g></g><g><g><g><g><circle cx="1312.4" cy="732.6" fill="#fff" r="105.7"/></g></g></g><g><g><g><path d="M1312.5,840.4c-13.4,0-26.9-2.5-39.7-7.6c-26.8-10.6-47.8-31-59.2-57.4l0,0 c-11.4-26.4-11.9-55.7-1.3-82.5s31-47.8,57.4-59.2c26.4-11.4,55.7-11.9,82.5-1.3s47.8,31,59.2,57.4s11.9,55.7,1.3,82.5 c-10.6,26.8-31,47.8-57.4,59.2C1341.5,837.4,1327,840.4,1312.5,840.4z M1217.4,773.7c11,25.4,31.2,45,56.9,55.2 c25.7,10.2,53.9,9.8,79.3-1.2s45-31.2,55.2-56.9c10.2-25.7,9.8-53.9-1.2-79.3s-31.2-45-56.9-55.2 c-25.7-10.2-53.9-9.8-79.3,1.2s-45,31.2-55.2,56.9C1206,720.1,1206.4,748.3,1217.4,773.7z" fill="#371a45"/></g></g></g></g><g opacity=".35"><g><g><g><path d="M1403.6,777.9c11.6-19.8,16-41.7,14.1-63c-31.5,43.6-91.6,56.9-138.9,29.2 c-30.6-17.9-48.9-48.9-51.8-81.7c-2,2.7-3.9,5.6-5.6,8.6c-29.5,50.4-12.6,115.1,37.8,144.6 C1309.4,845.2,1374.1,828.3,1403.6,777.9z" fill="#293856"/></g></g></g><g><g><g><path d="M1312.3,832.3c-18.5,0-37.2-4.8-54.3-14.8c-24.8-14.6-42.5-37.9-49.8-65.8s-3.3-56.9,11.3-81.7 c1.9-3.3,3.8-6.2,5.8-8.8l3.3-4.5l0.5,5.5c3,33.3,22,63.2,50.8,80.1c46.3,27.1,104.8,14.8,136.2-28.6l3.3-4.5l0.5,5.6 c2.1,22.5-2.9,44.7-14.4,64.2l0,0C1385.4,813.2,1349.3,832.3,1312.3,832.3z M1225.5,668.2c-0.8,1.2-1.6,2.5-2.4,3.9 c-14,23.9-17.8,51.8-10.8,78.5c7,26.8,24,49.2,47.9,63.2c49.3,28.9,112.8,12.3,141.7-37l0,0c10.1-17.2,14.9-36.5,14.2-56.2 c-33.3,41.5-91.7,52.5-138.3,25.2C1249.4,729.4,1230.1,700.6,1225.5,668.2z" fill="#371a45"/></g></g></g></g><g><g><g><g><path d="M1312.5,850.9c-14.7,0-29.5-2.8-43.6-8.4c-29.4-11.6-52.4-34-65-63l0,0c-25.9-59.9,1.7-129.6,61.6-155.5 c29-12.5,61.1-13,90.5-1.4s52.5,34,65,63c25.9,59.9-1.7,129.6-61.6,155.5C1344.3,847.6,1328.4,850.9,1312.5,850.9z M1227,769.5c9.9,22.8,28,40.4,51.2,49.6c23.1,9.2,48.4,8.8,71.2-1.1c47.1-20.4,68.9-75.3,48.5-122.4 c-9.9-22.8-28-40.4-51.2-49.6c-23.1-9.2-48.4-8.8-71.2,1.1C1228.4,667.5,1206.6,722.4,1227,769.5L1227,769.5z" fill="#371a45"/></g></g></g></g><g><g><g><g><path d="M1819.4,1251.4c-0.1,3.9-6.2,35.1-6.2,35.1s-9.9-0.2-22.1-0.5c-15.2-0.3-27.2-16.3-26.8-35.8 s13.1-34.9,28.3-34.6c10.3,0.2,22.1,0.5,22.1,0.5S1819.5,1245.1,1819.4,1251.4z" fill="#22a7f0"/></g></g></g><g><g><g><path d="M1819,1293.8l-28.1-0.6c-19.1-0.4-34.3-19.7-33.8-43s16.6-41.9,35.6-41.6l28,0.6l1,5.8 c0.8,4.9,5,30,4.8,36.6l0,0c-0.1,4.1-4.4,26.7-6.3,36.3L1819,1293.8z M1792.1,1222.8c-11.1,0-20.4,12.3-20.7,27.6 c-0.3,15.5,8.6,28.2,19.8,28.5l16.1,0.3c2.5-12.9,4.8-25.8,4.9-28c0.1-3.5-1.9-17.3-3.7-28.1l-16.2-0.3 C1792.3,1222.8,1792.2,1222.8,1792.1,1222.8z M1819.4,1251.4L1819.4,1251.4L1819.4,1251.4z" fill="#371a45"/></g></g></g></g><g><g><g><g><ellipse cx="1813.9" cy="1251.3" fill="#22a7f0" rx="35.2" ry="27.6" transform="matrix(.0207 -.9998 .9998 .0207 525.361 3038.906)"/></g></g></g><g><g><g><path d="M1813.6,1293.6c-0.2,0-0.4,0-0.6,0c-9.6-0.2-18.4-5-24.8-13.6c-6-8-9.2-18.5-9-29.5 c0.5-23.3,16.7-41.9,35.6-41.6c9.6,0.2,18.4,5,24.8,13.6c6,8,9.2,18.5,9,29.5s-3.8,21.3-10.2,29.1 C1831.8,1289.2,1823,1293.6,1813.6,1293.6z M1814.2,1223.2c-11.1,0-20.4,12.3-20.7,27.6c-0.2,7.8,2,15.1,6.1,20.6 c3.7,5,8.6,7.8,13.7,7.9c5.2,0,10.1-2.5,14-7.3c4.3-5.3,6.8-12.5,7-20.4l0,0c0.2-7.8-2-15.1-6.1-20.6c-3.7-5-8.6-7.8-13.7-7.9 C1814.4,1223.2,1814.3,1223.2,1814.2,1223.2z" fill="#371a45"/></g></g></g></g><g opacity=".7"><g><g><g><ellipse cx="1585.7" cy="573.1" fill="#fff" rx="60" ry="70" transform="rotate(-9.294 1585.643 573.04)"/></g></g></g></g><g opacity=".7"><g><g><g><ellipse cx="1585.5" cy="725.2" fill="#fff" rx="25.1" ry="29.3" transform="rotate(-16.954 1585.581 725.244)"/></g></g></g></g><g><g><g><g><path d="M1707.1,1375c-3.9,0-7.1-3.2-7.1-7.1v-92c0-5.9-4.8-10.6-10.6-10.6c-13.7,0-24.9-11.2-24.9-24.9v-105.7 c0-3.9,3.2-7.1,7.1-7.1s7.1,3.2,7.1,7.1v105.7c0,5.9,4.8,10.6,10.6,10.6c13.7,0,24.9,11.2,24.9,24.9v92 C1714.3,1371.8,1711.1,1375,1707.1,1375z" fill="#371a45"/></g></g></g></g><g><g><g><g><path d="M1797.9,1610.9c-5.4,54.2-25.5,130.2-90.8,159.6c-103.4,46.6-130.1-107.8-135.6-118.6 c-5.5-10.9-31.2-85.7-153.8-98.1c-122.5-12.5-119.3-43.6-119.3-43.6l108.7-60.3l3.1-1.7l101.9-16.7c0,0,81.8-25.9,177.3-7.5 c95.5,18.5,106.7,119.6,109,127.8C1799.2,1554.8,1801.1,1579.1,1797.9,1610.9z" fill="#fff"/></g></g></g></g><g opacity=".35"><g><g><g><path d="M1797.9,1610.9c-5.4,54.2-25.5,130.2-90.8,159.6c-103.4,46.6-130.1-107.8-135.6-118.6 c-5.5-10.9-31.2-85.7-153.8-98.1c-122.5-12.5-119.3-43.6-119.3-43.6l108.7-60.3c56.9,9.9,142,35.1,176.3,60.3 c53,38.9,60.4,98.5,73.4,122.5C1676.7,1669.4,1725.9,1701,1797.9,1610.9z" fill="#371a45"/></g></g></g></g><g><g><g><g><path d="M1672.6,1793.1c-10.7,0-21-2.1-30.6-6.3c-35-15.4-49.1-49.5-63.9-85.7c-24.8-60.3-52.9-128.6-190.2-135.8 c-51.6-2.7-93.4-23.6-124.4-62.1c-93.8-116.7-55.5-355.8-53.8-365.9c1.3-7.8,8.6-13,16.4-11.7s13,8.6,11.7,16.4 c-0.4,2.4-37.9,236.7,47.9,343.4c26,32.4,59.9,49.2,103.6,51.5c155.4,8.1,189.9,92.1,215.1,153.4c13.7,33.3,24.5,59.7,49,70.4 c15.2,6.7,34.3,4.6,52.3-5.7c39.6-22.6,67.5-79.7,76.7-156.7c5.8-49.2-4.7-89.3-31.4-119.4c-31.7-35.7-78.4-48.4-108.8-48.4 c-7.9,0-14.3-6.4-14.3-14.3s6.4-14.3,14.3-14.3c36.3,0,92.1,15.2,130.1,57.9c31.9,35.9,45.2,84.9,38.4,141.7 c-14,117.8-63,162.1-90.9,178.1C1704.6,1788.7,1688.3,1793.1,1672.6,1793.1z" fill="#371a45"/></g></g></g></g><g><g><g><g><path d="M1540.4,1620.6c-3,0-6-1.1-8.4-3.2c-5.2-4.6-5.6-12.6-1-17.8c3.6-4,89.1-98.6,180.5-102 c35.3-1.3,66.7,11.1,93.3,36.8c5,4.8,5.1,12.8,0.3,17.8s-12.8,5.1-17.8,0.3c-21.8-21.1-46.3-30.8-74.9-29.7 c-80.8,3-161.9,92.7-162.7,93.6C1547.3,1619.2,1543.8,1620.6,1540.4,1620.6z" fill="#371a45"/></g></g></g></g><g><g><g><g><path d="M1213.2,1223c56.4,8.5,184.5,24,293.6,8.3c18-2.6,34,11.5,33.6,29.7v2.1c-0.3,14.2-10.6,26.1-24.6,28.4 c-113.1,18.5-252,9.8-311.1,4.6c-15.8-1.4-27.4-15.5-25.7-31.3l1.9-17C1182.5,1231.9,1197.2,1220.5,1213.2,1223z" fill="#fff"/></g></g></g><g><g><g><path d="M1354,1304.8c-63.2,0-119.2-4-149.6-6.6c-8.2-0.7-15.6-4.6-20.9-11c-5.2-6.4-7.6-14.4-6.7-22.6l1.9-17 c0.9-8.3,5.1-15.7,11.7-20.8c6.6-5.1,14.8-7.2,23.1-6c51.3,7.8,182.7,24.2,293,8.3c9.2-1.3,18.5,1.4,25.4,7.6 c6.9,6.1,10.8,14.9,10.6,24.2v2.1c-0.3,15.2-11.4,28-26.4,30.5C1464.2,1302.1,1406.6,1304.8,1354,1304.8z M1208.8,1224.7 c-5.7,0-11.3,1.9-15.9,5.4c-5.7,4.4-9.3,10.8-10.1,17.9l-1.9,17c-0.8,7.1,1.3,14,5.8,19.5s10.9,8.9,18,9.5 c55.5,4.8,196.8,14,310.6-4.6c13-2.1,22.6-13.2,22.8-26.4v-2.1c0.2-8-3.2-15.7-9.2-21s-14-7.7-22-6.6 c-110.8,15.9-242.7-0.5-294.2-8.3l0,0C1211.5,1224.8,1210.2,1224.7,1208.8,1224.7z" fill="#371a45"/></g></g></g></g><g opacity=".35"><g><g><g><path d="M1540.3,1260.9v2.1c-0.3,14.2-10.6,26.1-24.6,28.4c-113.1,18.5-252,9.8-311.1,4.6 c-15.8-1.4-27.4-15.5-25.7-31.3l1.8-17c0-0.5,0.1-0.9,0.2-1.3c4,9.3,12.8,16.2,23.6,17.2c59.1,5.1,198,13.9,311.1-4.6 c8.8-1.4,16.1-6.7,20.4-13.9C1538.9,1249.7,1540.5,1255.1,1540.3,1260.9z" fill="#371a45"/></g></g></g></g><g><g><g><g><path d="M1354,1315.3c-63.6,0-119.9-4-150.4-6.6c-11.1-1-21-6.2-28.1-14.8c-7-8.6-10.3-19.4-9-30.4l1.9-17 c1.2-11.2,6.8-21.1,15.7-28c8.9-6.9,19.9-9.7,31-8l0,0c50.9,7.7,181,23.9,289.9,8.3c12.2-1.8,24.6,1.9,33.8,10.1 s14.4,19.9,14.1,32.3v2.1c-0.4,20.3-15.2,37.3-35.2,40.6C1465.2,1312.5,1407,1315.3,1354,1315.3z M1208.9,1235.2 c-3.4,0-6.7,1.1-9.5,3.3c-3.4,2.6-5.6,6.5-6,10.8l-1.9,17c-0.5,4.2,0.8,8.4,3.5,11.7c2.7,3.3,6.5,5.3,10.8,5.7 c55.1,4.8,195.3,13.9,307.9-4.5c8-1.3,13.9-8.1,14.1-16.3v-2.1c0.1-5-1.9-9.6-5.7-12.9c-3.7-3.3-8.7-4.8-13.6-4.1 c-112.2,16.1-245.3-0.5-297.3-8.3l0,0C1210.5,1235.3,1209.7,1235.2,1208.9,1235.2z" fill="#371a45"/></g></g></g></g></g></g></svg>