<?xml version="1.0" encoding="UTF-8" standalone="no"?><svg xmlns="http://www.w3.org/2000/svg" xmlns:xlink="http://www.w3.org/1999/xlink" fill="#000000" height="74.8" preserveAspectRatio="xMidYMid meet" version="1" viewBox="10.4 10.6 75.3 74.8" width="75.3" zoomAndPan="magnify"><g id="change1_1"><path d="M82.8,43.3c-0.5-4.8-1.9-9.3-4.2-13.4c-0.6-1.1-1.2-2.2-1.9-3.2c-1.1-1.6-2.2-3-3.5-4.4 c-1.6-1.7-3.2-3.2-5.1-4.5c-4.3-3.2-9.3-5.4-14.7-6.4c-1.4-0.3-2.9-0.5-4.4-0.6c-0.8-0.1-1.5-0.1-2.3-0.1c-3.3,0-6.6,0.4-9.6,1.3 c-1.2,0.3-2.3,0.7-3.4,1.1c-2.2,0.8-4.3,1.9-6.3,3.1c-2.5,1.6-4.8,3.5-6.9,5.6c-2.7,2.8-4.9,6-6.6,9.5c-2.1,4.5-3.4,9.5-3.5,14.7 c0,0.3,0,0.6,0,1v0.2c0,2.3,0.2,4.5,0.6,6.6c1.3,6.6,4.3,12.6,8.6,17.4c6.7,7.4,16.3,12.1,27.1,12.1c1.6,0,3.2-0.1,4.8-0.3 c2.5-0.3,5-0.9,7.3-1.8c7.2-2.5,13.3-7.3,17.6-13.4c2-2.9,3.6-6.1,4.8-9.5C82.3,55,83,51.1,83,47.1C83,45.8,82.9,44.5,82.8,43.3z" fill="#fed922"/></g><g id="change2_1"><path d="M41.9,17.9c-3.2,0.7-6.2,1.8-8.9,3.6c-1.4,0.9-2.6,1.9-3.7,3.1c-0.5,0.6-1,1.1-1.5,1.7 c-0.5,0.7-1.1,1.2-1.7,1.8c-0.2,0.2-0.5,0-0.4-0.2c0.3-0.8,0.6-1.5,1.2-2.2c0.5-0.6,1.1-1.3,1.7-1.8c1.2-1.2,2.5-2.2,3.9-3.1 c2.8-1.8,6.1-2.9,9.4-3.2C42,17.7,42,17.9,41.9,17.9z M24.3,33.3c0.1-0.1,0.2-0.2,0.3-0.3c0.1-0.1,0.1-0.2,0.2-0.3 c0.1-0.1,0.1-0.2,0.2-0.3c0-0.1,0.1-0.2,0.1-0.3c0.1-0.5,0.3-0.9,0.4-1.4c0.1-0.3-0.4-0.4-0.5-0.1c-0.2,0.4-0.3,0.8-0.5,1.2 c-0.1,0.1-0.1,0.2-0.2,0.4c0,0.1-0.1,0.2-0.1,0.3c0,0.1-0.1,0.2-0.1,0.3c0,0.1,0,0.2-0.1,0.3C23.9,33.3,24.1,33.5,24.3,33.3z M23.2,63.5c-1.5-2.8-2.4-6-2.6-9.1c0-0.2-0.2-0.2-0.2,0c0,3.3,0.7,6.4,2.2,9.4c1.4,2.9,3.6,5.6,6.3,7.3c0.2,0.1,0.4-0.2,0.3-0.3 C26.7,68.6,24.7,66.3,23.2,63.5z M34,72.5c-0.1,0-0.1,0-0.2,0c-0.1,0-0.2-0.1-0.4-0.1c-0.2-0.1-0.5-0.1-0.7-0.2 c-0.2,0-0.4,0.1-0.5,0.3c0,0.2,0.1,0.4,0.3,0.5c0.2,0.1,0.5,0.1,0.8,0.2c0.1,0,0.2,0,0.4,0.1c0.1,0,0.2,0,0.3,0c0.1,0,0.2,0,0.2,0 c0.1,0,0.2-0.1,0.2-0.3c0-0.1,0-0.2-0.1-0.3C34.2,72.5,34.1,72.5,34,72.5z" fill="#ffffff"/></g><g id="change3_1"><path d="M23.3,44.3c0.4,1.9-0.7,4-2.5,4.7c-1.8,0.8-4,0.1-5.1-1.4C12,42.3,21.9,37.4,23.3,44.3z M28.1,48l-0.3,0.1 c-1.1,0.7-1.1,2.6,0,3.3c1.1,0.7,2.8-0.2,2.9-1.5C30.9,48.6,29.3,47.5,28.1,48z M35.8,31.3c-4.7-3.4-10.2,3-8.6,7.7 c0.9,2.7,3.8,4.6,6.6,4.2C40,42.4,40.1,34.5,35.8,31.3z M65,48.1c-4,1.4-6,8.5-2.6,11.4c1,0.8,2.2,1.1,3.5,1.1 c2.3,0,4.6-1.4,5.7-3.4C74,53,70.2,46.3,65,48.1z M60.7,65c-1.4-0.5-3.1,1-2.8,2.5c0.3,1.5,2.4,2.2,3.6,1.3l0.1-0.1 C62.6,67.7,62.1,65.5,60.7,65z M58.8,58.8c-0.2-1.6-2-2.9-3.6-2.6c0,0-2.7,0.3-2.7,3.4c0,1.7,1.9,3,3.5,2.8 C57.8,62.2,59.1,60.5,58.8,58.8z M76.7,26.7c-1.1-1.6-2.2-3-3.5-4.4c-1.6-1.7-3.2-3.2-5.1-4.5c-4.3-3.2-9.3-5.4-14.7-6.4 c-1,1.8-1.5,4-1.6,6.1c-0.2,6.2,3.2,12.4,8.6,15.3c5.4,2.9,12.7,2.2,17.3-1.9c0.4-0.3,0.7-0.7,1-1.1C78,28.8,77.4,27.7,76.7,26.7z" fill="#efc062"/></g><g id="change4_1"><path d="M84.7,48c0-20-16.3-36.4-36.4-36.4S12,28,12,48s16.3,36.4,36.4,36.4S84.7,68.1,84.7,48z M48.4,10.6 C69,10.6,85.7,27.4,85.7,48S69,85.4,48.4,85.4S11,68.6,11,48S27.8,10.6,48.4,10.6z" fill="#603d4a"/></g></svg>