<?xml version="1.0" encoding="UTF-8"?><svg xmlns="http://www.w3.org/2000/svg" xmlns:xlink="http://www.w3.org/1999/xlink" height="2683.0" preserveAspectRatio="xMidYMid meet" version="1.0" viewBox="-9.8 -1.6 2565.6 2683.0" width="2565.6" zoomAndPan="magnify"><g><g><g><g><g><g><path d="M2072.5,2532.7c-38.5,148.7-118.5,128-217.1,102.4c-53.2-13.8-132.4-55-190.7-102.9 c-49.7-40.9-84.3-86.7-74.5-124.5c21.3-82.1,243.6-95.6,342.2-70c87.8,22.7,160.8,41.6,148.7,150.2 C2079.5,2501.4,2076.7,2516.3,2072.5,2532.7z" fill="#fff"/></g></g></g><g><g><g><path d="M1955.1,2655.1c-30.5,0-64.7-8.8-100.3-18.1c-56.6-14.7-135.3-57.1-191.5-103.3 c-57.4-47.2-84.1-92.1-75.1-126.5c13-50.3,95.6-69.7,143.7-76.9c68.6-10.1,149.3-8,200.9,5.4 c87.2,22.6,162.4,42.1,150.2,152.4c-1.5,13.7-4.4,28.8-8.6,45l-1.9-0.5l1.9,0.5c-17.9,69-45.6,106.5-87.4,118 C1976.9,2653.9,1966.3,2655.1,1955.1,2655.1z M1821.7,2328c-29.8,0-60.5,2.1-89.2,6.3c-47.1,7-128,25.8-140.4,73.9 c-8.5,32.8,17.7,76.3,73.8,122.4c55.8,45.8,133.9,88,189.9,102.5c48.1,12.4,93.5,24.2,130.1,14.1 c40.2-11.1,67.1-47.6,84.6-115.1l0,0c4.1-16,7-30.9,8.5-44.4c11.9-106.9-58.3-125.1-147.2-148.1 C1902.2,2332,1862.8,2328,1821.7,2328z" fill="#371a45"/></g></g></g></g><g opacity=".35"><g><g><g><path d="M2065.1,2498.4c-62.3,42.6-134.6-9.2-134.6-9.2c-79.3,48.4-214.4,49.2-311.8-8.3 c-49.7-40.9-38.4-35.3-28.6-73.1c21.3-82.1,243.6-95.6,342.2-70C2020.1,2360.5,2098.8,2368.1,2065.1,2498.4z" fill="#371a45"/></g></g></g></g><g><g><g><g><path d="M1955.1,2667.3c-32,0-66.9-9-103.3-18.5c-53-13.7-126.4-51.9-182.6-94.9 c-50.1-38.3-106.8-95.4-92.7-149.7s91.4-76.6,153.8-85.9c70-10.4,152.7-8.1,205.7,5.7l0,0c98.9,25.6,192.3,49.8,150.3,212.2 c-19.1,73.7-49.6,113.9-96,126.7C1979,2666,1967.3,2667.3,1955.1,2667.3z M1821.2,2339.8c-98.1,0-205,23.8-217.3,71.5 c-7.8,30.1,22.3,73.9,82.5,120.1c53.5,40.9,122.8,77.1,172.5,90c48.5,12.5,90.3,23.4,123.8,14.2c22.4-6.2,54.7-23.9,76-106.4 c34.9-134.9-30.6-151.9-129.9-177.6l3.6-13.7l-3.6,13.7C1898.9,2343.7,1860.8,2339.8,1821.2,2339.8z" fill="#371a45"/></g></g></g></g><g><g><g><g><path d="M2228,2490.2c-52.8-14.7-106.4,12.2-119.7,60.1c-13.3,47.9,18.7,98.6,71.5,113.2 c38.4,10.7,154.9-6.3,215.6-16.4c15.2-2.5,20.5-21.6,8.8-31.6C2357.4,2575.6,2266.4,2500.9,2228,2490.2z" fill="#d73c2c"/></g></g></g></g><g><g><g><g><path d="M2197,2505.6c-34.8-9.7-70.7,10.5-80.3,45.1s10.8,70.4,45.5,80.1s168.3-20.7,168.3-20.7 S2231.8,2515.3,2197,2505.6z" fill="#e5a900"/></g></g></g></g><g><g><g><g><path d="M2170.4,2527.3c-22.6-6.3-45.6,5.2-51.3,25.8c-5.7,20.5,8,42.3,30.7,48.6s108.6-9.9,108.6-9.9 S2193,2533.6,2170.4,2527.3z" fill="#ff0"/></g></g></g></g><g><g><g><g><path d="M2231.2,2679.1c-24.8,0-45.5-1.7-58.5-5.9c-28.6-9.2-52.2-28.1-66.6-53.1c-14.6-25.4-17.9-54.2-9.3-80.9 c8.6-26.7,28.1-48.1,54.9-60.2c26.3-11.9,56.5-13.3,85-4.1l0,0c38.1,12.3,116.8,80.5,176.1,135.6c9.3,8.6,12.7,21.5,8.8,33.6 s-14.2,20.5-26.8,22.1C2342,2672.8,2279,2679.1,2231.2,2679.1z M2199,2497.4c-12.4,0-24.5,2.5-35.7,7.6 c-19.4,8.7-33.4,24-39.5,43s-3.7,39.6,6.9,58c10.8,18.9,28.9,33.1,50.7,40.2c25.1,8.1,103.6,5.1,210-8.1 c2-0.3,2.9-1.6,3.2-2.7c0.3-1.1,0.4-2.7-1.1-4.1c-78.5-72.9-140.4-121.3-165.6-129.4C2218.5,2498.9,2208.7,2497.4,2199,2497.4 z" fill="#371a45"/></g></g></g></g><g><g><g><g><path d="M2101.2,2628.8l43.5-155.1c5.3-18.7-10-38.4-32-41.2l-31.8-4.1l-57.8,205.9l29.3,13 C2072.7,2656.4,2096,2647.6,2101.2,2628.8z" fill="#f92323"/></g></g></g></g><g opacity=".7"><g><g><g><path d="M2112.7,2432.5l-31.8-4.1l-8.5,30.4l28.9,3.7c22,2.8,37.2,22.5,32,41.2l-38.2,136.1 c2.8-3.1,4.9-6.8,6.1-11l43.5-155.1C2150,2455,2134.7,2435.4,2112.7,2432.5z" fill="#fff"/></g></g></g></g><g opacity=".35"><g><g><g><path d="M2144.7,2473.7l-43.5,155.1c-5.3,18.8-28.5,27.6-48.8,18.6l-29.3-13l28.9-103l27.3,12.1 c20.3,9,43.5,0.1,48.8-18.6l17.4-62.1C2146,2466.5,2145.7,2470.1,2144.7,2473.7z" fill="#371a45"/></g></g></g></g><g><g><g><g><path d="M2072.8,2667.4c-6.6,0-13.3-1.4-19.6-4.2l-47-20.9l64.4-229.6l51,6.6c13.7,1.8,25.8,9.1,33.1,20.2 c6.5,9.8,8.4,21.2,5.4,32l-46.8,167c-3,10.8-10.6,19.6-21.2,24.6C2086,2666,2079.4,2667.4,2072.8,2667.4z M2040.2,2626.4 l24.6,10.9c5,2.2,10.7,2.3,15.2,0.2c2.2-1,5-3,6-6.5l46.8-167c1-3.6-0.4-6.7-1.7-8.7c-2.7-4.1-7.6-7-13.1-7.7l-26.7-3.4 L2040.2,2626.4z" fill="#371a45"/></g></g></g></g><g><g><g><g><path d="M1850.4,2647.9L1850.4,2647.9c-7.8,0-14.2-6.4-14.2-14.2v-30.5c0.1-86.2,22.2-171.5,64-246.9l14.8-26.7 c3.8-6.9,12.4-9.3,19.3-5.5c6.9,3.8,9.3,12.4,5.5,19.3l-14.8,26.7c-39.4,71.2-60.3,151.8-60.4,233.2v30.5 C1864.6,2641.6,1858.3,2647.9,1850.4,2647.9z" fill="#371a45"/></g></g></g></g><g><g><g><g><path d="M2062.6,1834.9c98.6,25.5,178.6,46.3,140.1,194.9c-38.5,148.7-118.5,128-217.1,102.4 c-98.6-25.5-286.5-145.2-265.2-227.3S1964,1809.3,2062.6,1834.9z" fill="#fff"/></g></g></g><g><g><g><path d="M2085.4,2152.2c-30.5,0-64.7-8.8-100.3-18.1c-51.6-13.4-123.3-50.7-178.3-92.8 c-38.6-29.6-101.4-86.7-88.4-137c21.3-82.4,241.4-98.2,344.6-71.5l0,0c96.9,25.1,180.5,46.8,141.5,197.4 c-17.9,69-45.6,106.5-87.4,118C2107.2,2151,2096.5,2152.2,2085.4,2152.2z M1953.2,1825.4c-101.1,0-216.4,24-230.9,80 c-12.5,48.1,49.1,103.8,86.9,132.8c54.6,41.8,125.7,78.9,176.8,92.1c48.1,12.4,93.5,24.2,130.1,14.1 c40.2-11.1,67.1-47.6,84.6-115.1c38-146.7-40-166.9-138.6-192.5l0.5-1.9l-0.5,1.9C2033.3,1829.4,1994.4,1825.4,1953.2,1825.4z" fill="#371a45"/></g></g></g></g><g opacity=".35"><g><g><g><path d="M2202.7,2029.8c-38.5,148.7-118.5,128-217.1,102.4c-98.6-25.5-286.5-145.2-265.2-227.3 c0.8-3.1,1.9-6,3.2-8.9c54.2,64.9,166.8,128.9,235.8,146.7c98.6,25.5,178.6,46.3,217.1-102.4c5.1-19.6,8.1-36.9,9.3-52.3 C2212,1914.9,2221.5,1957.1,2202.7,2029.8z" fill="#371a45"/></g></g></g></g><g><g><g><g><path d="M2085.3,2164.4c-32,0-66.9-9-103.3-18.5c-53-13.7-126.4-51.9-182.6-94.9 c-50.1-38.3-106.8-95.4-92.7-149.7s91.4-76.6,153.8-85.9c70-10.4,152.7-8.1,205.7,5.7l0,0c98.9,25.6,192.3,49.8,150.3,212.2 c-19.1,73.7-49.6,113.9-96,126.7C2109.2,2163.1,2097.5,2164.4,2085.3,2164.4z M1951.5,1837c-98.1,0-205,23.8-217.3,71.5 c-7.8,30.1,22.3,73.9,82.5,120.1c53.5,40.9,122.8,77.1,172.5,90c48.5,12.5,90.3,23.4,123.8,14.2c22.4-6.2,54.7-23.9,76-106.4 c34.9-134.9-30.6-151.9-129.9-177.6l3.6-13.7l-3.6,13.7C2029.2,1840.9,1991,1837,1951.5,1837z" fill="#371a45"/></g></g></g></g><g><g><g><g><path d="M2358.3,1987.3c-52.8-14.7-106.4,12.2-119.7,60.1c-13.3,47.9,18.7,98.6,71.5,113.2 c38.4,10.7,154.9-6.3,215.6-16.4c15.2-2.5,20.5-21.6,8.8-31.6C2487.7,2072.7,2396.7,1998,2358.3,1987.3z" fill="#d73c2c"/></g></g></g></g><g><g><g><g><path d="M2324.5,2002c-33.2-9.2-67.9,11.3-77.5,45.9c-9.6,34.6,9.5,70.1,42.7,79.3s161.5-22.5,161.5-22.5 S2357.7,2011.2,2324.5,2002z" fill="#e5a900"/></g></g></g></g><g><g><g><g><path d="M2300.6,2024.5c-22.6-6.3-45.6,5.2-51.3,25.8c-5.7,20.5,8,42.3,30.7,48.6c22.6,6.3,108.6-9.9,108.6-9.9 S2323.2,2030.8,2300.6,2024.5z" fill="#ff0"/></g></g></g></g><g><g><g><g><path d="M2361.5,2176.2c-24.8,0-45.5-1.7-58.5-5.9c-28.6-9.2-52.2-28.1-66.6-53.1c-14.6-25.4-17.9-54.2-9.3-80.9 c8.6-26.7,28.1-48.1,54.9-60.2c26.3-11.9,56.5-13.3,85-4.1l0,0c38.1,12.3,116.8,80.5,176.1,135.6c9.3,8.6,12.7,21.5,8.8,33.6 s-14.2,20.5-26.8,22.1C2472.3,2170,2409.2,2176.2,2361.5,2176.2z M2329.3,1994.5c-12.4,0-24.5,2.5-35.7,7.6 c-19.4,8.7-33.4,24-39.5,43c-6.1,19-3.7,39.6,6.9,58c10.8,18.9,28.9,33.1,50.7,40.2c25.1,8.1,103.6,5.1,210-8.1 c2-0.3,2.9-1.6,3.2-2.7c0.3-1.1,0.4-2.7-1.1-4.1c-78.5-72.9-140.4-121.3-165.6-129.4 C2348.7,1996.1,2338.9,1994.5,2329.3,1994.5z" fill="#371a45"/></g></g></g></g><g><g><g><g><path d="M2231.5,2126l43.5-155.1c5.3-18.7-10-38.4-32-41.2l-31.8-4.1l-57.8,205.9l29.3,13 C2203,2153.6,2226.2,2144.7,2231.5,2126z" fill="#f92323"/></g></g></g></g><g opacity=".7"><g><g><g><path d="M2243,1929.7l-31.8-4.1l-7.8,27.8l31.6,4.1c22,2.8,37.2,22.5,32,41.2l-36.3,129.4 c0.3-0.7,0.5-1.4,0.7-2.1l43.5-155.1C2280.2,1952.2,2265,1932.5,2243,1929.7z" fill="#fff"/></g></g></g></g><g opacity=".35"><g><g><g><path d="M2275,1970.9l-43.5,155.1c-5.3,18.8-28.5,27.6-48.8,18.6l-29.3-13l28.9-103l27.3,12.1 c20.3,9,43.5,0.1,48.8-18.6l17.4-62.1C2276.2,1963.6,2276,1967.3,2275,1970.9z" fill="#371a45"/></g></g></g></g><g><g><g><g><path d="M2203,2164.6c-6.6,0-13.3-1.4-19.6-4.2l-47-20.9l64.4-229.6l51,6.6c13.7,1.8,25.8,9.1,33.1,20.2 c6.5,9.8,8.4,21.2,5.4,32l-46.8,167c-3,10.8-10.6,19.6-21.2,24.6C2216.2,2163.2,2209.6,2164.6,2203,2164.6z M2170.4,2123.5 l24.6,10.9c5,2.2,10.7,2.3,15.2,0.2c2.2-1,5-3,6-6.5l46.8-167c1-3.6-0.4-6.7-1.7-8.7c-2.7-4.1-7.6-7-13.1-7.7l-26.7-3.4 L2170.4,2123.5z" fill="#371a45"/></g></g></g></g><g><g><g><g><path d="M1980.7,2145.1L1980.7,2145.1c-7.8,0-14.2-6.4-14.2-14.2v-30.5c0.1-86.2,22.2-171.5,64-246.9l14.8-26.7 c3.8-6.9,12.4-9.3,19.3-5.5c6.9,3.8,9.3,12.4,5.5,19.3l-14.8,26.7c-39.4,71.2-60.3,151.8-60.4,233.2v30.5 C1994.9,2138.7,1988.5,2145.1,1980.7,2145.1z" fill="#371a45"/></g></g></g></g><g><g><g><g><path d="M2091.6,2269.1c-16.3,63.5-70.1,113.6-152.2,149.2c-8.6,3.7-17.4,7.3-26.6,10.7 c-16.3,6.1-33.5,11.6-51.6,16.6c-43.5,12.2-92.2,21.4-145,27.6c-38.1,4.4-78.4,7.3-120.6,8.6c-38,1.1-77.5,1-118.3-0.6 c-37.8-1.4-76.6-3.9-116.5-7.6c-127.1-11.7-263.7-35.3-404.1-71.3c-229.3-58.8-428.3-163.7-582.8-273.7 c-229.7-163.4-361-338.1-347.8-389.6c13.6-53.1,208.3-141.1,482.9-173.9c3.3-0.4,6.5-0.8,9.8-1.2 c94.8-10.8,198.9-15.1,308.2-9.1c107.6,5.9,220.3,21.8,334.1,50.9c140.4,36,271.5,81.2,388.6,132.1c4.2,1.8,8.4,3.6,12.5,5.5 c32.2,14.2,63.3,28.9,93.2,44c36.5,18.3,71.2,37.2,104,56.5c9.3,5.5,18.5,11,27.4,16.6c26.1,16.1,50.8,32.5,74.1,49 c29,20.7,55.7,41.6,79.8,62.7c11.5,10,22.5,20.1,32.9,30.3c21.5,20.8,40.4,41.8,56.5,62.6 C2084.9,2135.8,2108,2205.6,2091.6,2269.1z" fill="#fff"/></g></g></g><g><g><g><path d="M1545.7,2484.5c-22.5,0-45.4-0.4-68.5-1.3c-38.1-1.4-77.3-3.9-116.6-7.6c-131-12.1-267.1-36.1-404.5-71.3 c-256.6-65.8-458.9-185.3-583.4-274c-235.3-167.4-361.6-341-348.6-391.7c14.7-57.3,217.4-143.5,484.6-175.4c3-0.4,6-0.7,9-1.1 l0.8-0.1c101.9-11.7,205.7-14.7,308.5-9.1c114.5,6.3,227.1,23.5,334.5,51c137.2,35.2,268,79.7,388.9,132.2 c4.2,1.8,8.4,3.6,12.6,5.5c31.8,14.1,63.1,28.9,93.3,44c36.1,18.1,71.2,37.2,104.1,56.6c9.4,5.5,18.6,11.1,27.5,16.6 c25.6,15.8,50.6,32.3,74.2,49.1c28.9,20.6,55.8,41.7,80,62.8c11.7,10.1,22.8,20.4,33,30.4c21.4,20.7,40.4,41.8,56.7,62.8 c57.2,73.9,78,143.1,61.9,205.8l0,0c-16.1,62.7-67.6,113.3-153.3,150.5c-8.6,3.7-17.6,7.3-26.7,10.7 c-16.3,6.1-33.7,11.7-51.8,16.7c-43.3,12.1-92.2,21.4-145.3,27.6c-38,4.4-78.6,7.3-120.8,8.6 C1579.3,2484.2,1562.6,2484.5,1545.7,2484.5z M726.8,1554.1c-69.5,0-139.1,3.9-207.8,11.8l-0.8,0.1c-3,0.3-6,0.7-9,1.1 C229.9,1600.5,40.7,1690,28,1739.5c-12.7,49.6,113.1,221,347.1,387.5c124.3,88.5,326.1,207.7,582.1,273.4 c137.1,35.2,273,59.2,403.8,71.2c39.2,3.7,78.4,6.2,116.4,7.6c40.2,1.5,80,1.7,118.2,0.6c42.1-1.3,82.6-4.2,120.4-8.6 c52.9-6.2,101.6-15.5,144.7-27.5c17.9-5,35.2-10.5,51.5-16.6c9-3.3,18-6.9,26.5-10.6c84.5-36.7,135.3-86.4,151-147.9l0,0 c15.8-61.4-4.8-129.5-61.2-202.3c-16.2-20.9-35.1-41.9-56.3-62.4c-10.1-10-21.2-20.1-32.8-30.2c-24-21-50.8-42.1-79.7-62.6 c-23.5-16.7-48.4-33.1-74-48.9c-8.8-5.5-18-11-27.4-16.5c-32.9-19.4-67.8-38.4-103.9-56.5c-30.1-15.1-61.4-29.9-93.1-43.9 c-4.1-1.8-8.3-3.7-12.5-5.5c-120.6-52.4-251.3-96.9-388.3-132c-107.2-27.5-219.5-44.6-333.7-50.9 C793.6,1555,760.2,1554.1,726.8,1554.1z" fill="#371a45"/></g></g></g></g><g opacity=".35"><g><g><g><path d="M1785.7,1864.8c-85.4,6.4-283-30.3-506.9-97.6c-263.1-79.1-472.5-173.6-501-223.2 c113,6.2,231.3,22.9,350.8,53.5c147.4,37.8,285.1,85.3,408,138.7c4.4,1.9,8.8,3.8,13.2,5.8c33.8,14.9,66.4,30.4,97.8,46.2 c38.3,19.2,74.8,39.1,109.2,59.3C1766.6,1853.1,1776.2,1858.9,1785.7,1864.8z" fill="#371a45"/></g></g></g></g><g opacity=".35"><g><g><g><path d="M1860,2439.9c0.4,1.9,0.8,3.8,1.2,5.7c18.1-5,35.3-10.6,51.6-16.6c8.6-3.2,17-6.6,25.1-10l-8.2-3.7v-0.2 C1908.3,2424.3,1885.1,2432.6,1860,2439.9z"/></g></g></g><g><g><g><path d="M1859.8,2448.1l-0.5-2c-0.4-1.9-0.8-3.8-1.3-5.7l-0.4-1.8l1.8-0.5c24.8-7.2,48.2-15.5,69.5-24.7l3.6-1.6 l-0.5,2.4l10.9,4.9l-4.2,1.8c-7.9,3.4-16.3,6.8-25.2,10.1c-16.4,6.1-33.8,11.7-51.8,16.7L1859.8,2448.1z M1862.3,2441.3 c0.1,0.6,0.3,1.2,0.4,1.8c17.2-4.8,33.8-10.2,49.4-16c7.2-2.7,14.1-5.4,20.7-8.2l-3.4-1.5 C1908.8,2426.3,1886.2,2434.3,1862.3,2441.3z" fill="#371a45"/></g></g></g></g><g opacity=".35"><g><g><g><path d="M364.5,2123.7C518.8,2233.8,717.7,2338.9,947,2398c140.4,36.2,277,59.9,404.1,71.7 c39.8,3.8,78.7,6.3,116.4,7.8c40.8,1.5,80.3,1.8,118.4,0.7c42.2-1.2,82.5-4,120.6-8.4c56.4-6.5,107.8-16.5,153.5-29.8 c25.1-7.3,48.3-15.6,69.7-24.8v0.2l8.2,3.7l0,0c58.8-25.3,103.2-57.9,129.9-97.6c11-16.3,19-33.7,23.8-52.3 c16.3-63.5-6.8-133.3-61.5-204.1c-16.1-20.8-35-41.8-56.5-62.7c-41.6,47.7-79,121.2-101.3,207.7c-3.3,12.8-6.2,25.4-8.6,38 c-7.1,36.2-36.4,64.1-73.1,68.2c-327.4,37-614.3,3.4-856.5-63c-15.9-4.4-16.4-26.7-0.8-31.9c77.5-25.8,140.7-89.2,162.6-174.2 c34.4-133.2-45.8-269-179-303.4c-133.2-34.3-269,45.8-303.4,179c-17.9,69.3-4.7,139.4,30.8,195.5c8.7,13.8-6.1,30.6-21,23.9 c-86.3-38.4-163.9-79.6-232.4-120.5c-244.2-145.7-373.7-288-373.7-288C3.9,1785.1,135,1959.9,364.5,2123.7z" fill="#371a45"/></g></g></g></g><g><g><g><g><path d="M15.5,1746.6c0.2,1.1,0.5,2.3,0.8,3.5c0.6,2.2,1.2,4.6,2.1,7c0.4,1.3,0.9,2.5,1.3,3.8 c3.3,9.1,8.1,19.2,14.3,30.3c0.9,1.6,1.8,3.2,2.7,4.8c6.6,11.4,14.6,23.7,24,36.8c1.3,1.9,2.7,3.8,4.1,5.7 c3.2,4.4,6.5,8.8,10,13.3c1.5,2,3.1,4,4.7,6c9.7,12.3,20.4,25.1,32.2,38.4c1.7,1.9,3.5,3.9,5.3,5.9 c10.9,12.2,22.8,24.8,35.4,37.5c2.2,2.3,4.5,4.6,6.8,6.9c12.6,12.7,26,25.5,40.2,38.6c2.6,2.4,5.2,4.8,7.9,7.2 c31.7,28.9,66.9,58.5,105.5,88c3.2,2.5,6.5,4.9,9.7,7.4c6.5,4.9,13.1,9.8,19.8,14.8c3.3,2.5,6.7,4.9,10.1,7.4 c1,0.7,2,1.4,3,2.2l0,0c0.7-33.5,4.9-71.1,10.3-107.6c5-33.2,11.1-65.4,16.6-92.3c3.5-98.3,30.9-194.8,80.5-280.8l14.2-24.6 l31.1-54c-263.3,29.7-455.2,110.4-488.5,164.6c-1.2,2-2.2,3.9-3,5.8c-0.6,1.4-1,2.7-1.4,4.1 C13.8,1732.4,13.9,1738.9,15.5,1746.6z" fill="#f92323"/></g></g></g></g><g opacity=".7"><g><g><g><path d="M19.5,1717.3c41.7-14.4,158.9-53.3,272.3-77.6c73.3-15.7,139.1-26.4,185.2-33.1l31.1-54 C244.7,1582.4,52.8,1663,19.5,1717.3z" fill="#fff"/></g></g></g></g><g opacity=".35"><g><g><g><path d="M15.5,1746.6c0.2,1.1,0.5,2.3,0.8,3.5c0.6,2.2,1.2,4.6,2.1,7c0.4,1.3,0.9,2.5,1.3,3.8c3.3,9.1,8.1,19.2,14.3,30.3 c0.9,1.6,1.8,3.2,2.7,4.8c6.6,11.4,14.6,23.7,24,36.8c1.3,1.9,2.7,3.8,4.1,5.7c3.2,4.4,6.5,8.8,10,13.3c1.5,2,3.1,4,4.7,6 c9.7,12.3,20.4,25.1,32.2,38.4c1.7,1.9,3.5,3.9,5.3,5.9c10.9,12.2,22.8,24.8,35.4,37.5c2.2,2.3,4.5,4.6,6.8,6.9 c12.6,12.7,26,25.5,40.2,38.6c2.6,2.4,5.2,4.8,7.9,7.2c31.7,28.9,66.9,58.5,105.5,88c3.2,2.5,6.5,4.9,9.7,7.4 c6.5,4.9,13.1,9.8,19.8,14.8c3.3,2.5,6.7,4.9,10.1,7.4c1,0.7,2,1.4,3,2.1c0.7-33.5,4.9-71.1,10.3-107.6 c-96.9-62.7-303.2-202.3-349.1-281.3c-0.6,1.4-1,2.7-1.4,4.1C13.8,1732.4,13.9,1738.9,15.5,1746.6z"/></g></g></g><g><g><g><path d="M357.1,2115.7l-3-2.1c-1-0.7-2.1-1.4-3.1-2.2l-0.6-0.4c-3.2-2.3-6.4-4.6-9.5-6.9 c-6.7-5-13.3-9.9-19.8-14.8c-3.3-2.5-6.5-4.9-9.7-7.4c-37.1-28.5-72.6-58.1-105.6-88.1c-2.7-2.4-5.3-4.8-7.9-7.2 c-14.1-13-27.6-26-40.2-38.6c-2.3-2.3-4.6-4.6-6.8-6.9c-12.7-12.9-24.6-25.5-35.4-37.6c-1.8-2-3.5-3.9-5.3-5.9 c-12-13.5-22.8-26.5-32.3-38.5l-1.4-1.8c-1.1-1.4-2.2-2.8-3.3-4.2c-3.5-4.5-6.8-9-10-13.3c-1.4-1.9-2.8-3.8-4.1-5.7 c-9.3-12.9-17.4-25.3-24.1-36.9c-0.9-1.6-1.8-3.1-2.7-4.7c-6.3-11.2-11.2-21.5-14.5-30.8l-0.5-1.4c-0.3-0.8-0.6-1.7-0.9-2.5 c-0.8-2.5-1.5-4.8-2.1-7.1c-0.4-1.5-0.6-2.6-0.8-3.6c-1.7-8-1.8-14.8-0.4-20.3c0.4-1.4,0.9-2.9,1.5-4.4l1.6-3.7l2,3.5 c46.3,79.6,259.1,222.7,348.4,280.6l1.1,0.7l-0.2,1.3c-6.2,41.4-9.7,77.5-10.3,107.3L357.1,2115.7z M17,1727.8 c-1.2,4.9-1.1,11.1,0.5,18.4l0,0c0.2,0.9,0.4,1.9,0.7,2.9c0.7,2.7,1.3,4.9,2.1,7.3c0.3,0.8,0.6,1.6,0.8,2.5l0.5,1.4 c3.3,9,8,19.1,14.1,30c0.9,1.7,1.8,3.2,2.7,4.8c6.7,11.5,14.7,23.8,23.9,36.6c1.3,1.9,2.7,3.7,4.1,5.6 c3.2,4.4,6.5,8.7,10,13.2c1.1,1.4,2.1,2.7,3.2,4.1l1.5,1.8c9.4,12,20.2,24.9,32.1,38.3c1.7,1.9,3.5,3.9,5.2,5.9 c10.7,12,22.6,24.6,35.3,37.5c2.2,2.3,4.5,4.6,6.8,6.8c12.6,12.6,26.1,25.6,40.1,38.5c2.6,2.4,5.2,4.8,7.8,7.2 c32.9,30,68.3,59.5,105.3,87.9c3.2,2.5,6.5,4.9,9.7,7.4c6.5,4.9,13.1,9.8,19.8,14.8c3.1,2.3,6.3,4.6,9.5,6.9l0.5,0.3 c0.8-28.9,4.2-63.4,10.1-102.8C274.5,1947.8,67.7,1808.5,17,1727.8z" fill="#371a45"/></g></g></g></g><g><g><g><g><path d="M1535.5,2486.5c-23.1,0-46.7-0.4-70.5-1.3c-38.5-1.5-77.9-4.1-117.3-7.8 c-131.7-12.3-268.3-36.6-406.3-72.2c-258.3-66.6-461.9-187.1-587.2-276.5c-105-74.9-199.9-160-267.3-239.5 c-36.7-43.3-96.7-122.5-85.6-165.6c16.4-63.7,223.3-153.3,505.1-185.1c152.4-17.3,388.4-23.8,647.4,42.9 c137.9,35.6,269.3,80.4,390.5,133.3c36.2,15.8,72,32.6,106.4,49.9c36.5,18.4,71.7,37.6,104.7,57.1 c36.5,21.5,71,43.9,102.5,66.4c73.3,52.4,131.2,105.7,172,158.7c59.5,77.1,81,149.8,63.8,216.3 c-17.1,66.5-71.1,119.8-160.5,158.5c-61.3,26.6-137.8,45.3-227.3,55.7c-38.6,4.4-79.6,7.3-121.9,8.5 C1568.3,2486.3,1552,2486.5,1535.5,2486.5z M713.8,1555.3c-77.9,0-147,4.9-204.2,11.4c-296.5,33.5-470.6,124.5-480.8,164 c-9.7,37.6,102.2,203.9,341.9,374.9c123.3,88,323.7,206.6,577.8,272.2c136.5,35.2,271.7,59.2,401.8,71.4 c38.8,3.6,77.7,6.2,115.7,7.7c40.2,1.5,79.7,1.7,117.4,0.6c41.5-1.2,81.7-4,119.4-8.3c86.7-10.1,160.5-28.1,219.3-53.6 c80.9-35,129.4-82,144.3-139.6s-4.9-122.2-58.8-191.9c-39.2-50.7-95-102.2-166-152.9c-30.9-22-64.7-43.9-100.5-65 c-32.4-19.2-67.1-38.1-103.1-56.2c-33.9-17.1-69.2-33.6-105-49.2c-119.8-52.3-249.8-96.6-386.3-131.8 C989.1,1568.3,840.1,1555.3,713.8,1555.3z" fill="#371a45"/></g></g></g></g><g><g><g><g><path d="M749,2123.3L749,2123.3z" fill="none" stroke="#371a45" stroke-linecap="round" stroke-miterlimit="10" stroke-width="7.095"/></g></g></g></g><g><g><g><g><path d="M1038.2,2047.7L1038.2,2047.7z" fill="#c1303d" stroke="#371a45" stroke-miterlimit="10" stroke-width="4"/></g></g></g></g><g><g><g><g><path d="M803.6,2169.8c90.9,23.4,183.1-11.9,236.5-82.2c17.6-23.2,31-50.2,38.7-80.2c2.9-11.1,4.9-22.3,6-33.4 c11.4-109.4-58.7-213.6-168.4-241.9c-7.2-1.9-14.5-3.4-21.7-4.5c-93-14.6-184,30.4-230,109.5c-10.2,17.5-18.3,36.8-23.6,57.4 C610,2015.4,682.7,2138.7,803.6,2169.8z" fill="#ee346a"/></g></g></g></g><g opacity=".7"><g><g><g><path d="M641.2,1926.4c5.3-20.6,13.3-39.9,23.6-57.4c46-79,137-124,230-109.5c7.3,1.1,14.5,2.6,21.7,4.5 c96.5,24.9,162.3,108.4,169,202.6c7.5-106.7-61.8-206.8-169-234.4c-7.2-1.9-14.5-3.4-21.7-4.5c-93-14.6-184,30.4-230,109.5 c-10.2,17.5-18.3,36.8-23.6,57.4c-6.3,24.3-8.3,48.8-6.6,72.5C635.5,1953.6,637.7,1940,641.2,1926.4z" fill="#fff"/></g></g></g></g><g opacity=".35"><g><g><g><path d="M803.6,2169.8c90.9,23.4,183.1-11.9,236.5-82.2c10.3-17.6,18.3-36.9,23.7-57.7c0.4-1.5,0.7-2.9,1.1-4.4 c-53.5,69.7-145.3,104.5-235.8,81.2c-119.4-30.8-191.8-151.4-163.5-270.8c-0.3,0.4-0.6,0.8-0.9,1.2 c-10.2,17.5-18.3,36.8-23.6,57.4C610,2015.4,682.7,2138.7,803.6,2169.8z" fill="#293856"/></g></g></g><g><g><g><path d="M860.3,2179c-19,0-38.2-2.4-57.2-7.3l0,0c-121.8-31.4-195.3-156-163.9-277.7c5.3-20.5,13.3-40,23.8-57.9 c0.2-0.4,0.5-0.7,0.7-1l5.7-7.4l-1.9,8.8c-27.9,117.8,44.8,238.2,162.1,268.4c87.1,22.5,178.8-9.1,233.7-80.5l5.7-7.4 l-2.1,9.1c-0.3,1.5-0.7,3-1.1,4.4c-5.3,20.5-13.3,40-23.9,58.2C997.9,2146.5,930.5,2179,860.3,2179z M804.1,2167.9 c87.7,22.6,179.7-9.4,234.4-81.5c9.5-16.3,16.9-33.9,22.1-52.4c-56.3,67.5-146.3,96.7-232,74.6 c-115.2-29.7-188.2-145-167.6-260.8c-7.7,14.9-13.7,30.7-18,47.1C612.3,2014.7,684.5,2137.1,804.1,2167.9L804.1,2167.9z" fill="#371a45"/></g></g></g></g><g><g><g><g><path d="M860.4,2191.3c-20.1,0-40.4-2.6-60.4-7.7c-62.1-16-114.3-55.3-146.9-110.5 c-32.6-55.3-41.7-119.9-25.7-182s55.3-114.3,110.5-146.9c55.3-32.6,119.9-41.7,182-25.7s114.3,55.3,146.9,110.5 c32.6,55.3,41.7,119.9,25.7,182c-16,62.1-55.3,114.3-110.5,146.9C944.6,2180,902.8,2191.3,860.4,2191.3z M859.7,1739.1 c-37.4,0-74.2,10-107.3,29.5c-48.7,28.8-83.3,74.8-97.5,129.6s-6.1,111.8,22.7,160.5c28.8,48.7,74.8,83.3,129.6,97.5l0,0 c54.8,14.1,111.8,6.1,160.5-22.7s83.3-74.8,97.5-129.6c14.1-54.8,6.1-111.8-22.7-160.5c-28.8-48.7-74.8-83.3-129.6-97.5 C895.3,1741.3,877.4,1739.1,859.7,1739.1z" fill="#371a45"/></g></g></g></g><g><g><g><g><path d="M860.4,2191.3c-20.1,0-40.4-2.6-60.4-7.7c-62.1-16-114.3-55.3-146.9-110.5 c-32.6-55.3-41.7-119.9-25.7-182s55.3-114.3,110.5-146.9c55.3-32.6,119.9-41.7,182-25.7s114.3,55.3,146.9,110.5 c32.6,55.3,41.7,119.9,25.7,182c-16,62.1-55.3,114.3-110.5,146.9C944.6,2180,902.8,2191.3,860.4,2191.3z M859.7,1739.1 c-37.4,0-74.2,10-107.3,29.5c-48.7,28.8-83.3,74.8-97.5,129.6s-6.1,111.8,22.7,160.5c28.8,48.7,74.8,83.3,129.6,97.5l0,0 c54.8,14.1,111.8,6.1,160.5-22.7s83.3-74.8,97.5-129.6c14.1-54.8,6.1-111.8-22.7-160.5c-28.8-48.7-74.8-83.3-129.6-97.5 C895.3,1741.3,877.4,1739.1,859.7,1739.1z" fill="#371a45"/></g></g></g></g><g><g><g><g><path d="M738.9,2040.5c49.4,66.9,143.8,81,210.6,31.6c33.1-24.5,53.3-60,59.3-97.7c6-38.5-2.8-79.2-27.7-112.9 c-49.4-66.9-143.8-81-210.6-31.6c-47.5,35.1-68.4,92.9-58.8,147.3C715.6,1999.5,724.6,2021.1,738.9,2040.5z" fill="#22a7f0"/></g></g></g></g><g><g><g><g><path d="M860.4,2115.8c-8.2,0-16.5-0.6-24.8-1.9c-43.5-6.5-81.9-29.6-108.1-65c-15.4-20.8-25.4-44.1-29.8-69.3 c-10.9-62,13.8-123.8,64.4-161.2c35.4-26.2,78.9-37,122.4-30.5s81.9,29.6,108.1,65c26.4,35.7,37.2,79.6,30.3,123.5 c-6.8,43.1-29.8,81-64.9,106.9C929.3,2104.7,895.4,2115.8,860.4,2115.8z M859.9,1814.6c-28.2,0-56.6,8.7-80.9,26.7 c-41.9,31-62.3,82.1-53.3,133.5c3.7,20.8,12,40.1,24.7,57.3l0,0c21.7,29.3,53.4,48.4,89.5,53.8c36,5.4,72-3.5,101.3-25.2 c29-21.4,48.1-52.9,53.7-88.5c5.7-36.4-3.2-72.7-25.1-102.3C943,1833.8,901.7,1814.6,859.9,1814.6z" fill="#371a45"/></g></g></g></g><g opacity=".42"><g><g><g><g><path d="M744,1991.3c17.1,11.8,33.1,21.6,49.9,28.8c16.7,7.3,33.8,12.2,51.2,14.8c17.5,2.6,35.2,2.9,53.3,0.8 c18.2-2,36.4-6.6,56.2-12.8c-11.9,17.1-30,29.7-50.1,37.2c-20.2,7.5-42.5,9.7-64.1,6.4c-21.5-3.2-42.3-11.9-59.4-24.9 C764,2028.5,750.4,2011.1,744,1991.3z" fill="#371a45"/></g></g></g></g></g><g><g><g><g><path d="M344.7,2117.2v-8.1c-0.3-199.6,50.9-397.4,147.9-571.9l31,17.2c-94.1,169.2-143.7,361-143.4,554.6v8.1 L344.7,2117.2z" fill="#371a45"/></g></g></g></g><g><g><g><g><path d="M1380,2466.2l-35.3-3.5l16.4-167.3c14.9-152,53.4-300.2,114.3-440.3l58.4-134.4l32.5,14.1l-58.4,134.4 c-59.4,136.7-97,281.2-111.6,429.6L1380,2466.2z" fill="#371a45"/></g></g></g></g><g><g><g><g><path d="M1802.3,1327c0,0,68.1-17.2,82.4-37.7c14.4-20.5,73-50.1,61-182.9s-14.9-287-14.9-287l-191.7-27.9 l-1.4,473.6L1802.3,1327z" fill="#fff"/></g></g></g><g><g><g><path d="M1801.7,1329.2l-65.9-63.2l1.4-476.8l195.7,28.5v1.7c0,1.5,3.1,155.7,14.9,286.8 c10,111.2-29.7,151.3-51.1,172.8c-4.3,4.3-8,8.1-10.3,11.4c-14.6,20.9-80.8,37.8-83.6,38.5L1801.7,1329.2z M1739.8,1264.3 l63.1,60.5c8.7-2.3,67.4-18.3,80.2-36.6c2.5-3.6,6.3-7.5,10.8-11.9c20.9-21.1,59.8-60.3,49.9-169.6 c-11.2-123.9-14.5-268.2-14.9-285.4l-187.7-27.4L1739.8,1264.3z" fill="#371a45"/></g></g></g></g><g><g><g><g><path d="M1933.3,900.2c-2.5-28.8-4.7-56.4-6.4-81.3l3.9,0.6C1930.8,819.5,1931.5,852.1,1933.3,900.2z" fill="#fff"/></g></g></g><g><g><g><path d="M1931.3,900.4c-2.3-26.2-4.5-53.5-6.4-81.3l-0.2-2.5l8.1,1.2v1.7c0,0.3,0.6,33.2,2.5,80.7L1931.3,900.4z" fill="#371a45"/></g></g></g></g><g opacity=".35"><g><g><g><path d="M1884.7,1289.3c-14.3,20.5-82.4,37.7-82.4,37.7l-64.5-61.8l0.2-81.6l33.3,29.6c0,0,45.3,3.1,101.2-27.4 c18.4-10,58.8-31.2,71.4-100.3c0.5,7,1.2,14,1.8,20.9C1957.7,1239.2,1899.1,1268.8,1884.7,1289.3z" fill="#371a45"/></g></g></g></g><g><g><g><g><path d="M1944,1085.5c-5.4-65.6-8.7-134.2-10.7-185.3c3.1,34.9,6.8,71.4,11.3,106.6 C1948.6,1038.8,1947.8,1064.6,1944,1085.5z" fill="#fff"/></g></g></g><g><g><g><path d="M1943.2,1100.7l-1.2-15.1c-5.6-67.7-8.9-138.1-10.7-185.4l4-0.3c3.4,38.5,7.2,74.4,11.3,106.5 c3.7,29.9,3.5,56.6-0.6,79.3L1943.2,1100.7z M1938.6,973.5c1.5,29.2,3.5,61,5.9,92.7c1.4-17.8,0.8-37.6-1.9-59.1 C1941.2,996.3,1939.9,985.1,1938.6,973.5z" fill="#371a45"/></g></g></g></g><g><g><g><g><path d="M2169.8,815.7C2080.8,842,1809,886,1809,886l-1.7-16.4l-8.3,5c2.4,32.5,7.6,110.6,10.9,205.3 c0,1.6,0.1,3.2,0.2,4.8c0.7,20.2,1.3,41.1,1.7,62.5c2,97.8,1,205-7.5,295c-2.2,23.8-4.5,47.2-6.8,70.1 c-18.8,186.6-44.6,334.6-150.3,315.8c-160.2-28.5-97.6-307.6-145.4-380.6c-38.8-59.2-205.6-105.5-240.8-107.7 c-17.3-1.1-99.9-2.1-195.6,153.8c-99.6,162.3-253.5,99.7-238.2-74.6c11.2-127.5,82.9-222.4,146.2-276.9 c14.8-12.8,29.2-23.4,42.3-31.7c28.3-17.9,52.4-40.9,71.5-67.3c15.7-21.7,27.9-45.8,36.2-71.4c6-18.5,9.8-37.8,11.4-57.7 c8.5-105.9,10-121.1,10-121.1l2.9,0.3l-29.9-194.7l6.6,0.7l661.8,66l-2.4-23.3c0,0,19-2.7,49.3-5.8 c105-10.8,345.8-26.5,403.2,49.8c10.3,13.7,15.2,27.1,15.9,39.7C2254.5,769.9,2205.6,805.1,2169.8,815.7z" fill="#fff"/></g></g></g></g><g opacity=".35"><g><g><g><path d="M2169.8,815.7C2080.8,842,1809,886,1809,886l-1.7-16.4l-8.3,5c2.4,32.5,7.6,110.6,10.9,205.3 c0,1.6,0.1,3.2,0.2,4.8c-16.3,3.2-25.8,5.1-25.8,5.1s-39.8-92.1-22.6-189.4c18.2-102.5,239.6-111.3,352.7-127.1 c94.6-13.2,118.3-51.8,130.8-66.7C2259.5,767.3,2205.6,805.1,2169.8,815.7z" fill="#371a45"/></g></g></g></g><g opacity=".35"><g><g><g><path d="M1825.4,710.6c-41.9,141.5-231.8,209.9-424,153c-150-44.5-257.3-152.2-277.2-264.7l661.8,66l-2.4-23.3 c0,0,19-2.7,49.3-5.8C1835,660.9,1832.7,686,1825.4,710.6z" fill="#293856"/></g></g></g></g><g opacity=".35"><g><g><g><path d="M1647.1,1828c-160.2-28.5-97.6-307.6-145.4-380.6c-38.8-59.2-205.6-105.5-240.8-107.7 c-17.3-1.1-99.9-2.1-195.6,153.8c-99.6,162.3-253.5,99.7-238.2-74.6c11.2-127.5,56.2-174.5,79.7-209.3 c1,0.9-53.4,101.9,36.1,156.4c101.9,62.1,229.5-43.1,280.9-91c17.3-16.1,36.7-27.5,57.1-34.6c9.1-3.2,8.3-16.3-1.2-18.3 l-72.2-15.2c-25-5.2-41.6-27.7-36.9-50l39.8-189.8c4.7-22.3,28.9-36.2,53.9-31l338.4,71c24.9,5.2,41.5,27.7,36.9,50l-5.9,28.2 c42.4,8.4,106.3,15,161.8-3.8c4.8-1.6,9.7-2.1,14.4-1.6c0.7,21.7,1.4,44.2,1.9,67.3c-36.6,13.2-105,29.3-193.4,11.2 l-18.6,88.6c-4.7,22.3-28.9,36.2-53.9,31l-74.6-15.7c-9.7-2.1-15.8,10.4-8.1,16.7c24.3,19.7,45.3,45,60.3,75 c52.2,104.1,13.9,179.6,109.4,237.4c85.3,51.7,143.6,10.7,164.6-79C1778.6,1698.8,1752.9,1846.9,1647.1,1828z" fill="#371a45"/></g></g></g></g><g><g><g><g><path d="M1803.5,899.4c-7.5,0-14.1-5.5-15.3-13.2c-1.3-8.5,4.5-16.3,13-17.6c2.8-0.4,277.3-42,364.2-67.8 c26.7-7.9,59.9-30.9,68.8-57.9c5.3-15.9,1.8-31.6-10.5-48c-56.2-74.7-335.2-52.7-438-38c-8.5,1.2-16.3-4.7-17.5-13.1 c-1.2-8.5,4.7-16.3,13.1-17.5c1-0.1,96.8-13.7,200.5-15c143-1.8,232.8,20.1,266.6,65.1c23.2,30.8,21,58.5,15.2,76.3 c-12.9,39.2-55.4,67.9-89.5,77.9c-89,26.3-357,67-368.4,68.7C1805,899.3,1804.2,899.4,1803.5,899.4z" fill="#371a45"/></g></g></g></g><g><g><g><g><path d="M2008.2,626.7c0,0,13.5,164.7,33.3,218.1L2008.2,626.7z" fill="#fff"/></g></g></g><g><g><g><path d="M2041.5,860.2c-6.3,0-12.2-3.9-14.5-10.1c-20.3-54.7-33.7-215.4-34.2-222.2c-0.7-8.5,5.6-16,14.2-16.7 c8.6-0.7,16,5.6,16.7,14.2c0.1,1.6,13.5,163.2,32.4,213.9c3,8-1.1,16.9-9.1,19.9C2045.1,859.9,2043.3,860.2,2041.5,860.2z" fill="#371a45"/></g></g></g></g><g><g><g><g><path d="M1183.4,641c38.9,52.7,91.2,96,153.6,124.1c12.7,5.7,25.8,10.8,39.3,15.2c6.6,2.2,13.3,4.2,20,6 c20.5,5.5,41,9.3,61.4,11.5c17.6,1.9,35.2,2.5,52.5,2c21-0.6,41.7-2.9,62-6.8c7.4-1.4,14.7-3.1,22-4.9 c133.1-33.6,244.6-136.2,282.9-278.1c56.5-209.1-67.2-424.4-276.2-480.9c-40.3-10.9-80.8-15.1-120.4-13.2 c-4.6,0.2-9.3,0.5-13.9,0.9c-12.4,1-24.6,2.6-36.7,4.7c-28,5-55.2,13-81.2,23.8c-26,10.7-50.7,24.3-73.8,40.3 c-7.3,5.1-14.5,10.4-21.5,16c-10.5,8.4-20.5,17.3-30.2,26.8c-48,47.2-84.5,107.3-103.3,177 C1087.6,425.7,1114.7,548,1183.4,641z" fill="#fff"/></g></g></g></g><g><g><g><g><path d="M1814.5,1335.1c-7.6,0-14.2-5.6-15.3-13.3c-1.2-8.5,4.7-16.3,13.2-17.5c72-10,124.8-80.9,120-161.5 l-16.2-274.7c-0.5-8.5,6-15.9,14.5-16.4s15.9,6,16.4,14.5l16.2,274.7c5.7,96.6-58.7,181.8-146.6,194 C1815.9,1335.1,1815.2,1335.1,1814.5,1335.1z" fill="#371a45"/></g></g></g></g><g opacity=".35"><g><g><g><path d="M1183.4,641c38.9,52.7,91.2,96,153.6,124.1c12.7,5.7,25.8,10.8,39.3,15.2c6.6,2.2,13.3,4.2,20,6 c20.5,5.5,41,9.3,61.4,11.5c17.6,1.9,35.2,2.5,52.5,2c21-0.6,41.7-2.9,62-6.8c7.4-1.4,14.7-3.1,22-4.9 c133.1-33.6,244.6-136.2,282.9-278.1c20.5-75.8,17.3-152.4-5.1-222c-0.7,31-5.1,62.4-13.6,93.6 c-14.4,53.2-49.5,78.5-81.7,119.1c-53.7,67.6-118,138-201.2,159c-7.3,1.8-14.6,3.5-22,4.9c-20.3,3.9-41,6.2-62,6.8 c-17.4,0.5-34.9-0.1-52.5-2c-20.4-2.1-41-5.9-61.4-11.5c-6.8-1.9-13.5-3.9-20-6c-13.5-4.4-26.6-9.5-39.3-15.2 c-62.4-28.1-114.6-71.3-153.6-124.1c-25.4-34.4-45.1-72.8-58.2-113.7C1104.5,487.2,1132.5,572.1,1183.4,641z" fill="#293856"/></g></g></g><g><g><g><path d="M1499.1,802c-14,0-27.9-0.7-41.5-2.2c-20.7-2.2-41.4-6-61.7-11.5c-7.5-2.1-14.1-4.1-20.1-6.1 c-13.3-4.3-26.6-9.5-39.5-15.3c-61.1-27.5-114.5-70.6-154.4-124.7l0,0c-51.8-70.2-79.3-156.6-77.3-243.3l0.3-11.9l3.6,11.3 c13,40.6,32.5,78.7,57.9,113.1c39.5,53.5,92.4,96.2,152.8,123.4c12.8,5.8,26,10.9,39.1,15.2c6,2,12.5,4,19.9,6 c20.1,5.4,40.6,9.3,61.1,11.4c17.2,1.8,34.7,2.5,52.3,2c20.5-0.6,41.3-2.8,61.7-6.7c7.3-1.4,14.7-3.1,21.9-4.9 c81.8-20.7,144.5-88.3,200.1-158.3c8.6-10.9,17.5-20.6,26-30.1c23.1-25.5,44.9-49.7,55.3-88.3c8.2-30.5,12.8-61.8,13.5-93.1 l0.3-11.9l3.6,11.3c23.2,72.3,25,149.4,5.1,223.1C1842,648,1733,755.1,1594.7,790c-7.3,1.8-14.7,3.5-22.1,4.9 c-20.6,3.9-41.6,6.2-62.3,6.8C1506.6,801.9,1502.8,802,1499.1,802z M1108.4,410.9c0.6,81.8,27.6,162.7,76.6,228.9l0,0 c39.5,53.5,92.4,96.2,152.8,123.4c12.8,5.8,26,10.9,39.1,15.2c6,2,12.5,4,19.9,6c20.1,5.4,40.6,9.3,61.1,11.4 c17.2,1.8,34.7,2.5,52.3,2c20.5-0.6,41.3-2.8,61.7-6.7c7.3-1.4,14.7-3.1,21.9-4.9c136.9-34.6,244.7-140.6,281.5-276.7 c18.7-69.1,18.1-141.2-1.6-209.5c-1.5,27.7-5.9,55.3-13.2,82.2c-10.7,39.5-32.8,64-56.2,89.9c-8.5,9.4-17.3,19.1-25.9,29.9 c-56,70.6-119.3,138.8-202.3,159.7c-7.3,1.8-14.7,3.5-22.1,4.9c-20.6,3.9-41.6,6.2-62.3,6.8c-17.7,0.5-35.5-0.2-52.8-2 c-20.7-2.2-41.4-6-61.7-11.5c-7.5-2.1-14.1-4-20.1-6.1c-13.3-4.3-26.6-9.5-39.5-15.3c-61.1-27.5-114.5-70.6-154.4-124.7 C1139.9,482.2,1121.5,447.7,1108.4,410.9z" fill="#371a45"/></g></g></g></g><g><g><g><g><path d="M1499.1,815.5c-14.4,0-28.8-0.8-43-2.3c-21.4-2.2-42.8-6.3-63.8-11.9c-7.7-2.1-14.5-4.2-20.9-6.3 c-13.7-4.5-27.4-9.8-40.8-15.8c-63.2-28.5-118.4-73.1-159.7-129l0,0c-74.5-100.8-98.4-228-65.8-348.8 c18.9-69.9,56-133.5,107.4-184c9.7-9.6,20.2-18.9,31.3-27.8c7.1-5.7,14.7-11.3,22.4-16.7c23.9-16.6,49.8-30.7,76.7-41.9 c27.2-11.3,55.6-19.6,84.4-24.8c12.6-2.2,25.4-3.9,38.2-4.9c5-0.4,9.9-0.8,14.6-0.9c41.7-2,83.8,2.7,125,13.8 c217,58.7,345.8,282.9,287.1,499.9c-38.4,142.2-151.1,252.9-294.1,289.1c-7.6,1.9-15.2,3.6-22.8,5.1 c-21.4,4.1-43.1,6.5-64.5,7.1C1506.8,815.4,1503,815.5,1499.1,815.5z M1195.8,631.8c38.1,51.7,89.2,92.9,147.5,119.1 c12.4,5.6,25.1,10.5,37.8,14.7c5.9,2,12.2,3.8,19.3,5.8c19.3,5.2,39.1,8.9,58.9,11c16.6,1.8,33.6,2.4,50.5,2 c19.8-0.6,39.8-2.7,59.5-6.5c7-1.4,14.2-2.9,21.2-4.7c132.1-33.4,236.3-135.7,271.8-267.1c54.2-200.5-64.8-407.7-265.3-461.9 c-38-10.3-76.9-14.5-115.6-12.7c-4.3,0.2-8.7,0.4-13.3,0.8c-11.9,1-23.8,2.5-35.4,4.6c-26.6,4.8-52.9,12.4-78,22.9 c-24.9,10.3-48.8,23.3-70.9,38.7c-7.1,4.9-14.1,10.1-20.6,15.4c-10.2,8.2-20,16.9-28.9,25.7c-47.5,46.6-81.8,105.4-99.2,170 C1104.9,421.1,1127,538.6,1195.8,631.8L1195.8,631.8z" fill="#371a45"/></g></g></g></g><g><g><g><g><path d="M1499.1,815.5c-14.4,0-28.8-0.8-43-2.3c-21.4-2.2-42.8-6.3-63.8-11.9c-7.7-2.1-14.5-4.2-20.9-6.3 c-13.7-4.5-27.4-9.8-40.8-15.8c-63.2-28.5-118.4-73.1-159.7-129l0,0c-74.5-100.8-98.4-228-65.8-348.8 c18.9-69.9,56-133.5,107.4-184c9.7-9.6,20.2-18.9,31.3-27.8c7.1-5.7,14.7-11.3,22.4-16.7c23.9-16.6,49.8-30.7,76.7-41.9 c27.2-11.3,55.6-19.6,84.4-24.8c12.6-2.2,25.4-3.9,38.2-4.9c5-0.4,9.9-0.8,14.6-0.9c41.7-2,83.8,2.7,125,13.8 c217,58.7,345.8,282.9,287.1,499.9c-38.4,142.2-151.1,252.9-294.1,289.1c-7.6,1.9-15.2,3.6-22.8,5.1 c-21.4,4.1-43.1,6.5-64.5,7.1C1506.8,815.4,1503,815.5,1499.1,815.5z M1195.8,631.8c38.1,51.7,89.2,92.9,147.5,119.1 c12.4,5.6,25.1,10.5,37.8,14.7c5.9,2,12.2,3.8,19.3,5.8c19.3,5.2,39.1,8.9,58.9,11c16.6,1.8,33.6,2.4,50.5,2 c19.8-0.6,39.8-2.7,59.5-6.5c7-1.4,14.2-2.9,21.2-4.7c132.1-33.4,236.3-135.7,271.8-267.1c54.2-200.5-64.8-407.7-265.3-461.9 c-38-10.3-76.9-14.5-115.6-12.7c-4.3,0.2-8.7,0.4-13.3,0.8c-11.9,1-23.8,2.5-35.4,4.6c-26.6,4.8-52.9,12.4-78,22.9 c-24.9,10.3-48.8,23.3-70.9,38.7c-7.1,4.9-14.1,10.1-20.6,15.4c-10.2,8.2-20,16.9-28.9,25.7c-47.5,46.6-81.8,105.4-99.2,170 C1104.9,421.1,1127,538.6,1195.8,631.8L1195.8,631.8z" fill="#371a45"/></g></g></g></g><g><g><g><g><path d="M1253,713.5c249.9,127,543.4-29.9,521.1-306.6c-15.1-188.2-211.2-318.8-391-292.6 c-130.9,19-250.4,94.8-276.4,306.1c0,0,2.9,95.3,37.1,154.2c34.2,58.9,77.5,110.4,77.5,110.4L1253,713.5z" fill="#293856"/></g></g></g><g><g><g><path d="M1436.3,760.1c-62,0-125.3-14.9-184.2-44.8l-0.4-0.3l-31.7-28.5c-0.6-0.7-43.9-52.5-77.8-110.9 c-34.1-58.7-37.4-154.2-37.4-155.1c22.3-181,115.9-284.6,278.2-308.1c93.4-13.5,195.4,15.2,272.8,76.9 c71,56.6,113.8,133.9,120.5,217.5c9.7,121.1-40.7,228.1-138.5,293.6C1578.3,740.1,1508.2,760.1,1436.3,760.1z M1254.1,711.8 c126.1,64,272.1,58.3,381.2-14.8c96.5-64.7,146.4-170.4,136.7-289.9c-6.6-82.6-48.9-158.8-119-214.7 c-76.6-61.1-177.4-89.5-269.7-76.1C1223,139.6,1130.6,242,1108.6,420.7c0,0.6,3.3,95.2,36.9,152.9 c33.7,58.1,76.8,109.6,77.3,110.1L1254.1,711.8z" fill="#371a45"/></g></g></g></g><g opacity=".35"><g><g><g><path d="M1122.2,451.7c0.5,5.7,1.4,11.3,2.5,16.7c13.4,66.8,37.6,129.6,37.6,129.6l20.8,37.2 c195.4,200.9,523.9,147.3,592.2-121.7c4.4-17.4,7.1-34.8,8.2-52.1c-141.6,202-451.6,215.7-648.7,13.1L1122.2,451.7z" fill="#111a28"/></g></g></g></g><g><g><g><g><path d="M1457.4,809.8l-0.9-0.1c-21.2-2.2-42.5-6.2-63.3-11.8c-7.6-2.1-14.4-4.1-20.7-6.2 c-13.6-4.5-27.2-9.7-40.5-15.7c-62.6-28.2-117.4-72.4-158.3-127.9l0,0c-73.8-100-97.6-226-65.2-345.8 c18.7-69.3,55.5-132.4,106.4-182.4l0.9-0.9l1-0.7c43.9-28.1,96.7-46.8,157.1-55.5c107.6-15.6,225,17.5,314.1,88.5 c81.9,65.3,131.3,154.6,139.1,251.3c8.4,105.1-21.7,200.2-87,274.9c-68.3,78.1-171,126.3-281.8,132.2L1457.4,809.8z M1193,633.9c38.5,52.1,90,93.7,148.9,120.3c12.5,5.6,25.3,10.6,38.1,14.8c6,2,12.3,3.9,19.5,5.9c19.2,5.2,38.9,8.9,58.5,11 c103.9-5.8,200.1-50.9,264-124c61-69.8,89.1-158.7,81.2-257.2c-7.2-90.1-53.5-173.4-130.1-234.5c-84-67-194.5-98.2-295.7-83.5 c-56.5,8.2-105.8,25.5-146.5,51.3c-47.4,46.9-81.7,105.9-99.2,170.7C1101.2,421.2,1123.6,539.8,1193,633.9L1193,633.9z" fill="#371a45"/></g></g></g></g><g><g><g><g><path d="M1436.3,773.6c-64,0-129.4-15.4-190.3-46.3l-1.8-0.9l-34.8-31.4c-1.8-2.1-44.5-53.2-79-112.6 c-35.8-61.6-39.1-157.4-39.2-161.5v-1.2l0.1-1.2c23.1-187.5,120.5-295,289.6-319.5c97-14.1,202.8,15.7,283.1,79.7 c73.9,59,118.5,139.6,125.6,227c10.1,126.1-42.5,237.5-144.4,305.8C1583.5,752.8,1510.8,773.6,1436.3,773.6z M1261.8,700.6 c121.4,60.9,261.5,55.3,366.1-14.8c92.4-61.9,140-163.1,130.8-277.7c-6.3-78.8-46.8-151.7-114-205.3 c-73.7-58.8-170.7-86.2-259.4-73.3c-155.3,22.6-241.4,117.9-263.2,291.4c0.5,10.7,5.1,94.3,35,145.8 c30.8,53.1,69.7,100.7,75.3,107.4L1261.8,700.6z" fill="#371a45"/></g></g></g></g><g><g><g><g><ellipse cx="1846.9" cy="450.8" fill="#fff" rx="140.2" ry="101.9" transform="matrix(.06037 -.9982 .9982 .06037 1285.351 2267.103)"/></g></g></g><g><g><g><path d="M1842.6,606.5c-24.8,0-48.1-10-67.6-28.9c-29.5-28.6-46.2-73.4-45.8-122.9 c0.7-85.4,53.6-156.9,118.1-159.3c26.1-1,50.7,9,71.2,28.9c29.5,28.6,46.2,73.4,45.8,122.9l0,0 c-0.7,85.4-53.6,156.9-118.1,159.3C1845,606.5,1843.8,606.5,1842.6,606.5z M1850.8,326.2c-0.8,0-1.5,0-2.3,0 c-48.1,1.9-87.8,59.6-88.3,128.7c-0.3,40.4,13.3,78,36.4,100.4c14.3,13.9,31.1,20.8,48.5,20.1c48.1-1.9,87.8-59.6,88.3-128.7 c0.3-40.4-13.3-78-36.4-100.4C1883.3,333.2,1867.4,326.2,1850.8,326.2z M1948.8,446.9L1948.8,446.9L1948.8,446.9z" fill="#371a45"/></g></g></g></g><g><g><g><g><ellipse cx="1879.4" cy="465.1" fill="#fff" rx="113.4" ry="83" transform="rotate(-84.576 1879.368 465.087) scale(.99998)"/></g></g></g></g><g opacity=".35"><g><g><g><path d="M1799.3,505c-5-20.5-4.4-42.4,0.8-63c15.3,45.8,56.6,64.7,95.9,42.3c25.4-14.5,44.1-42.9,52-74.8 c1,2.9,1.8,5.9,2.6,9c12.6,52.2-11,113.8-52.7,137.7C1856,580.1,1811.9,557.1,1799.3,505z" fill="#371a45"/></g></g></g></g><g><g><g><g><path d="M1876.1,586.2c-17.7,0-34.5-7.2-48.7-20.9c-23.4-22.6-37-60.6-36.5-101.9c0.8-70.4,40.3-127.3,89.9-129.6 c18.8-0.8,36.7,6.3,51.7,20.8c23.4,22.6,37,60.6,36.5,101.9l0,0c-0.8,70.4-40.3,127.3-89.9,129.6 C1878.1,586.2,1877.1,586.2,1876.1,586.2z M1883.8,357.7c-0.6,0-1.2,0-1.9,0c-35.6,1.7-66.3,50.2-67,105.9 c-0.4,34.8,10.5,66.3,29.2,84.3c7.1,6.8,18.8,14.8,33.9,14.1c35.6-1.7,66.3-50.2,67-105.9c0.4-34.8-10.5-66.3-29.2-84.3 C1909,365.3,1898.1,357.7,1883.8,357.7z M1957,456.4L1957,456.4L1957,456.4z" fill="#371a45"/></g></g></g></g><g opacity=".7"><g><g><g><ellipse cx="1651" cy="380.2" fill="#fff" rx="58.7" ry="50.3" transform="rotate(-83.108 1651 380.23)"/></g></g></g></g><g opacity=".7"><g><g><g><ellipse cx="1647.7" cy="503.9" fill="#fff" rx="24.2" ry="20.8" transform="rotate(-78.264 1647.707 503.884)"/></g></g></g></g><g opacity=".7"><g><g><g><path d="M1161.1,461.5c0,0-30.8-205.9,77.2-272.8c108-66.9,241.6-42.5,237.4-33.4c0,0-165.4,25.9-239.5,148.9 C1179.1,399.1,1161.1,461.5,1161.1,461.5z" fill="#fff"/></g></g></g></g><g><g><g><g><path d="M1462.4,517.7c-18,52.3-89.2,91.6-131.9,94.7c-53.2,3.7-156.5,13-182.1,24.6c-2.3,1-4,2.1-4.9,3.2 l1.2,152.5c-188.8-81.5-213.5-179.5-199.9-250.9c15.8-82.9,79.3-131,130-149c52.9-18.8,306.9-81.2,382.8,64.7 C1468.5,478.6,1468.9,499,1462.4,517.7z" fill="#fff"/></g></g></g></g><g opacity=".35"><g><g><g><path d="M1462.4,517.7c-18,52.3-89.2,91.6-131.9,94.7c-53.2,3.7-171.3,29-196.9,40.6 c-46.4-44.8,4.2-99.6,70.4-97C1276.9,558.8,1405.2,573.8,1462.4,517.7z" fill="#293856"/></g></g></g><g><g><g><path d="M1133.2,655.4l-1-0.9c-17.8-17.1-23.1-37.1-14.9-56.3c11.6-27.1,48.1-45.7,86.8-44.2 c8.8,0.3,18.3,0.9,28.4,1.4c75.4,4.1,178.7,9.7,228.4-39l6-5.9l-2.8,8c-18.6,54.1-91.6,93-133.6,96 c-53.5,3.8-171.1,29-196.2,40.4L1133.2,655.4z M1199.7,557.9c-35.5,0-68.1,17.2-78.7,41.9c-7.3,17.2-2.7,35.2,13,50.9 c27.8-11.8,143.4-36.5,196.3-40.2c38.9-2.8,104.9-37,127-85.4c-53,43.7-151.9,38.4-225,34.4c-10.1-0.5-19.6-1.1-28.4-1.4 C1202.5,557.9,1201.1,557.9,1199.7,557.9z" fill="#371a45"/></g></g></g></g><g><g><g><g><path d="M1144.7,808.2c-2,0-4.1-0.4-6.1-1.3c-198.6-85.8-223.3-193.1-209-268c16.8-87.8,83.3-140.5,140-160.7 c79.7-28.3,324.7-75.8,401.7,72.1c15.2,29.2,14.4,60.3-2.2,90c-27.1,48.4-93,84.3-137.5,87.5 c-102.6,7.2-166.6,17.3-177.5,23.5c-5.8,5.5-14.9,5.7-20.9,0.3c-6.4-5.7-7-15.5-1.3-21.8c4.9-5.5,18-20.2,197.6-32.9 c31.5-2.2,89.6-30.6,112.7-71.7c11.4-20.4,12-40.8,1.7-60.6c-68-130.6-304.4-78.4-363.9-57.3c-48.6,17.3-105.7,62.4-120,137.3 c-17.7,92.8,46.5,171.5,190.8,233.8c7.8,3.4,11.5,12.5,8.1,20.3C1156.4,804.7,1150.7,808.2,1144.7,808.2z M1155,650.4 C1155,650.5,1155,650.5,1155,650.4C1155,650.5,1155,650.5,1155,650.4z" fill="#371a45"/></g></g></g></g><g><g><g><g><path d="M1664.6,1845.1c-6.5,0-13.3-0.6-20.2-1.8c-117.4-20.9-126.9-156.7-134.5-265.8 c-3.6-51.4-7-99.9-21.2-121.5c-33.6-51.3-180.2-97-217.4-99.3c-23.4-1.5-106.7,4.6-192.9,145c-58.4,95-130.6,111.9-178.7,96 c-61.3-20.3-95.9-91-88.1-180.1c13.4-153.4,113.7-268.4,195.5-320.4c64.1-40.7,105.9-109.7,111.9-184.6 c8.4-104.8,14-165.3,14-165.9c0.8-8.5,8.3-14.8,16.8-14s14.8,8.3,14,16.8c-0.1,0.6-5.6,61-14,165.6 c-6.8,84.6-54,162.4-126.2,208.3c-75.8,48.1-168.8,154.8-181.3,296.9c-6.5,74.4,19.8,132.5,67,148.1 c47,15.6,101.7-16.2,142.6-82.8c92.6-150.8,185.5-162,221.2-159.7c37.3,2.3,198.7,48.2,241.4,113.2 c18.6,28.3,22.1,78.4,26.1,136.3c7.3,103.5,15.5,220.9,109.1,237.5c20.4,3.6,37.2,0.1,51.6-10.8 c57.6-43.8,72.1-198,87.4-361.3c21.6-229.6-0.6-552.5-0.8-555.7c-0.6-8.5,5.8-15.9,14.4-16.5c8.5-0.6,15.9,5.8,16.5,14.4 c0.2,3.3,22.6,328.6,0.8,560.8c-16.7,177.6-31.1,331-99.5,383C1704,1838.9,1685.3,1845.1,1664.6,1845.1z" fill="#371a45"/></g></g></g></g><g><g><g><g><path d="M1236.9,636.4c-4.6,0-9.1-2-12.1-5.9c-80.2-101.3-34.1-259.3-32.1-266c2.5-8.2,11.1-12.8,19.3-10.4 c8.2,2.5,12.8,11.1,10.4,19.3c-0.6,1.9-43.3,149.5,26.7,237.9c5.3,6.7,4.2,16.4-2.5,21.7 C1243.6,635.3,1240.2,636.4,1236.9,636.4z" fill="#371a45"/></g></g></g></g><g><g><g><g><path d="M1114.3,1439.9c-5.7,0-11.2-3.2-13.9-8.7c-65-132.1-221-162.8-222.6-163.1c-8.4-1.6-13.9-9.7-12.4-18.1 c1.6-8.4,9.7-13.9,18.1-12.4c7,1.3,172.9,34,244.6,179.9c3.8,7.7,0.6,16.9-7.1,20.7C1119,1439.4,1116.6,1439.9,1114.3,1439.9z" fill="#371a45"/></g></g></g></g><g><g><g><g><path d="M1789.7,1598.4c-5.1,0-10-2.5-13-7c-66.7-102.6-246.8-37.1-248.6-36.5c-8,3-16.9-1.1-19.9-9.1 s1.1-16.9,9.1-19.9c8.3-3.1,205.1-74.8,285.4,48.6c4.7,7.2,2.6,16.8-4.5,21.4C1795.5,1597.6,1792.5,1598.4,1789.7,1598.4z" fill="#371a45"/></g></g></g></g><g><g><g><g><path d="M1707.1,1134.7c-28.2,0-59.5-3.1-93.5-11c-27.9-6.5-45.4-33.6-39.9-61.6c2.8-14.1,10.9-26.1,22.9-34 c12-7.8,26.3-10.5,40.3-7.4c36.3,8,106,18.6,164.2-1.1c14.7-5,30.4-2.9,43.2,5.8c12.8,8.6,20.6,22.5,21.5,37.9 c1.2,21.2-11.2,40.7-30.9,48.4C1809.2,1121.7,1764.9,1134.7,1707.1,1134.7z M1625.3,1050.5c-4.2,0-8.3,1.2-11.9,3.6 c-4.9,3.2-8.3,8.2-9.4,14c-2.3,11.6,5,22.8,16.6,25.5c95.6,22.4,168.1,3,202.9-10.6c7.2-2.8,11.8-10,11.3-17.8 c-0.3-5.7-3.2-10.8-7.9-14s-10.5-4-16-2.1c-62.1,21-132.6,12.7-180.8,2.1l0,0C1628.5,1050.6,1626.9,1050.5,1625.3,1050.5z" fill="#371a45"/></g></g></g></g><g><g><g><g><path d="M1494.4,1210.4c-3.2,0-6.3-0.3-9.5-0.9l-285-52.6c-29.5-5.4-48.8-34.9-43.1-65.8l35.2-190.7 c5.7-30.8,34.3-51.5,63.7-46l285,52.6c29.5,5.4,48.8,34.9,43.1,65.8l-35.2,190.7c-2.7,14.7-10.7,27.6-22.6,36.3 C1516.6,1206.8,1505.6,1210.4,1494.4,1210.4z M1246.2,884.6c-11.3,0-21.5,9-23.8,21.6l-35.2,190.7c-2.6,14,5.6,27.4,18.3,29.7 l285,52.6c5.9,1.1,12-0.4,17.2-4.2c5.5-4,9.2-10.1,10.5-17l35.2-190.7c2.6-14-5.6-27.4-18.3-29.7l-285-52.6 C1248.7,884.7,1247.4,884.6,1246.2,884.6z M1568.6,970L1568.6,970L1568.6,970z" fill="#371a45"/></g></g></g></g><g><g><g><g><path d="M1568.6,970l-35.2,190.7c-4.1,22.4-24.7,37.5-45.7,33.6l-285-52.6c-21-3.9-34.8-25.4-30.7-47.7 l35.2-190.7c4.1-22.4,24.7-37.5,45.7-33.6l285,52.6C1558.9,926.1,1572.7,947.6,1568.6,970z" fill="#fff"/></g></g></g><g><g><g><path d="M1494.3,1196.9c-2.3,0-4.7-0.2-7-0.6l-285-52.6c-22.2-4.1-36.7-26.5-32.3-50.1l35.2-190.7 c4.3-23.5,25.9-39.3,48-35.2l285,52.6c22.2,4.1,36.7,26.5,32.3,50.1l-35.2,190.7c-2.1,11.3-8.2,21.2-17.3,27.9 C1510.9,1194.2,1502.7,1196.9,1494.3,1196.9z M1246.2,871.1c-17.6,0-33.6,13.5-37.1,32.6l-35.2,190.7 c-3.9,21.3,9.1,41.7,29.1,45.4l285,52.6c9.6,1.8,19.4-0.6,27.6-6.6c8.2-6.1,13.8-15.1,15.7-25.4l35.2-190.7 c3.9-21.3-9.1-41.7-29.1-45.4l-285-52.6C1250.3,871.3,1248.2,871.1,1246.2,871.1z" fill="#371a45"/></g></g></g></g><g opacity=".35"><g><g><g><path d="M1490.7,1202.6l-285-52.6c-21-3.9-34.9-25.4-30.7-47.7l35.2-190.7c1.7-9.4,6.4-17.5,12.7-23.5 l-25.7,139.2c-4.1,22.4,8.8,43.7,28.7,47.3l222.5,41.1c-9.2-11.7-13.4-29.3-9.8-47.7c5.7-29.3,29-49.5,51.9-45 c23,4.5,37,31.9,31.3,61.2c-3.5,18.1-13.7,32.7-26.4,40.2h0.3c19.9,3.7,39.5-11.6,43.7-34l26.3-142.9 c5.5,8.6,7.9,19.6,5.9,30.7l-35.2,190.7C1532.3,1191.3,1511.7,1206.4,1490.7,1202.6z" fill="#371a45"/></g></g></g></g><g><g><g><g><path d="M1629.5,981.2l-35.2,190.7c-4.1,22.4-24.7,37.5-45.7,33.6l-60.9-11.2c21,3.9,41.6-11.3,45.7-33.6 l35.2-190.7c4.1-22.4-9.7-43.8-30.7-47.7l60.9,11.2C1619.8,937.4,1633.6,958.8,1629.5,981.2z" fill="#fff"/></g></g></g><g><g><g><path d="M1555.2,1208.2c-2.3,0-4.7-0.2-7-0.6l-60.9-11.2l0,0l0.7-3.9h0.1c9.6,1.7,19.4-0.6,27.6-6.6 c8.2-6.1,13.8-15.1,15.7-25.4l35.2-190.7c3.9-21.3-9.1-41.7-29.1-45.4l0.7-3.9l0,0l60.9,11.2c22.2,4.1,36.7,26.5,32.3,50.1 l-35.2,190.7c-2.1,11.3-8.2,21.2-17.3,27.9C1571.8,1205.4,1563.6,1208.2,1555.2,1208.2z M1504.9,1195.5l44,8.1 c9.6,1.8,19.4-0.6,27.6-6.6c8.2-6.1,13.8-15.1,15.7-25.4l35.2-190.7l2,0.4l-2-0.4c3.9-21.3-9.1-41.7-29.1-45.4l-44-8.1 c12.5,9.3,19.4,25.9,16.2,43l-35.2,190.7c-2.1,11.3-8.2,21.2-17.3,27.9C1514,1192,1509.5,1194.1,1504.9,1195.5z" fill="#371a45"/></g></g></g></g><g opacity=".35"><g><g><g><path d="M1548.5,1205.6l-60.9-11.2c21,3.9,41.6-11.3,45.7-33.6l8.5-45.8l32.9,6c11,2,21.9-1.2,30.4-7.9 l-10.9,58.8C1590.1,1194.3,1569.6,1209.4,1548.5,1205.6z" fill="#371a45"/></g></g></g></g><g><g><g><g><path d="M1555.3,1220.2c-3.1,0-6.2-0.3-9.2-0.8l-60.9-11.2l0,0l5.1-27.5l0,0c6.3,1.2,12.8-0.4,18.3-4.5 c5.8-4.3,9.7-10.6,11.1-17.9l35.2-190.7c2.7-14.8-6-28.9-19.4-31.4l0,0l0,0l5.1-27.5l60.9,11.2c28.7,5.3,47.5,34,41.9,64 l-35.2,190.7c-2.6,14.3-10.5,26.9-22,35.4C1576.8,1216.6,1566.2,1220.2,1555.3,1220.2z M1535.4,1188.9l15.7,2.9 c6.3,1.2,12.8-0.4,18.4-4.5c5.8-4.3,9.7-10.6,11.1-17.9l35.2-190.7l13.8,2.5l-13.8-2.5c2.7-14.8-6-28.9-19.5-31.4l-15.7-2.9 c2.9,8.7,3.6,18.4,1.8,28.2l-35.2,190.7C1545.4,1172.8,1541.3,1181.6,1535.4,1188.9z" fill="#371a45"/></g></g></g></g><g><g><g><g><path d="M1633.4,1035.9c41.8,9.3,112.1,18.9,172.5-1.6c21-7.1,43.1,7.7,44.3,29.9l0,0 c0.8,14.4-7.7,27.8-21.1,33.1c-35.7,14-111.9,34.8-212,11.3c-19.6-4.6-32.2-23.8-28.3-43.5l0,0 C1592.9,1044.5,1613,1031.4,1633.4,1035.9z" fill="#fff"/></g></g></g></g><g opacity=".35"><g><g><g><path d="M1848.9,1075.7c-2.9,9.7-10,17.8-19.8,21.6c-35.7,14-111.9,34.8-212,11.3c-19.6-4.6-32.1-23.8-28.3-43.5 c0.2-1.2,0.5-2.3,0.8-3.5c0.5-1.7,1.2-3.4,1.9-5c4.3,11.3,14,20.3,26.6,23.2c100.1,23.5,176.3,2.7,212-11.3 c7.7-3,13.8-8.7,17.4-15.7c1.5,3.5,2.4,7.3,2.7,11.4C1850.5,1068.1,1850,1072,1848.9,1075.7z" fill="#371a45"/></g></g></g></g><g><g><g><g><path d="M1707.1,1133.2c-28,0-59.3-3.1-93.2-11c-27.1-6.4-44.2-32.7-38.8-59.9c2.7-13.7,10.6-25.4,22.2-33 c11.6-7.6,25.5-10.2,39.1-7.2c36.5,8.1,106.4,18.6,165-1.2c14.2-4.8,29.5-2.8,41.9,5.6c12.4,8.4,20,21.8,20.9,36.7 c1.2,20.6-10.9,39.5-30,46.9C1808.8,1120.3,1764.7,1133.2,1707.1,1133.2z M1625.3,1049c-4.5,0-8.8,1.3-12.7,3.8 c-5.3,3.5-8.9,8.8-10.1,15c-2.4,12.3,5.4,24.3,17.8,27.2c96,22.5,168.9,3,203.7-10.7c7.8-3.1,12.7-10.8,12.3-19.3 c-0.3-6.2-3.5-11.7-8.6-15.1c-5.1-3.5-11.4-4.3-17.3-2.3c-61.8,20.9-132,12.6-180,2l0,0C1628.7,1049.2,1627,1049,1625.3,1049z" fill="#371a45"/></g></g></g></g><g opacity=".35"><g><g><g><path d="M1171.2,1067.2c0,0-34.1-7.3-67.2-15.6c-6.5-1.6-12.2-4.6-17-8.6c15.7-21.7,27.9-45.8,36.2-71.4 c0.6,0.1,1.2,0.3,1.8,0.4c23.1,6.5,49.5,13.3,60.4,14.4L1171.2,1067.2z" fill="#371a45"/></g></g></g></g><g><g><g><g><path d="M1201.1,933.5l-14.2,80.8c0,0-34.1-7.3-67.2-15.6c-23-5.8-36.9-28.7-31-50.9l0,0 c5.9-22.1,29.2-35.1,52-28.7C1163.8,925.5,1190.2,932.4,1201.1,933.5z" fill="#fff"/></g></g></g></g><g opacity=".35"><g><g><g><path d="M1186.9,1014.3c0,0-34.1-7.3-67.2-15.6c-22.9-5.8-36.9-28.7-31.1-50.9l0.3-1.1c2-6.8,5.7-12.7,10.5-17.4 c3.4,14.9,15.1,27.6,31.4,31.7c26.1,6.6,52.7,12.4,62.8,14.7L1186.9,1014.3z" fill="#371a45"/></g></g></g></g><g><g><g><g><path d="M1494.4,1208.9c-3.1,0-6.2-0.3-9.2-0.8l-285-52.6c-28.7-5.3-47.5-34-41.9-64l35.2-190.7 c5.5-30,33.3-50.2,62-44.9l285,52.6c28.7,5.3,47.5,34,41.9,64l-35.2,190.7c-2.6,14.3-10.5,26.9-22,35.4 C1515.9,1205.4,1505.3,1208.9,1494.4,1208.9z M1246.2,883.1c-12,0-22.8,9.5-25.3,22.8l-35.2,190.7c-2.7,14.8,6,28.9,19.5,31.4 l285,52.6c6.3,1.2,12.8-0.4,18.4-4.5c5.8-4.3,9.7-10.6,11.1-17.9l35.2-190.7l13.8,2.5l-13.8-2.5c2.7-14.8-6-28.9-19.5-31.4 l-285-52.6C1248.9,883.2,1247.5,883.1,1246.2,883.1z" fill="#371a45"/></g></g></g></g><g><g><g><g><path d="M1198.2,1031l-14.2-3c-0.3-0.1-34.7-7.4-67.7-15.7c-15-3.8-27.5-13.1-35.3-26.3 c-7.5-12.8-9.6-27.6-5.8-41.7c3.7-14.1,12.9-25.9,25.7-33.3c13.2-7.6,28.7-9.5,43.6-5.3c39.8,11.1,53.5,13.5,58.1,13.9l15,1.5 L1198.2,1031z M1128.9,931.5c-5,0-9.8,1.3-14.2,3.8c-6.3,3.6-10.7,9.3-12.5,16.2c-1.8,6.9-0.8,14.1,2.9,20.3 c3.9,6.7,10.3,11.4,18,13.4c19.5,4.9,39.6,9.5,52.5,12.4l9.2-52.6c-9.2-2-24-5.6-48-12.3 C1134.2,931.8,1131.5,931.5,1128.9,931.5z" fill="#371a45"/></g></g></g></g><g><g><g><g><path d="M1325.8,1171.3c-0.4,0-0.9,0-1.4-0.1c-4.2-0.7-7-4.8-6.3-9l16.4-92.8c2-11.3-5.6-22.3-16.9-24.5l-3.4-0.6 c-19.5-3.7-32.6-22.6-29.3-42.2l21.2-123.7c0.7-4.2,4.7-7,8.9-6.3c4.2,0.7,7,4.7,6.3,8.9l-21.2,123.7 c-1.9,11.3,5.6,22.2,16.9,24.3l3.4,0.6c19.6,3.7,32.7,22.7,29.2,42.4l-16.4,92.8C1332.8,1168.7,1329.5,1171.3,1325.8,1171.3z" fill="#371a45"/></g></g></g></g><g><g><g><g><path d="M1448.1,1045.5c-0.9,4.5-1.6,41.8-1.6,41.8s11.4,2.2,25.5,5c17.5,3.4,35.3-12,39.6-34.4 c4.4-22.4-6.3-43.3-23.9-46.7c-11.8-2.3-25.5-5-25.5-5S1449.5,1038.2,1448.1,1045.5z" fill="#22a7f0"/></g></g></g><g><g><g><path d="M1476.8,1102.4c-2.2,0-4.4-0.2-6.7-0.6l-33.5-6.5l0.2-8.1c0.2-11.5,0.8-38.7,1.8-43.4l0,0 c1.5-7.8,12.5-35.6,14.7-41.1l3-7.4l33.3,6.5c11.5,2.2,21,9.8,26.9,21.3c5.5,10.7,7.1,23.8,4.6,36.7 C1516.2,1084.6,1497.2,1102.4,1476.8,1102.4z M1456.3,1079.3l17.5,3.4c12,2.3,25-9.9,28.3-26.8c1.7-8.7,0.7-17.3-2.8-24.3 c-3.1-6.1-7.9-10.1-13.4-11.2l-17.6-3.4c-4.7,12.1-10,26.4-10.7,30.1C1457.2,1049.9,1456.7,1064.4,1456.3,1079.3z M1457.6,1047.3L1457.6,1047.3L1457.6,1047.3z" fill="#371a45"/></g></g></g></g><g><g><g><g><ellipse cx="1454.3" cy="1046.7" fill="#22a7f0" rx="41.3" ry="32.4" transform="rotate(-79.006 1454.337 1046.778)"/></g></g></g><g><g><g><path d="M1451.3,1097.4c-2.2,0-4.4-0.2-6.7-0.6c-11.5-2.2-21-9.8-26.9-21.3c-5.5-10.7-7.1-23.8-4.6-36.7 c5.4-27.6,28.2-46.5,51-42c22.7,4.4,36.9,30.5,31.5,58.1C1490.8,1079.6,1471.7,1097.4,1451.3,1097.4z M1457.4,1015.3 c-11.1,0-22.3,11.6-25.3,27l0,0c-1.7,8.7-0.7,17.3,2.8,24.3c3.1,6.1,7.9,10.1,13.4,11.2c12.1,2.3,25-9.9,28.3-26.8 c3.3-16.8-4.2-33.1-16.2-35.4C1459.4,1015.4,1458.4,1015.3,1457.4,1015.3z M1422.6,1040.5L1422.6,1040.5L1422.6,1040.5z" fill="#371a45"/></g></g></g></g><g><g><g><g><path d="M2023.1,2082c105.2,27.3,190.6,49.4,149.5,208s-126.4,136.6-231.7,109.3c-105.2-27.3-305.7-155-283-242.6 S1917.8,2054.7,2023.1,2082z" fill="#fff"/></g></g></g><g><g><g><path d="M2046.5,2420.3c-32.4,0-68.3-9.3-106-19.1c-110.2-28.5-307.2-157.1-284.4-245 c13.9-53.6,102-74.3,153.3-81.9c73.1-10.8,159.3-8.5,214.3,5.8c51.8,13.4,100.8,26.1,130.5,55.2c33,32.3,39.5,81.6,20.4,155.2 C2148.1,2392.3,2102.6,2420.3,2046.5,2420.3z M1905,2071.5c-31.8,0-64.6,2.2-95.2,6.7c-50.3,7.4-136.7,27.6-150,79 c-21.8,84.2,175.5,212.7,281.5,240.1c105.4,27.3,188.6,48.9,229.2-107.9c18.7-72,12.5-120.1-19.3-151.3 c-29-28.4-77.4-40.9-128.7-54.2l0,0C1990.9,2075.7,1948.9,2071.5,1905,2071.5z" fill="#371a45"/></g></g></g></g><g opacity=".35"><g><g><g><path d="M2172.6,2290c-41.1,158.7-126.4,136.6-231.7,109.3s-305.7-155-283-242.6c0.9-3.3,2-6.4,3.5-9.5 c57.8,69.3,178,137.5,251.6,156.6c105.2,27.3,190.6,49.4,231.7-109.3c5.4-20.9,8.6-39.4,9.9-55.9 C2182.5,2167.4,2192.7,2212.4,2172.6,2290z" fill="#371a45"/></g></g></g></g><g><g><g><g><path d="M2047.6,2432.6c-34.4,0-71.9-9.7-110.2-19.6c-97.4-25.2-320-156.2-293.2-259.9 c11.6-44.8,69.6-77.1,163.3-90.9c74.6-11,162.7-8.6,219.2,6c53.4,13.8,103.9,26.9,136,58.3c36.4,35.7,43.9,88.7,23.7,167 C2157.9,2403.1,2107.5,2432.6,2047.6,2432.6z M1905.2,2083.7c-31.2,0-63.5,2.2-93.5,6.6c-80.5,11.9-131.5,37.4-140,70 c-18.6,71.9,161.6,196.5,272.8,225.3c106.5,27.6,176.8,45.8,214.4-99.1c22.9-88.5,1.8-122.1-16.1-139.6 c-26.6-26.1-71.4-37.7-123.2-51.1l0,0C1988.8,2087.8,1947.9,2083.7,1905.2,2083.7z" fill="#371a45"/></g></g></g></g><g><g><g><g><path d="M2338.6,2244.7c-56.3-15.7-113.5,13-127.7,64.1s19.9,105.2,76.3,120.8c41.5,11.5,168.7-7.3,232.7-17.9 c15.1-2.5,20.4-21.6,8.8-31.5C2479.3,2338,2380.1,2256.2,2338.6,2244.7z" fill="#d73c2c"/></g></g></g></g><g><g><g><g><path d="M2303.9,2260.7c-36.2-10.1-73.8,11.7-84.1,48.6c-10.3,36.9,10.8,75,46.9,85 c36.2,10.1,175.6-23.1,175.6-23.1S2340,2270.8,2303.9,2260.7z" fill="#e5a900"/></g></g></g></g><g><g><g><g><path d="M2277,2284.3c-24.2-6.7-48.7,5.6-54.8,27.5s8.6,45.1,32.7,51.8c24.2,6.7,115.9-10.5,115.9-10.5 S2301.2,2291,2277,2284.3z" fill="#ff0"/></g></g></g></g><g><g><g><g><path d="M2342,2445.3c-26.4,0-48.3-1.8-62.1-6.3c-63-20.3-99-83.9-80.4-141.7c18.7-57.8,85.1-88.3,148.1-67.9l0,0 c40.8,13.2,125.6,86.8,189.6,146.3c9.3,8.6,12.6,21.5,8.7,33.5s-14.1,20.5-26.7,22.1C2461.9,2438.4,2393.5,2445.3,2342,2445.3 z M2307.8,2251.4c-37.1,0-70.4,21-81.3,54.6c-13.9,42.9,14,90.5,62.1,106c27.2,8.8,112.1,5.5,227.1-8.9c2-0.3,2.9-1.6,3.2-2.6 c0.3-1.1,0.4-2.6-1.1-4c-84.9-78.9-151.8-131.3-179-140.1l0,0C2328.5,2253,2318,2251.4,2307.8,2251.4z" fill="#371a45"/></g></g></g></g><g><g><g><g><path d="M2203.3,2392.6l46.4-165.5c5.6-20-10.7-41-34.1-44l-33.9-4.4l-61.6,219.8l31.2,13.9 C2172.9,2422,2197.7,2412.6,2203.3,2392.6z" fill="#f92323"/></g></g></g></g><g opacity=".7"><g><g><g><path d="M2215.6,2183.1l-33.9-4.4l-9,32.1l33.5,4.3c23.5,3,39.7,24,34.1,44l-38.6,137.7c0.6-1.4,1.2-2.8,1.6-4.3 l46.4-165.5C2255.3,2207.1,2239,2186.2,2215.6,2183.1z" fill="#fff"/></g></g></g></g><g opacity=".35"><g><g><g><path d="M2249.7,2227.1l-46.4,165.5c-5.6,20-30.4,29.5-52,19.8l-31.3-13.9l30.8-109.9l29.1,13 c21.6,9.6,46.4,0.2,52-19.8l18.6-66.2C2251.1,2219.3,2250.8,2223.3,2249.7,2227.1z" fill="#371a45"/></g></g></g></g><g><g><g><g><path d="M2172.9,2432.9c-6.9,0-13.9-1.5-20.5-4.4l-49.4-22l68.3-243.4l53.6,6.9c14.4,1.9,27,9.6,34.7,21.2 c6.8,10.2,8.8,22.1,5.6,33.4l-50,178.3c-3.2,11.3-11,20.4-22.1,25.6C2186.7,2431.4,2179.8,2432.9,2172.9,2432.9z M2137,2390.5 l27,12c5.6,2.5,12,2.6,17,0.2c2.5-1.2,5.7-3.4,6.9-7.6l0,0l50-178.3c1.2-4.1-0.4-7.8-1.9-10.1c-3.1-4.6-8.5-7.9-14.6-8.7 l-29.3-3.8L2137,2390.5z" fill="#371a45"/></g></g></g></g><g><g><g><g><path d="M1935.7,2412L1935.7,2412c-7.8,0-14.2-6.4-14.2-14.2v-32.6c0.1-91.8,23.6-182.7,68.1-263l15.8-28.5 c3.8-6.9,12.4-9.3,19.3-5.5c6.9,3.8,9.3,12.4,5.5,19.3l-15.8,28.5c-42.2,76.1-64.5,162.3-64.6,249.3v32.6 C1949.8,2405.7,1943.5,2412,1935.7,2412z" fill="#371a45"/></g></g></g></g></g></g></svg>