<?xml version="1.0" encoding="UTF-8"?><svg xmlns="http://www.w3.org/2000/svg" xmlns:xlink="http://www.w3.org/1999/xlink" height="541.7" preserveAspectRatio="xMidYMid meet" version="1.0" viewBox="-2.1 -2.2 796.1 541.7" width="796.1" zoomAndPan="magnify"><g clip-rule="evenodd" fill-rule="evenodd"><g id="change1_1"><path d="M2.525,406.48c1.439,6.206,3.24,12.263,4.576,18.45 c4.234,19.605,12.632,54.32,21.598,71.181c6.527,12.275,10.953,16.357,20.815,25.218c7.6,6.828,21.708,11.146,31.516,11.732 c11.058,0.662,29.651-0.813,40.155-4.456c7.266-2.519,11.889-2.786,19.519-2.222c3.546,0.263,7.101-0.148,10.418,0.111 c3.954,0.308,5.093,1.563,9.435,0.661c0.357-1.22,0.066-2.012,0.311-3.229c0.198-0.987,0.635-1.512,0.776-2.693 c0.339-2.828-0.118-2.49,1.633-4.975l2.164,7.518l0.313-0.101c1.656,0.795,4.234,0.147,6.191,0.311 c1.733,0.145,3.564,1.317,5.191,1.688c5.178,1.182,5.229,1.807,11.128,1.873c4.489,0.05,4.799-2.746,6.921-6.286 c3.777-6.301,2.247-6.868,2.707-9.577c2.23,2.992,0.082,8.222,1.242,11.977l4.373,0.012l1.352-3.332 c1.024,1.552,1.082,4.013,3.404,4.391c1.846,0.3,3.425-1.805,4.368-3.216c1.507-2.259,1.009-10.898,3.864-11.131 c1.065,3.036-0.136,9.503,3.544,13.05c2.502,2.412,2.497,2.357,5.978,2.328c4.65-0.039,20.917-0.622,23.528,0.336 c4.64,1.701,6.925,4.405,10.298,5.691c3.56,1.356,10.638,2.316,14.024,0.445c2.887-1.594,11.656-0.901,15.298-0.901 c5.254,0,9.639,1.324,13.451-2.563c1.634-1.665,6.277-8.659,7.145-9.053l3.162,7.744c1.55,0.172,3.158-0.057,4.655,0.084 c1.684,0.157,2.088,0.905,3.922,1.006c1.488,0.081,3.354-0.172,4.782,0.071c1.482,0.252,1.843,0.86,3.667,0.943 c6.569,0.3,10.931,0.395,16.844-2.053c0.948-0.392,6.748-1.779,7.615-1.775c4.325,0.021,3.974,0.033,7.843,1.617 c2.381,0.975,4.174,1.721,5.854,2.238c-0.045,1.238,0.048,2.253,0.387,2.848c1.116-0.126,1.607-1.104,2.331-2.206 c2.02,0.32,4.243,0.317,7.467-0.008c1.428-1.279,2.131-2.701,2.739-4.565c1.602-0.435,3.125-0.828,4.299-0.99 c0.331-0.045,0.677-0.089,1.036-0.132c0.234,2.636,0.763,4.514,1.905,4.758c2.861-0.041,2.93-3.094,3.8-5.203 c0.959-0.042,1.942-0.068,2.931-0.076c0.001,0.573-0.164,1.283,0.507,2.419c3.397,1.584,5.333-1.518,9.826,2.025 c3.659,2.886,5.085,1.855,9.829,1.855c3.928,0,7.856-0.002,11.784,0c12.915-2.47,13.691,1.517,13.188-6.134 c2.292-0.578,5.125-0.99,9.186-0.919c3.463,0.062,5.927,2.248,8.801,3.919c2.646,1.538,7.583,0.822,10.688,0.557 c3.767-0.323,25.309-1.932,28.39-1.018c1.668,0.495,3.233,1.185,5.001,1.203c5.356,0.056,8.438-14.494,13.559-6.098 c1.686,2.765,2.479,7.043,5.925,6.779l1.96-4.899c1.628,1.816,2.193,4.813,4.56,6.047c1.668,0.87,5.654-0.768,8.424-0.883 c2.006-0.084,7.565-0.203,9.144-0.917c1.973-0.892,5.33-4.205,5.979-4.388c1.967,0.707,1.667,3.013,3.562,1.999l1.399-6.464 c0.482,2.308,1.122,9.47,4.426,8.287c1.011-1.725,0.182-3.784,0.436-5.618c0.318-2.301,3.261-13.187,4.062-14.443 c1.454,6.526-1.18,16.637,4.087,21.96c4.167,4.211,2.7,3.007,8.172,4.447c4.459,1.175,17.422-1.444,22.306-1.948 c2.387-0.247,2.376-1.309,5.322-1.181c1.823,0.079,3.039,0.577,5.121,0.688c2.094,0.112,2.604,0.823,5.397,0.597 c4.349-0.354,12.666-1.291,16.529-0.866l2.001,1.694c2.563,2.358,16.26-1.035,20.376-1.618c2.045-0.29,4.112-0.17,6.209-0.386 c2.126-0.22,3.392-0.924,5.609-1.132c2.619-0.246,3.674-0.099,6.204,0.064c3.28,0.21,2.219-0.973,3.935-2.061l2.128,2.749 c1.614-1.391,1.945-1.434,1.797-3.937c-0.153-2.602,0.436-1.931,1.216-4.162c0.55-1.571,1.696-8.238,2.136-8.842 c0.608,2.966,2.08,16.857,3.814,18.003c2.839-0.18,3.094-4.376,4.283-6.089c0.735,2.689,0.751,5.818,2.772,7.91 c2.033,0.547,3.377-0.068,5.705,0.637c9.384,2.845,18.901,2.367,28.645,2.367c4.441,0,7.448-0.865,11.474-1.026 c6.732-0.269,14.536-1.582,21.64-2.112c3.972-0.297,6.587,0.602,10.311,1.889c13.116,4.533,9.733,2.289,8.152-4.191 c-1.659-6.797-1.021-15.257-0.462-22.647c0.216-2.842,0.954-3.841,0.935-7.356c-0.015-2.761-0.003-5.525-0.002-8.287 c0.001-2.916,0.3-4.711-0.866-7.459c-0.783-1.847-2.68-2.83-3.398-4.375c0.459-2.437,3.104-2.113,2.31-5.08l-8.085-3.451 l0.134-0.348c0.223-0.285,11.629-2.739,12.735-5.839c0.022-2.051-1.011-5.997-1.145-8.489c-0.167-3.104,0.006-6.748,0.01-9.907 c0.005-3.739-2.608-5.15-0.823-7.576c1.524-2.071,4.323-2.623,4.474-4.999l-15.184-9.717c1.325-4.318,7.401-10.839,11.646-25.169 c1.688-5.699,4.688-25.313,4.738-31.215c0.016-1.845,0.804-6.021,1.121-8.067c0.481-3.105-0.329-4.408-0.965-7.371 c-2.267-10.579,0.172-23.012,0.263-33.979c0.075-9.012-5.838-6.043-9.332-8.606c1.337-0.702,7.877,0.685,8.613-3.186 c-0.604-3.626-8.933-2.021-11.774-2.097c-2.59-0.069-10.389-0.949-12.136-2.043c1.192-0.901,10.567-1.622,13.582-2.615 c2.292-0.755,10.703-2.773,11.914-3.994c0.69-5.389,0.089-16.115,0.09-22.071c0.001-7.055-0.741-14.541-0.721-21.351 c0.01-3.653,0.744-7.313,0.739-10.188c-0.007-4.262-0.716-5.361,0.167-9.917c4.463-23.024,1.664-94.789-0.126-102.509 c-1.438-6.207-3.239-12.263-4.575-18.451c-4.234-19.605-12.632-54.32-21.598-71.181c-6.526-12.275-10.953-16.357-20.815-25.218 c-7.6-6.828-21.709-11.145-31.516-11.732c-11.058-0.662-29.651,0.814-40.155,4.456c-7.266,2.519-11.889,2.787-19.519,2.222 c-3.547-0.262-7.102,0.148-10.418-0.111c-3.954-0.308-5.093-1.563-9.435-0.661c-0.357,1.22-0.066,2.012-0.311,3.229 c-0.198,0.987-0.635,1.512-0.776,2.693c-0.34,2.828,0.118,2.49-1.633,4.974l-2.164-7.517l-0.314,0.101 c-1.656-0.795-4.233-0.148-6.19-0.311c-1.733-0.144-3.564-1.317-5.19-1.688c-5.178-1.182-5.229-1.807-11.129-1.873 c-4.489-0.05-4.799,2.746-6.921,6.286c-3.777,6.301-2.247,6.868-2.707,9.578c-2.23-2.993-0.081-8.222-1.241-11.977l-4.373-0.012 l-1.353,3.333c-1.024-1.552-1.081-4.013-3.404-4.391c-1.846-0.3-3.425,1.805-4.367,3.216c-1.508,2.258-1.01,10.898-3.864,11.13 c-1.065-3.036,0.137-9.502-3.545-13.05c-2.502-2.412-2.496-2.357-5.977-2.328c-4.65,0.04-20.918,0.622-23.528-0.335 c-4.641-1.701-6.926-4.406-10.299-5.691c-3.56-1.357-10.638-2.316-14.024-0.446c-2.887,1.595-11.656,0.902-15.298,0.902 c-5.254,0-9.639-1.325-13.451,2.562c-1.634,1.665-6.277,8.659-7.145,9.053l-3.161-7.744c-1.551-0.172-3.158,0.056-4.655-0.084 c-1.684-0.158-2.088-0.905-3.922-1.006c-1.488-0.082-3.354,0.171-4.782-0.072c-1.482-0.252-1.843-0.86-3.667-0.943 c-6.569-0.299-10.931-0.394-16.844,2.053c-0.948,0.392-6.748,1.78-7.615,1.775c-4.325-0.021-3.974-0.033-7.844-1.617 c-2.38-0.975-4.174-1.72-5.854-2.238c0.045-1.239-0.049-2.253-0.388-2.848c-1.116,0.126-1.607,1.104-2.33,2.207 c-2.02-0.321-4.243-0.318-7.468,0.008c-1.428,1.279-2.13,2.701-2.738,4.565c-1.602,0.435-3.125,0.828-4.3,0.99 c-0.33,0.045-0.676,0.089-1.035,0.132c-0.234-2.635-0.763-4.514-1.904-4.757c-2.861,0.041-2.93,3.094-3.801,5.203 c-0.959,0.042-1.942,0.068-2.931,0.076c-0.001-0.573,0.164-1.283-0.507-2.418c-3.397-1.584-5.334,1.518-9.826-2.025 c-3.659-2.886-5.085-1.856-9.83-1.856c-3.928,0-7.855,0.002-11.784,0c-33.892-0.014-2.18,7.409-22.373,7.053 c-3.464-0.062-5.927-2.249-8.802-3.919c-2.646-1.538-7.583-0.823-10.687-0.557c-3.767,0.323-25.309,1.931-28.39,1.018 c-1.668-0.495-3.233-1.185-5-1.204c-5.357-0.056-8.438,14.495-13.559,6.098c-1.686-2.764-2.479-7.042-5.925-6.779l-1.96,4.9 c-1.628-1.817-2.194-4.813-4.56-6.047c-1.668-0.87-5.654,0.768-8.424,0.883c-2.006,0.083-7.565,0.203-9.143,0.917 c-1.973,0.892-5.331,4.206-5.98,4.388c-1.967-0.707-1.667-3.013-3.562-2l-1.399,6.464c-0.482-2.307-1.122-9.469-4.427-8.287 c-1.01,1.725-0.181,3.784-0.435,5.619c-0.318,2.301-3.261,13.186-4.061,14.443c-1.455-6.526,1.179-16.637-4.088-21.96 c-4.167-4.211-2.7-3.006-8.172-4.447c-4.459-1.174-17.421,1.445-22.305,1.949c-2.387,0.247-2.376,1.309-5.323,1.18 c-1.823-0.079-3.04-0.577-5.122-0.688c-2.093-0.112-2.603-0.824-5.397-0.597c-4.349,0.353-12.666,1.291-16.529,0.866l-2-1.694 c-2.563-2.358-16.261,1.035-20.376,1.619c-2.045,0.29-4.112,0.169-6.208,0.386c-2.126,0.22-3.392,0.924-5.61,1.132 c-2.62,0.246-3.674,0.098-6.204-0.064c-3.28-0.21-2.219,0.972-3.935,2.061l-2.127-2.749c-1.615,1.39-1.946,1.433-1.797,3.937 c0.153,2.602-0.435,1.931-1.216,4.162c-0.55,1.571-1.696,8.238-2.135,8.842c-0.609-2.966-2.08-16.858-3.815-18.003 c-2.839,0.18-3.093,4.376-4.283,6.089c-0.735-2.689-0.751-5.819-2.772-7.911c-2.034-0.547-3.377,0.069-5.705-0.637 c-9.384-2.844-18.901-2.367-28.645-2.367c-4.441,0-7.448,0.865-11.474,1.026c-6.733,0.269-14.536,1.583-21.64,2.113 c-3.972,0.297-6.587-0.602-10.31-1.889C6.013-2.154,9.395,0.09,10.977,6.57c1.659,6.797,1.021,15.257,0.461,22.648 c-0.216,2.842-0.954,3.84-0.935,7.356c0.015,2.76,0.003,5.525,0.002,8.287c0,2.917-0.299,4.711,0.867,7.459 c0.783,1.846,2.679,2.83,3.398,4.375c-0.459,2.437-3.104,2.113-2.31,5.08l8.085,3.451l-0.134,0.348 c-0.223,0.285-11.629,2.739-12.736,5.839c-0.022,2.05,1.011,5.997,1.146,8.489c0.167,3.103-0.006,6.748-0.01,9.907 c-0.005,3.739,2.607,5.15,0.823,7.576c-1.524,2.072-4.323,2.623-4.473,4.999l15.183,9.717c-1.325,4.319-7.401,10.839-11.646,25.169 c-1.688,5.699-4.689,25.313-4.738,31.215c-0.015,1.844-0.803,6.021-1.121,8.067c-0.481,3.105,0.33,4.408,0.964,7.371 c2.268,10.579-0.171,23.012-0.262,33.979c-0.075,9.013,5.838,6.043,9.333,8.606c-1.337,0.703-7.877-0.685-8.613,3.187 c0.604,3.625,8.933,2.02,11.774,2.096c2.589,0.069,10.389,0.949,12.136,2.043c-1.193,0.901-10.568,1.623-13.582,2.615 c-2.292,0.754-10.704,2.774-11.914,3.994c-0.69,5.389-0.089,16.116-0.09,22.072c0,7.055,0.741,14.54,0.721,21.351 c-0.011,3.652-0.745,7.313-0.74,10.188c0.007,4.262,0.715,5.361-0.167,9.917C-2.063,326.995,0.735,398.76,2.525,406.48z" fill="#42382A"/></g><g id="change2_1"><path d="M27.239,438.712c-9.36-7.397-16.04-17.637-20.146-29.135 c-0.781-2.188-1.292-4.361-1.962-6.483c-0.585-1.852-1.946-4.194-2.266-5.693c-0.219,8.431,2.642,14.963,4.71,22.853 c4.891,18.655,11.157,49.711,18.259,65.509c6.161,13.702,11.511,23.047,23.125,32.323c5.057,4.04,10.775,8.631,17.144,10.178 c3.756,0.913,6.184,2.002,10.306,2.608c2.077,0.306,11.741,1.712,12.71,0.021c-15.232-4.615-31.404-9.693-37.274-27.316 c-1.862-5.592-3.132-23.703-1.006-29.043c1.231-3.092,4.609-7.261,7.524-8.656c1.763-0.844,3.679-1.897,5.51-2.484 c1.471-0.473,5.646-0.499,6.107-0.876c-3.396-2.218-20.618-8.565-23.071-10.134C40.122,448.04,33.613,443.75,27.239,438.712z" fill="#DFC5A1"/></g><g id="change2_2"><path d="M6.114,167.55c0.516-0.177,5.565-16.284,6.563-18.493 c2.957-6.546,4.937-10.539,10.041-15.543c3.748-3.674,8.884-9.153,13.338-11.751c3.126-1.823,6.032-2.982,9.627-2.877 c7.67,0.225-4.878-8.027-10.449-9.241c-5.522-1.204-4.933-1.177-9.739,1.289c-5.783,2.966-11.83,17.008-14.033,24.039 c-1.301,4.155-1.275,7.015-2.273,10.702C8.513,148.173,5.298,166.357,6.114,167.55z" fill="#DFC5A1"/></g><g id="change3_1"><path d="M80.9,483.584c-2.997,0.586-4.538-3.48-7.449-5.354 c-1.979-1.273-6.832-4.085-9.146-3.896c-2.274,0.187-3.169,7.369-2.453,9.736c1.33,4.394,3.072,4.826,6.523,6.844 c4.553,2.662,5.035,2.575,10.202,2.179c9.266-0.712,9.05-13.985,6.856-20.457c-1.305-3.847-4.206-6.223-9.697-7.596 c-1.938-0.484-4.74-0.875-6.676-0.408c0.382,0.924,7.221,5.625,8.654,6.882C80.982,474.379,82.375,478.997,80.9,483.584z" fill="#A78D69"/></g><g id="change4_1"><path d="M79.162,494.801c-0.282-0.16-4.834,0.225-6.232-0.04 c-1.939-0.366-3.944-1.715-5.664-2.669c-5.211-2.769-8.192-7.354-7.623-12.108c0.353-2.939,1.713-5.944,5.796-8.624 c8.125-3.038,8.812,1.598,12.968,3.354c-0.429-0.948-5.309-4.537-6.46-5.423c-2.3-1.771-5.01-4.979-7.872-4.13 c-9.268,2.747-16.597,11.351-9.875,22.229C59.294,492.831,69.601,501.706,79.162,494.801z" fill="#C3A985"/></g><g id="change5_1"><path d="M65.15,473.281c1.847,0.385,2.104,0.377,4.098,1.092 c2.11,0.755,5.408,2.425,7.066,4.028c0.898,0.868,1.77,2.185,2.775,2.66c-0.31-3.984-1.244-4.409-3.266-5.971 c-1.457-1.125-2.605-3.11-6.099-3.175C69.051,471.903,65.764,472.833,65.15,473.281z" fill="#8B714D"/></g><g id="change6_1"><path d="M0.185,324.02v-0.318V324.02z" fill="#FFC"/></g><g id="change6_2"><path d="M0.185,325.295v-0.319V325.295z" fill="#FFC"/></g><g id="change6_3"><path d="M0.185,325.932v-0.318V325.932z" fill="#FFC"/></g><g id="change6_4"><path d="M0.185,326.57v-0.319V326.57z" fill="#FFC"/></g><g id="change6_5"><path d="M0.185,327.844v-0.318V327.844z" fill="#FFC"/></g><g id="change6_6"><path d="M0.185,328.482v-0.318V328.482z" fill="#FFC"/></g><g id="change6_7"><path d="M0.185,329.12V328.8V329.12z" fill="#FFC"/></g><g id="change6_8"><path d="M0.185,330.394v-0.319V330.394z" fill="#FFC"/></g><g id="change6_9"><path d="M0.185,331.031v-0.318V331.031z" fill="#FFC"/></g><g id="change6_10"><path d="M0.185,331.668v-0.318V331.668z" fill="#FFC"/></g><g id="change6_11"><path d="M0.185,332.943v-0.318V332.943z" fill="#FFC"/></g><g id="change6_12"><path d="M0.185,333.581v-0.318V333.581z" fill="#FFC"/></g><g id="change6_13"><path d="M0.185,334.217v-0.318V334.217z" fill="#FFC"/></g><g id="change6_14"><path d="M0.185,335.493v-0.319V335.493z" fill="#FFC"/></g><g id="change6_15"><path d="M0.185,336.13v-0.319V336.13z" fill="#FFC"/></g><g id="change6_16"><path d="M0.185,336.767v-0.318V336.767z" fill="#FFC"/></g><g id="change6_17"><path d="M0.185,338.042v-0.318V338.042z" fill="#FFC"/></g><g id="change6_18"><path d="M0.185,338.679v-0.318V338.679z" fill="#FFC"/></g><g id="change6_19"><path d="M0.185,339.317v-0.319V339.317z" fill="#FFC"/></g><g id="change2_3"><path d="M764.71,98.644c9.359,7.397,16.039,17.637,20.146,29.134 c0.782,2.188,1.292,4.362,1.963,6.483c0.584,1.852,1.945,4.195,2.266,5.694c0.219-8.431-2.643-14.963-4.711-22.853 c-4.892-18.656-11.157-49.711-18.26-65.509c-6.16-13.703-11.511-23.047-23.125-32.324c-5.057-4.04-10.774-8.631-17.144-10.178 c-3.756-0.913-6.184-2.001-10.306-2.608c-2.077-0.306-11.741-1.712-12.71-0.021c15.231,4.616,31.404,9.694,37.273,27.316 c1.862,5.592,3.132,23.703,1.006,29.043c-1.23,3.092-4.608,7.261-7.523,8.656c-1.763,0.844-3.679,1.897-5.51,2.484 c-1.471,0.472-5.646,0.499-6.107,0.876c3.396,2.217,20.618,8.565,23.071,10.134C751.826,89.317,758.336,93.605,764.71,98.644z" fill="#DFC5A1"/></g><g id="change2_4"><path d="M785.835,369.806c-0.517,0.178-5.565,16.284-6.563,18.493 c-2.957,6.546-4.937,10.539-10.042,15.543c-3.748,3.675-8.883,9.153-13.338,11.752c-3.127,1.823-6.032,2.982-9.627,2.877 c-7.671-0.225,4.878,8.026,10.448,9.24c5.522,1.204,4.933,1.177,9.739-1.288c5.783-2.966,11.83-17.008,14.033-24.039 c1.301-4.154,1.274-7.015,2.272-10.701C783.436,389.183,786.65,370.999,785.835,369.806z" fill="#DFC5A1"/></g><g id="change3_2"><path d="M711.049,53.771c2.997-0.586,4.537,3.48,7.449,5.354 c1.978,1.273,6.832,4.085,9.146,3.896c2.274-0.186,3.169-7.369,2.453-9.736c-1.33-4.393-3.072-4.826-6.523-6.843 c-4.553-2.662-5.035-2.575-10.202-2.179c-9.267,0.711-9.051,13.985-6.856,20.457c1.305,3.847,4.206,6.223,9.697,7.596 c1.938,0.484,4.74,0.875,6.677,0.408c-0.383-0.923-7.222-5.625-8.655-6.882C710.966,62.977,709.574,58.36,711.049,53.771z" fill="#A78D69"/></g><g id="change4_2"><path d="M712.787,42.555c0.281,0.16,4.834-0.225,6.232,0.04 c1.938,0.366,3.943,1.714,5.664,2.669c5.211,2.769,8.192,7.354,7.622,12.108c-0.353,2.939-1.713,5.944-5.796,8.624 c-8.124,3.039-8.812-1.598-12.968-3.353c0.428,0.948,5.309,4.536,6.46,5.422c2.3,1.771,5.01,4.978,7.872,4.129 c9.267-2.747,16.597-11.35,9.875-22.228C732.654,44.525,722.348,35.651,712.787,42.555z" fill="#C3A985"/></g><g id="change5_2"><path d="M726.798,64.076c-1.847-0.385-2.104-0.377-4.098-1.092 c-2.11-0.755-5.408-2.425-7.065-4.028c-0.898-0.868-1.77-2.185-2.775-2.661c0.311,3.984,1.244,4.41,3.267,5.971 c1.457,1.125,2.604,3.11,6.098,3.175C722.897,65.453,726.185,64.524,726.798,64.076z" fill="#8B714D"/></g><g id="change6_20"><path d="M791.764,213.336v0.319V213.336z" fill="#FFC"/></g><g id="change6_21"><path d="M791.764,212.061v0.319V212.061z" fill="#FFC"/></g><g id="change6_22"><path d="M791.764,211.424v0.319V211.424z" fill="#FFC"/></g><g id="change6_23"><path d="M791.764,210.787v0.319V210.787z" fill="#FFC"/></g><g id="change6_24"><path d="M791.764,209.512v0.318V209.512z" fill="#FFC"/></g><g id="change6_25"><path d="M791.764,208.875v0.318V208.875z" fill="#FFC"/></g><g id="change6_26"><path d="M791.764,208.237v0.319V208.237z" fill="#FFC"/></g><g id="change6_27"><path d="M791.764,206.962v0.319V206.962z" fill="#FFC"/></g><g id="change6_28"><path d="M791.764,206.325v0.318V206.325z" fill="#FFC"/></g><g id="change6_29"><path d="M791.764,205.688v0.319V205.688z" fill="#FFC"/></g><g id="change6_30"><path d="M791.764,204.413v0.319V204.413z" fill="#FFC"/></g><g id="change6_31"><path d="M791.764,203.776v0.318V203.776z" fill="#FFC"/></g><g id="change6_32"><path d="M791.764,203.139v0.318V203.139z" fill="#FFC"/></g><g id="change6_33"><path d="M791.764,201.864v0.319V201.864z" fill="#FFC"/></g><g id="change6_34"><path d="M791.764,201.226v0.319V201.226z" fill="#FFC"/></g><g id="change6_35"><path d="M791.764,200.589v0.318V200.589z" fill="#FFC"/></g><g id="change6_36"><path d="M791.764,199.314v0.318V199.314z" fill="#FFC"/></g><g id="change6_37"><path d="M791.764,198.677v0.319V198.677z" fill="#FFC"/></g><g id="change6_38"><path d="M791.764,198.04v0.319V198.04z" fill="#FFC"/></g><g id="change7_1"><path d="M51.099,486.827c1.313,12.329,1.92,21.535,11.553,29.886 c8.546,7.409,17.307,8.859,27.341,12.905c8.308,3.35,25.047-1.213,33.574-3.898c7.196-2.266,12.599-0.44,18.359-1.753 c1.967-0.449,0.71,0.794,3.358,0.853c1.496,0.032,3.353-0.058,4.896-0.073c3.59-0.037,5.064,1.03,8.884,1.017 c-0.002-2.095,2.086-11.243,3.137-12.55c2.587-0.479,2.633,2.331,3.337,4.309c1.307,3.671-0.53,4.443,3.672,4.443 c7.242,0,18.34,6.735,21.963,2.733c0.304-0.336,4.23-7.831,4.503-8.638c0.634-1.873,1.374-9.157,3.145-10.047 c1.312,0.935,1.522,13.508,1.522,15.979c2.873,1.085,2.293-2.586,3.354-4.144c3.447-0.863,2.389,3.251,4.753,5.129 c3.357-0.724,3.708-7.181,4.215-10.265c0.348-2.115,1.581-2.939,2.862-4.402c1.029-1.176,2.465-4.132,2.846-4.339 c2.408,0.762,0.251,2.731,0.192,5.185c-0.054,2.261-0.173,4.638,0.493,6.718c1.219,3.812,1.387,7.943,6.33,7.882 c6.973-0.087,20.738-1.052,26.825,1.114c3.643,1.297,5.515,4.193,9.085,5.182c3.81,1.055,8.198,1.892,11.934,0.228 c6.663-2.965,19.152-0.021,26.428-1.378l9.246-12.197c3.329-0.065,3.937,6.603,5.636,8.732c1.976,0.27,3.24-0.247,5.272,0.477 c2.369,0.844,2.892,0.592,5.321,0.594c2.241,0.003,2.718,0.745,4.8,0.792c5.278,0.119,10.791,0.416,15.691-1.586 c14.026-5.732,18.302,2.571,27.836,2.583c4.303,0.005,5.042-0.452,5.886-4.36c2.891-0.678,6.015-1.216,9.069-1.595 c0.027,1.673,0.114,3.271,0.317,4.688l2.261-4.972c1.76-0.168,3.466-0.278,5.056-0.328c0.47,0.851,0.633,1.915,1.217,2.784 l2.177-0.017c7.704-0.029,5.99,3.798,11.18,3.798h18.432c3.333,0,1.411-0.731,5.83-0.95c7.622-0.376-2.117-4.407,7.788-5.814 c0.666-0.095,1.376-0.167,2.143-0.211c8.092-0.468,6.526-0.426,13.248,3.343c4.262,2.39,10.099,1.08,14.853,0.727 c9.005-0.67,19.208-1.909,27.754,0.257c3.048,0.772,5.043-3.018,6.813-5.245c7.186-9.043,9.64,1.771,13.014,5.61 c0.191-0.909,1.635-5.117,2.825-5.77c2.151,1.117,3.505,6.297,5.573,7.505c1.475,0.86,2.92-0.673,4.722-0.853 c4.732-0.473,10.066,0.701,14.019-2.368c3.64-2.826,0.594-3.28,6.091-2.528c1.225-1.704,0.641-9.469,4.595-7.8 c0.298,2.375,0.234,4.72,0.776,7.031c1.112-0.729,3.64-12.49,4.566-14.877c1.124-2.898,5.844-9.517,7.466-11.382 c2.486,1.559-1.474,5.282-2.282,7.934c-1.473,4.833-1.07,5.309-0.816,10.346c0.232,4.609-0.076,6.851,1.318,11.332 c0.622,2.001,3.786,5.907,5.75,6.41c5.179,1.328,16.401,1.175,21.374-0.529c1.088-0.373,9.275-1.702,10.446-1.502 c4.157,0.71,5.681,1.337,10.076,1.194c2.279-0.074,14.917-1.247,16.47-0.214c2.112,1.405,1.102,1.459,4.053,1.262 c7.364-0.495,14.404-2.179,21.535-2.521c3.679-0.178,6.682-1.165,10.729-1.46c1.643-0.12,3.546,0.71,4.678-0.201 c1.665-1.34,0.107-2.002,3.158-2.569c5.066-0.943,2.794-17.322,7.665-16.993l3.448,20.787l2.906-9.237 c3.264-0.375,2.104,8.838,4.61,12.267c1.877,0.41,3.081-0.105,5.21,0.534c4.629,1.393,9.482,2.361,14.335,2.395l14.222,0.192 l31.101-3.482c6.974-0.39,12.421,2.554,19.012,4.179c-0.567-5.5-3.271-11.221-2.147-16.882c0.311-1.563,1.538-15.889,1.538-17.746 v-9.561c0-4.185,0.179-4.788-2.714-7.616c-3.298-3.225-0.284-4.436,0.57-6.366c-1.585-1.13-8.18-2.824-8.657-5.457 c0.593-1.555,8.357-3.197,10.586-4.074c5.079-1.997,2.134-5.396,2.134-10.266v-10.198c0-3.037-1.2-1.98-1.199-5.099 c0.001-3.729,2.551-4.066,4.409-6.318l-13.918-8.895c-7.644,3.248-8.643,5.869-17.543,1.931c-2.43-1.076-5.771-2.396-7.771-4.252 c-1.558-1.446-5.391-5.509-3.916-7.723c2.588-1.288,8.121,2.047,15.211-3.937c7.063-5.962,15.716-13.129,19.385-21.933 c2.098-5.034,4.258-9.748,5.607-15.127c0.613-2.444,1.916-5.532,2.662-7.982c0.746-2.454,1.14-5.645,1.989-8.487 c0.74-2.473-0.174-6.166-0.814-8.649c-0.685-2.647-0.3-7.099,0.12-9.82c0.464-3.009-0.169-7.132,0.157-10.306 c0.409-3.979,0.641-5.749,0.657-9.912c0.017-4.374,0.391-5.061-3.796-6.518c-1.917-0.667-6.049-0.942-6.994-3.035 c0.604-4.281,7.833-0.109,9.563-3.211c-4.991-0.453-9.228,0.163-14.395-0.714c-2.428-0.412-10.433-1.486-11.739-3.353 c1.063-2.979,12.258-2.934,15.231-3.637c2.341-0.553,4.892-1.33,7.084-2.07c9.064-3.061,6.058,0.77,6.496-15.391 c0.218-7.987-1.787-27.463-0.907-33.587c0.37-2.58,0.928-3.958,0.628-6.702c-0.281-2.583-0.741-3.424-0.328-6.161 c3.948-26.124,2.838-31.926,2.348-56.452l0.045-17.589c0.026-5.746-1.956-10.055-2.025-15.9c-0.043-3.577-1.691-9.454-2.615-13.153 c-1.313-5.253-7.836-17.313-11.021-21.844c-7.344-10.449-25.821-22.59-37.221-27.32c-7.468-3.098-14.953-7.346-22.666-9.558 c-8.583-2.461-11.562-13.421-11.021-21.81c0.541-8.42,10.851-13.959,18.105-14.167c8.25-0.235,16.123,9.771,19.598,12.283 c-1.312-12.329-1.919-21.535-11.552-29.886c-8.546-7.409-17.308-8.859-27.342-12.905c-8.308-3.35-25.048,1.213-33.573,3.898 c-7.196,2.266-12.6,0.44-18.359,1.753c-1.968,0.449-0.711-0.794-3.358-0.853c-1.496-0.032-3.353,0.058-4.896,0.073 c-3.59,0.037-5.064-1.03-8.884-1.017c0.002,2.095-2.086,11.244-3.138,12.55c-2.587,0.479-2.633-2.331-3.337-4.309 c-1.307-3.671,0.529-4.443-3.673-4.443c-7.241,0-18.34-6.735-21.963-2.733c-0.304,0.336-4.23,7.832-4.503,8.638 c-0.634,1.873-1.374,9.157-3.145,10.047c-1.312-0.935-1.522-13.507-1.522-15.979c-2.873-1.084-2.293,2.586-3.354,4.144 c-3.447,0.864-2.389-3.251-4.754-5.128c-3.356,0.724-3.708,7.181-4.215,10.264c-0.348,2.115-1.58,2.94-2.862,4.403 c-1.029,1.175-2.465,4.132-2.846,4.339c-2.408-0.762-0.251-2.732-0.192-5.185c0.054-2.261,0.173-4.638-0.492-6.718 c-1.22-3.811-1.387-7.943-6.33-7.881c-6.974,0.086-20.738,1.052-26.825-1.115c-3.643-1.297-5.515-4.193-9.085-5.182 c-3.81-1.054-8.197-1.891-11.935-0.228c-6.662,2.965-19.151,0.021-26.428,1.378l-9.246,12.197 c-3.329,0.066-3.938-6.602-5.636-8.732c-1.977-0.269-3.24,0.248-5.272-0.476c-2.369-0.844-2.892-0.592-5.321-0.594 c-2.241-0.002-2.718-0.745-4.8-0.792c-5.278-0.119-10.791-0.416-15.69,1.586c-14.026,5.732-18.303-2.572-27.837-2.583 c-4.303-0.005-5.042,0.452-5.887,4.36c-2.89,0.678-6.014,1.216-9.068,1.594c-0.027-1.672-0.114-3.271-0.317-4.688l-2.262,4.971 c-1.76,0.168-3.466,0.279-5.056,0.329c-0.469-0.851-0.633-1.915-1.217-2.785l-2.177,0.017c-7.703,0.029-5.99-3.798-11.179-3.798 h-18.432c-3.919,0-3.244,0.542-11.486,0.542c-0.044,1.593,2.154,3.729,1.386,5.446c-1.584,0.472-3.375,0.855-5.661,0.987 c-8.091,0.467-6.526,0.426-13.248-3.343c-4.262-2.39-10.1-1.08-14.854-0.727c-9.005,0.67-19.207,1.909-27.753-0.257 c-3.048-0.772-5.044,3.018-6.813,5.245c-7.185,9.043-9.639-1.771-13.014-5.61c-0.19,0.909-1.634,5.117-2.825,5.77 c-2.151-1.117-3.504-6.297-5.573-7.505c-1.474-0.86-2.919,0.673-4.722,0.853c-4.732,0.472-10.066-0.701-14.019,2.369 c-3.639,2.826-0.593,3.279-6.09,2.528c-1.225,1.704-0.641,9.468-4.594,7.799c-0.298-2.375-0.234-4.72-0.776-7.031 c-1.113,0.728-3.64,12.49-4.566,14.876c-1.125,2.898-5.844,9.517-7.466,11.382c-2.487-1.559,1.474-5.282,2.282-7.934 c1.473-4.833,1.071-5.308,0.816-10.345c-0.232-4.61,0.076-6.851-1.318-11.332c-0.622-2.001-3.786-5.907-5.75-6.411 c-5.179-1.328-16.401-1.175-21.374,0.53c-1.087,0.373-9.276,1.702-10.446,1.502c-4.157-0.71-5.681-1.338-10.076-1.195 c-2.279,0.074-14.917,1.247-16.469,0.214c-2.113-1.406-1.102-1.459-4.053-1.262c-7.365,0.495-14.404,2.179-21.535,2.521 c-3.679,0.177-6.682,1.165-10.729,1.46c-1.643,0.12-3.546-0.71-4.678,0.201c-1.665,1.34-0.107,2.002-3.158,2.57 c-5.067,0.943-2.794,17.322-7.666,16.993l-3.448-20.787l-2.906,9.237c-3.264,0.375-2.103-8.838-4.61-12.267 c-1.877-0.41-3.081,0.105-5.209-0.535c-4.629-1.392-9.483-2.361-14.335-2.394L61.928,2.962L30.827,6.444 c-6.973,0.39-12.42-2.553-19.012-4.179c0.568,5.5,3.271,11.221,2.147,16.882c-0.31,1.563-1.537,15.888-1.537,17.746v9.561 c0,4.185-0.179,4.788,2.713,7.616c3.298,3.225,0.284,4.436-0.57,6.366c1.585,1.129,8.179,2.824,8.658,5.457 c-0.593,1.555-8.357,3.198-10.586,4.074c-5.08,1.998-2.134,5.396-2.134,10.266v10.198c0,3.037,1.2,1.981,1.199,5.099 c-0.001,3.729-2.551,4.066-4.41,6.318l13.918,8.895c7.643-3.248,8.642-5.869,17.542-1.93c2.43,1.076,5.772,2.396,7.771,4.252 c1.557,1.446,5.391,5.508,3.915,7.723c-2.587,1.288-8.121-2.047-15.21,3.937c-7.063,5.962-15.716,13.129-19.385,21.933 c-2.098,5.034-4.257,9.748-5.607,15.127c-0.613,2.444-1.917,5.532-2.662,7.982c-0.747,2.455-1.141,5.645-1.99,8.487 c-0.739,2.473,0.174,6.167,0.815,8.65c0.684,2.647,0.3,7.099-0.12,9.82c-0.464,3.01,0.168,7.132-0.158,10.306 c-0.409,3.98-0.641,5.75-0.657,9.912c-0.017,4.375-0.39,5.061,3.796,6.518c1.917,0.667,6.048,0.943,6.994,3.036 c-0.604,4.281-7.833,0.109-9.563,3.211c4.991,0.453,9.228-0.164,14.395,0.713c2.428,0.413,10.433,1.487,11.739,3.353 c-1.063,2.979-12.257,2.934-15.232,3.637c-2.34,0.554-4.891,1.331-7.083,2.071c-9.065,3.06-6.058-0.77-6.496,15.391 c-0.217,7.987,1.787,27.463,0.907,33.587c-0.371,2.581-0.928,3.958-0.628,6.702c0.282,2.583,0.742,3.424,0.328,6.16 c-3.948,26.124-2.837,31.927-2.347,56.453l-0.045,17.588c-0.025,5.746,1.957,10.056,2.026,15.9 c0.043,3.576,1.691,9.454,2.616,13.153c1.313,5.253,7.835,17.313,11.02,21.844c7.344,10.449,25.821,22.591,37.221,27.32 c7.467,3.098,14.954,7.346,22.666,9.558c8.583,2.461,11.561,13.421,11.021,21.81c-0.541,8.42-10.851,13.959-18.105,14.166 C62.447,499.345,54.574,489.338,51.099,486.827z" fill="#EBDBC4"/></g></g></svg>