<?xml version="1.0" encoding="UTF-8" standalone="no"?><svg xmlns="http://www.w3.org/2000/svg" xmlns:xlink="http://www.w3.org/1999/xlink" fill="#000000" height="927.1" preserveAspectRatio="xMidYMid meet" version="1" viewBox="157.4 99.0 914.3 927.1" width="914.3" zoomAndPan="magnify"><g clip-rule="evenodd" fill-rule="evenodd"><g id="change1_1"><path d="M614.5,1026c251.8,0,457.1-208.2,457.1-463.5S866.3,99,614.5,99c-251.7,0-457.1,208.3-457.1,463.5 S362.8,1026,614.5,1026L614.5,1026z" fill="#fed922"/></g><g id="change2_1"><path d="M445,922.1c276,0,499.7-211.2,499.7-471.6c0-110.9-40.5-212.8-108.4-293.4c140.4,79.2,235.4,231,235.4,405.5 c0,256-204.6,463.5-457.1,463.5c-119.6,0-228.5-46.6-310-122.9C349.1,915.4,396.2,922.1,445,922.1L445,922.1z" fill="#e4a10a"/></g><g id="change2_2"><path d="M740.1,373.4c25.7,0,46.6-20.3,46.6-45.3c0-24.9-20.9-45.3-46.6-45.3c-25.6,0-46.6,20.3-46.6,45.3 C693.6,353,714.5,373.4,740.1,373.4L740.1,373.4z" fill="#e4a10a"/></g><g id="change2_3"><path d="M747.7,548.2c24,0,43.5-18.5,43.5-41.3c0-22.7-19.5-41.2-43.5-41.2c-24,0-43.5,18.5-43.5,41.2 C704.2,529.7,723.7,548.2,747.7,548.2L747.7,548.2z" fill="#e4a10a"/></g><g id="change2_4"><path d="M496.9,488.2c52.1,0,94.5-40.5,94.5-90.1S549,308,496.9,308s-94.5,40.5-94.5,90.1S444.8,488.2,496.9,488.2 L496.9,488.2z" fill="#e4a10a"/></g><g id="change2_5"><path d="M374,708.7c75.8,0,137.6-61.2,137.6-136.3c0-75-61.9-136.3-137.6-136.3s-137.5,61.3-137.5,136.3 C236.4,647.5,298.2,708.7,374,708.7L374,708.7z" fill="#e4a10a"/></g><g id="change2_6"><path d="M547.1,673.7c21.5,0,39-16.7,39-37.2c0-20.5-17.6-37.2-39-37.2c-21.5,0-39,16.7-39,37.2 C508,657,525.6,673.7,547.1,673.7L547.1,673.7z" fill="#e4a10a"/></g><g id="change2_7"><path d="M423.7,879c20.1,0,36.4-14.1,36.4-31.4c0-17.3-16.3-31.4-36.4-31.4c-20.1,0-36.4,14.1-36.4,31.4 C387.3,864.9,403.6,879,423.7,879L423.7,879z" fill="#e4a10a"/></g></g></svg>